<?xml version="1.0" encoding="utf-8"?>
<!-- Generator: Adobe Illustrator 23.0.1, SVG Export Plug-In . SVG Version: 6.00 Build 0)  -->
<svg version="1.1" id="Layer_1" xmlns="http://www.w3.org/2000/svg" xmlns:xlink="http://www.w3.org/1999/xlink" x="0px" y="0px"
	 viewBox="0 0 421.9 190.5" style="enable-background:new 0 0 421.9 190.5;" xml:space="preserve">
<style type="text/css">
	.st0{opacity:5.000000e-02;fill:#131313;}
	.st1{fill:#2E1010;}
	.st2{fill:#E5D8C7;}
	.st3{fill:#F1E9DE;}
	.st4{opacity:8.000000e-02;fill:#5E4C38;}
	.st5{fill:#F15C5B;}
	.st6{fill:#4D1317;}
	.st7{fill:#DB4747;}
	.st8{fill:#E5DBCF;}
	.st9{fill:#D8C7B2;}
	.st10{opacity:0.5;}
	.st11{fill:#7BCDEA;}
	.st12{fill:#FFFFFF;}
	.st13{fill:#F15C5B;stroke:#000000;stroke-width:0.25;stroke-miterlimit:10;}
</style>
<g>
	<g>
		<path class="st0" d="M42.9,187.1c-0.3,2.3,4.1,2.6,5.8,2.9c6,1,12.1,0.2,18.1-0.5c0.7-0.1,1.4-0.2,2-0.3
			c6.3-0.9,12.4,0.7,18.7,0.8c5.2,0.1,10.4,0.1,15.6-0.5c0.8-0.1,2.3-0.2,2.8-1.1c0.5-0.9,0-1.6-0.8-1.9c-3.7-1.5-7.7-1.5-11.6-1.6
			c-7.9-0.3-15.6,1.8-23.4,1.3c-1.7-0.1-3.5-0.4-5.2-0.7c-0.6-0.1-1.2-0.2-1.7-0.3c-3.3-0.5-6.6-0.6-10-0.4
			c-1.7,0.1-3.4,0.2-5.1,0.4c-1.4,0.2-3.3,0.2-4.4,0.9C43.1,186.3,42.9,186.7,42.9,187.1z"/>
		<g>
			<path class="st1" d="M91.3,159.6c-0.1,0.7-0.1,1.5-0.2,2.2v0c0,0.1,0,0.2,0,0.3c-0.1,0.9-0.2,1.7-0.3,2.6
				c-0.2,1.8-0.5,3.5-0.7,5.3c-0.5,3.5-1.2,6.9-1.8,10.3c-0.4,1.9-0.7,3.9-1.1,5.8c-0.1,0.6,0.1,1.4,0.6,1.6c0.5,0.2,1-0.2,1.1-0.9
				c1.3-6.9,2.7-13.9,3.6-20.9c0.1-1,0.2-2.1,0.3-3.1c0.1-1,0.2-2.1,0.3-3.2c0-0.7-0.4-1.3-0.9-1.3
				C91.6,158.3,91.3,158.9,91.3,159.6L91.3,159.6z"/>
		</g>
		<g>
			<path class="st1" d="M87.9,187c0.2,0.1,0.4,0.2,0.6,0.3c0.2,0.1,0.4,0.2,0.7,0.3c0.8,0.2,1.9,0.4,2.9,0.4c0.2,0,0.5,0,0.7-0.1
				c0.2,0,0.4-0.1,0.5-0.1c0.2-0.1,0.4-0.1,0.5-0.2c0.5-0.3,0.5-0.9,0.3-1.3c-0.3-0.5-0.6-0.9-1.2-1.2c-0.1-0.1-0.3-0.1-0.4-0.2
				c-1.3-0.4-2.8,0-3.8,1c-0.1,0.1-0.2,0.2-0.3,0.3c-0.1,0.2-0.4,0.4-0.5,0.6C88,186.8,88,186.9,87.9,187z"/>
			<g>
				<path class="st1" d="M87.6,187.7c0.6,0.3,1.2,0.6,1.8,0.7c0.6,0.1,1.3,0.3,1.9,0.3c0.7,0.1,1.3,0,2-0.1c0.6-0.2,1.3-0.4,1.6-1
					c0.6-1.2-0.3-2.5-1.3-3.1c-1-0.6-2.3-0.7-3.4-0.3c-0.6,0.2-1.2,0.6-1.7,1.1c-0.1,0.1-0.2,0.2-0.3,0.3c-0.1,0.1-0.2,0.2-0.2,0.3
					c0,0,0,0.1-0.1,0.1c0.1-0.1,0.1-0.1,0,0c-0.2,0.2-0.4,0.5-0.6,0.8C87.1,187,87.2,187.5,87.6,187.7c0.3,0.2,0.9,0.1,1-0.3
					c0-0.1,0.1-0.2,0.2-0.3c0,0,0.1-0.2,0,0c0,0,0.1-0.1,0.1-0.1c0.1-0.1,0.2-0.2,0.3-0.3c0,0,0.1-0.2,0-0.1c0,0,0,0,0,0
					c0,0,0.1-0.1,0.1-0.1c0.1-0.1,0.2-0.2,0.2-0.2c0,0,0.1-0.1,0.1-0.1c0,0,0.2-0.1,0.1-0.1c-0.1,0.1,0.1-0.1,0.1-0.1
					c0,0,0.1-0.1,0.1-0.1c0.1-0.1,0.2-0.1,0.3-0.2c0.1,0,0.1-0.1,0.2-0.1c0,0-0.1,0.1,0,0c0.1,0,0.2-0.1,0.3-0.1
					c0.1,0,0.2-0.1,0.3-0.1c0,0,0.1,0,0.1,0c0.1,0,0.1,0,0,0c0,0,0.1,0,0.1,0c0.2,0,0.4,0,0.6,0c0,0,0.2,0,0.1,0c0,0,0.1,0,0.1,0
					c0.1,0,0.2,0.1,0.4,0.1c0,0,0.2,0.1,0.1,0c-0.1,0,0.1,0.1,0.1,0.1c0.1,0,0.2,0.1,0.3,0.2c0.1,0.1,0,0,0,0c0,0,0.1,0.1,0.1,0.1
					c0,0,0.1,0.1,0.1,0.1c0,0,0.2,0.2,0.1,0.1c-0.1-0.1,0.1,0.1,0.1,0.1c0,0,0.1,0.1,0.1,0.1c0,0.1,0.1,0.1,0.1,0.2c0.1,0.1,0,0,0,0
					c0,0,0.1,0.2,0.1,0.3c0,0,0-0.1,0-0.1c0,0,0,0.1,0,0.1c0,0,0,0,0,0.1c0,0.1,0,0.1,0,0c0,0,0,0.1,0,0.1c0,0,0-0.1,0-0.1
					c0,0,0,0.1-0.1,0.1c0.1-0.1,0-0.1,0,0c0,0,0,0,0.1,0c0,0-0.1,0-0.1,0.1c0,0-0.1,0-0.1,0.1c0,0-0.2,0.1-0.1,0
					c-0.1,0-0.2,0.1-0.4,0.1c-0.1,0-0.3,0.1-0.4,0.1c0,0-0.3,0-0.1,0c-0.1,0-0.1,0-0.2,0c-0.3,0-0.6,0-0.9,0c-0.1,0-0.3,0-0.4,0
					c-0.1,0,0.2,0-0.1,0c-0.1,0-0.2,0-0.2,0c-0.3,0-0.6-0.1-0.9-0.2c-0.3-0.1-0.5-0.1-0.8-0.2c-0.2-0.1,0.1,0-0.1,0
					c-0.1,0-0.2-0.1-0.2-0.1c-0.1-0.1-0.3-0.1-0.4-0.2c-0.3-0.2-0.8-0.1-1,0.3C87.1,187,87.2,187.5,87.6,187.7z"/>
			</g>
		</g>
		<g>
			<path class="st1" d="M59.2,159.6c0,0.4,0.1,0.9,0.1,1.3c0,0.2,0,0.4,0.1,0.6c0,0.1,0,0.2,0,0.3c0-0.2,0,0.2,0,0.3
				c0.1,0.9,0.2,1.7,0.3,2.6c0.2,1.8,0.5,3.5,0.7,5.3c0.5,3.5,1.2,6.9,1.8,10.3c0.4,1.9,0.7,3.9,1.1,5.8c0.1,0.6-0.1,1.4-0.6,1.6
				c-0.5,0.2-1-0.2-1.1-0.9c-1.3-6.9-2.7-13.9-3.6-20.9c-0.1-1-0.2-2.1-0.3-3.1c-0.1-1-0.2-2.1-0.3-3.1c0-0.7,0.4-1.3,0.9-1.3
				C58.9,158.4,59.2,158.9,59.2,159.6L59.2,159.6z"/>
		</g>
		<g>
			<path class="st1" d="M62.5,187c-0.2,0.1-0.4,0.2-0.6,0.3c-0.2,0.1-0.4,0.2-0.7,0.3c-0.8,0.2-1.9,0.4-2.9,0.4
				c-0.2,0-0.5,0-0.7-0.1c-0.2,0-0.4-0.1-0.5-0.1c-0.2-0.1-0.4-0.1-0.5-0.2c-0.5-0.3-0.5-0.9-0.3-1.3c0.3-0.5,0.6-0.9,1.2-1.2
				c0.1-0.1,0.3-0.1,0.4-0.2c1.3-0.4,2.8,0,3.8,1c0.1,0.1,0.2,0.2,0.3,0.3c0.1,0.2,0.4,0.4,0.5,0.6C62.5,186.8,62.5,186.9,62.5,187z
				"/>
			<g>
				<path class="st1" d="M62.9,187.7c-0.6,0.3-1.2,0.6-1.8,0.7c-0.6,0.1-1.3,0.3-1.9,0.3c-0.7,0.1-1.3,0-2-0.1
					c-0.6-0.2-1.3-0.4-1.6-1c-0.6-1.2,0.3-2.5,1.3-3.1c1-0.6,2.3-0.7,3.4-0.3c0.6,0.2,1.2,0.6,1.7,1.1c0.1,0.1,0.2,0.2,0.3,0.3
					c0.1,0.1,0.2,0.2,0.2,0.3c0,0,0,0.1,0.1,0.1c-0.1-0.1-0.1-0.1,0,0c0.2,0.2,0.4,0.5,0.6,0.8C63.4,187,63.3,187.5,62.9,187.7
					c-0.3,0.2-0.9,0.1-1-0.3c0-0.1-0.1-0.2-0.2-0.3c0,0-0.1-0.2,0,0c0,0-0.1-0.1-0.1-0.1c-0.1-0.1-0.2-0.2-0.3-0.3
					c0,0-0.1-0.2,0-0.1c0,0,0,0,0,0c0,0-0.1-0.1-0.1-0.1c-0.1-0.1-0.2-0.2-0.2-0.2c0,0-0.1-0.1-0.1-0.1c0,0-0.2-0.1-0.1-0.1
					c0.1,0.1-0.1-0.1-0.1-0.1c0,0-0.1-0.1-0.1-0.1c-0.1-0.1-0.2-0.1-0.3-0.2c-0.1,0-0.1-0.1-0.2-0.1c0,0,0.1,0.1,0,0
					c-0.1,0-0.2-0.1-0.3-0.1c-0.1,0-0.2-0.1-0.3-0.1c0,0-0.1,0-0.1,0c-0.1,0-0.1,0,0,0c0,0-0.1,0-0.1,0c-0.2,0-0.4,0-0.6,0
					c0,0-0.2,0-0.1,0c0,0-0.1,0-0.1,0c-0.1,0-0.2,0.1-0.4,0.1c0,0-0.2,0.1-0.1,0c0.1,0-0.1,0.1-0.1,0.1c-0.1,0-0.2,0.1-0.3,0.2
					c-0.1,0.1,0,0,0,0c0,0-0.1,0.1-0.1,0.1c0,0-0.1,0.1-0.1,0.1c0,0-0.2,0.2-0.1,0.1c0.1-0.1-0.1,0.1-0.1,0.1c0,0-0.1,0.1-0.1,0.1
					c0,0.1-0.1,0.1-0.1,0.2c-0.1,0.1,0,0,0,0c0,0-0.1,0.2-0.1,0.3c0,0,0-0.1,0-0.1c0,0,0,0.1,0,0.1c0,0,0,0,0,0.1c0,0.1,0,0.1,0,0
					c0,0,0,0.1,0,0.1c0,0,0-0.1,0-0.1c0,0,0,0.1,0.1,0.1c-0.1-0.1,0-0.1,0,0c0,0,0,0-0.1,0c0,0,0.1,0,0.1,0.1c0,0,0.1,0,0.1,0.1
					c0,0,0.2,0.1,0.1,0c0.1,0,0.2,0.1,0.4,0.1c0.1,0,0.3,0.1,0.4,0.1c0,0,0.3,0,0.1,0c0.1,0,0.1,0,0.2,0c0.3,0,0.6,0,0.9,0
					c0.1,0,0.3,0,0.4,0c0.1,0-0.2,0,0.1,0c0.1,0,0.2,0,0.2,0c0.3,0,0.6-0.1,0.9-0.2c0.3-0.1,0.5-0.1,0.8-0.2c0.2-0.1-0.1,0,0.1,0
					c0.1,0,0.2-0.1,0.2-0.1c0.1-0.1,0.3-0.1,0.4-0.2c0.3-0.2,0.8-0.1,1,0.3C63.4,187,63.3,187.5,62.9,187.7z"/>
			</g>
		</g>
		<path class="st2" d="M137.8,169.6c1.9-1.3,3.2,0.1,3.6-0.2c4.8-3.8,10.7-7.7,16.2-11.8c-0.2-2.4-2.3-25.5-2.8-32.4
			c-2.6-34.3-2.4-68.8-3.1-103.3c-44.8,1.2-89.7,2.4-134.4,6.6c0.3,26.3-3.4,52.5,0.2,78.8c1.3,9.2,9.2,15.5,16.2,21.5
			C49,141.8,66,151.4,83.8,159.9c5.6,2.6,10.9,4.8,15.7,6.5c4.7,1.7,8.8,2.8,12,3.3C120.4,169.7,129.6,170.3,137.8,169.6z"/>
		<path class="st2" d="M148,151.4c0,0.2,0,0.4,0,0.6C148,151.8,148.1,151.6,148,151.4z"/>
		<path class="st2" d="M143.8,119.2c0,0.3,0,0.5,0,0.8c0,0,0,0,0,0C143.9,119.7,143.8,119.5,143.8,119.2z"/>
		<path class="st3" d="M141.3,169.4c-18,0.8-36,1.6-54.1,2.5c-4.5,0.2-9,0.4-13.5,0.6c-22.3,0.9-44.6,0.4-67,1.1
			c-3-11.1-3.4-22.7-4.5-34c-0.6-7.3-0.9-13.3-1-14.5c-1.6-23.1-1.5-45.8-1-68.9c0-1.9,0.1-3.8,0.1-5.8c-0.3-6.7,2.1-13.1,3.4-19.7
			c7.1-1,14.1-2.4,21.3-2.7c2-0.1,4.1-0.2,6.1-0.3c34.6-1.7,69.4-1.3,104-2c0.8,41.4-0.7,83.4,3.9,124.7
			C140.2,164.2,141.3,169.4,141.3,169.4z"/>
		<path class="st4" d="M133.9,12.6C97.1,13.4,60.4,15,23.7,18c-2,0.2-4.1,0.3-6.1,0.5c-1.4,0.1-2.8,0.2-4.2,0.4
			c-1.4,0.1-2.8,0.3-4.2,0.4c-2.7,0.3-2.8,3-5.6,3.4c-0.3,3.5-0.8,6.6-1.3,9.6c-0.2,1.5-0.5,3-0.7,4.4c-0.8,4.2-0.9,8.5-0.9,12.7
			c14.5-1.1,29-2.3,43.5-3.2c2.3-0.1,4.7-0.3,7-0.4c28-1.6,56-2.7,84.1-3.2c5.5,3.2,11.2,6.4,16.7,9.5c-0.2-9.2-0.5-18.4-0.7-27.6
			C145.6,20.4,139.7,16.5,133.9,12.6z"/>
		<path class="st5" d="M135.6,40c-41,0.8-81.9,2.7-122.8,5.7c-2,0.2-4.1,0.3-6.1,0.5c-2,0.1-4.1,0.3-6.1,0.5
			C0.1,37,0.2,27.3,1.2,17.6c2.7-0.4,5.5-0.6,8.3-0.9c1.4-0.1,2.8-0.3,4.2-0.4c1.4-0.1,2.8-0.2,4.2-0.4c2-0.2,4.1-0.3,6.1-0.5
			c36.7-2.9,73.4-4.6,110.2-5.4c1.4,4.9,2.6,9.9,3.5,14.9C139,32.4,139.3,39.9,135.6,40z"/>
		<circle class="st6" cx="20.6" cy="31.1" r="2.5"/>
		<path class="st6" d="M54.9,29.2c-0.1-1.4-1.2-2.5-2.6-2.4c-1.4,0.1-2.5,1.2-2.4,2.6c0.1,1.4,1.2,2.5,2.6,2.4
			C53.8,31.8,54.9,30.6,54.9,29.2z"/>
		<ellipse transform="matrix(0.9563 -0.2925 0.2925 0.9563 -4.5547 26.3472)" class="st6" cx="85.8" cy="28.4" rx="2.5" ry="2.5"/>
		<path class="st6" d="M119.4,28.4c-0.1-1.4-1.2-2.5-2.6-2.4c-1.4,0.1-2.5,1.2-2.4,2.6c0.1,1.4,1.2,2.5,2.6,2.4
			C118.3,31,119.4,29.8,119.4,28.4z"/>
		<path class="st7" d="M135.6,40c5.5,3.2,10.9,6.3,16.4,9.5c-0.2-9.2-0.2-18.4-0.4-27.6C145.8,17.8,140,14,134.2,10
			c0.2,5,0.5,10,0.7,15C135.2,32.5,135.6,40,135.6,40z"/>
		<g>
			<g>
				<path class="st3" d="M26.5,13.6c0.1,0.6,0.1,1,0.1,1.6l3.5-0.3c0-3.5-1.6-6.8-4.2-9.2c-1.6-1.6-3.7-2.7-5.9-3.2
					c-1.4-0.3-2.8-0.4-4.2-0.2c-1.4,0.2-2.7,0.7-4,1.4c-3.7,2-6.1,5.7-7,9.7c-1,4.5-0.2,9.3,2.3,13.2c2.5,3.9,7.3,5.9,11.8,5.7
					c0.5,0,1-0.1,1.5-0.2c0.5-0.1,0.9-0.2,1.2-0.6c0.3-0.3,0.5-0.8,0.5-1.3c0-0.5-0.2-0.9-0.6-1.2c-0.3-0.3-0.8-0.5-1.3-0.5
					c-1,0.2-1.9,0.2-2.9,0.1c-1-0.1-1.9-0.3-2.9-0.6c-0.6-0.2-1.1-0.5-1.6-0.8c-0.2-0.1-0.3-0.2-0.5-0.3c-0.1,0-0.1-0.1-0.2-0.1
					c-0.3-0.2-0.5-0.4-0.8-0.6c-0.3-0.2-0.5-0.5-0.7-0.7c0,0-0.1-0.1-0.1-0.2c-0.1-0.1-0.2-0.2-0.3-0.4c-0.5-0.6-0.8-1.3-1.2-2
					c-0.5-1.1-0.8-2.2-1.1-3.3C8,18.5,8,17.3,8.1,16c0.1-1.2,0.4-2.3,0.8-3.4c0.3-0.7,0.6-1.3,0.9-1.9c0.1-0.2,0.2-0.3,0.3-0.5
					c0.1-0.1,0.1-0.2,0.2-0.3c0,0,0,0,0,0c0.2-0.3,0.4-0.6,0.7-0.8c0.3-0.3,0.5-0.6,0.8-0.8c0.2-0.1,0.3-0.3,0.5-0.4
					c-0.5,0.4,0,0,0.1-0.1c0.6-0.5,1.2-0.8,1.9-1.2c0.7-0.3,1.4-0.5,2.1-0.7c0.6-0.1,1.3-0.1,1.9-0.1C19,5.8,19.7,6,20.4,6.2
					c0.6,0.2,1.2,0.5,1.7,0.9c0.1,0,0.1,0.1,0.2,0.1c0,0,0.1,0.1,0.1,0.1c0,0,0,0,0,0c0.1,0,0.1,0.1,0.2,0.1C23,7.7,23.2,8,23.5,8.2
					C23.8,8.5,24,8.7,24.3,9c0,0,0-0.1-0.1-0.1c0,0,0.1,0.1,0.1,0.1c0,0.1,0.1,0.1,0.1,0.1c0.1,0.1,0.2,0.3,0.3,0.4
					c0.4,0.5,0.7,1.1,1,1.7C26.1,12,26.4,12.8,26.5,13.6z"/>
			</g>
			<g>
				<path class="st8" d="M20.4,28.5c-0.3,0.1-0.6,0.1-1,0.1c0.5,0,1,0,1.4-0.1C20.7,28.5,20.5,28.5,20.4,28.5z"/>
				<path class="st8" d="M8.2,26.5c-2.5-3.8-3.3-8.7-2.3-13.2c0.9-4,3.4-7.8,7-9.7c1.3-0.7,2.6-1.2,4-1.4c0.2,0,0.5-0.1,0.7-0.1
					c-0.6,0-1.2,0-1.7,0.1c-1.4,0.2-2.7,0.7-4,1.4c-3.7,2-6.1,5.7-7,9.7c-1,4.5-0.2,9.3,2.3,13.2c2.5,3.9,7.3,5.9,11.8,5.7
					c0.2,0,0.3,0,0.5,0C15.1,32.3,10.6,30.3,8.2,26.5z"/>
				<path class="st8" d="M27.6,15.1c0-0.6,0-1-0.1-1.5c-0.2-0.8-0.4-1.6-0.8-2.4c-0.3-0.6-0.6-1.2-1-1.7c-0.1-0.1-0.2-0.3-0.3-0.4
					c0,0-0.1-0.1-0.1-0.1c0,0-0.1-0.1-0.1-0.1c0,0,0.1,0.1,0.1,0.1c-0.2-0.3-0.5-0.5-0.8-0.8c-0.3-0.3-0.6-0.5-0.8-0.7
					c-0.1-0.1-0.1-0.1-0.2-0.1c0,0,0,0,0,0c0,0-0.1-0.1-0.1-0.1c-0.1,0-0.1-0.1-0.2-0.1c-0.5-0.3-1.1-0.6-1.7-0.9
					c-0.7-0.2-1.4-0.4-2.2-0.5c-0.5,0-1,0-1.5,0c0.2,0,0.3,0,0.5,0C19,5.8,19.7,6,20.4,6.2c0.6,0.2,1.2,0.5,1.7,0.9
					c0.1,0,0.1,0.1,0.2,0.1c0,0,0.1,0.1,0.1,0.1c0,0,0,0,0,0c0.1,0,0.1,0.1,0.2,0.1C23,7.7,23.2,8,23.5,8.2C23.8,8.5,24,8.7,24.3,9
					c0,0,0-0.1-0.1-0.1c0,0,0.1,0.1,0.1,0.1c0,0.1,0.1,0.1,0.1,0.1c0.1,0.1,0.2,0.3,0.3,0.4c0.4,0.5,0.7,1.1,1,1.7
					c0.3,0.8,0.6,1.6,0.8,2.4c0.1,0.6,0.1,1,0.1,1.6L27.6,15.1z"/>
			</g>
		</g>
		<g>
			<g>
				<path class="st3" d="M57.9,12.2c0,0.3,0.1,0.5,0.1,0.8l3.5-0.2c-0.1-0.8-0.2-1.6-0.4-2.4c-0.2-0.8-0.5-1.5-0.9-2.3
					c-2-4.5-7.1-7.1-12-6.9c-5.1,0.3-9.9,3.8-11.5,8.7c-0.2,0.6-0.4,1.3-0.6,2c-1,4.5-0.2,9.3,2.3,13.2c2.5,3.9,7.3,5.9,11.8,5.7
					c0.5,0,1-0.1,1.5-0.2c0.5-0.1,0.9-0.2,1.2-0.6c0.3-0.3,0.5-0.8,0.5-1.3c0-0.5-0.2-0.9-0.6-1.2c-0.3-0.3-0.8-0.5-1.3-0.5
					c-1,0.2-1.9,0.2-2.9,0.1c-1-0.1-1.9-0.3-2.9-0.6c-0.6-0.2-1.1-0.5-1.6-0.8c-0.2-0.1-0.3-0.2-0.5-0.3c-0.1,0-0.1-0.1-0.2-0.1
					c-0.3-0.2-0.5-0.4-0.8-0.6c-0.3-0.2-0.5-0.5-0.7-0.7c0,0-0.1-0.1-0.1-0.2c-0.1-0.1-0.2-0.2-0.3-0.4c-0.5-0.6-0.8-1.3-1.2-2
					c-0.5-1.1-0.8-2.2-1.1-3.3c-0.2-1.2-0.3-2.5-0.2-3.7c0.1-1.2,0.4-2.3,0.8-3.4C41,9.4,42,7.8,43.5,6.6c-0.1,0.1-0.1,0.1-0.2,0.2
					c3.5-3.1,9.3-2.6,12.4,0.9c0-0.1-0.1-0.1-0.1-0.1c0.7,0.7,1.1,1.5,1.6,2.3C57.5,10.6,57.7,11.4,57.9,12.2z"/>
			</g>
			<g>
				<path class="st8" d="M51.8,27.1c-0.3,0.1-0.6,0.1-1,0.1c0.5,0,1,0,1.4-0.1C52.1,27.1,51.9,27.1,51.8,27.1z"/>
				<path class="st8" d="M39.6,25.1c-2.5-3.8-3.3-8.7-2.3-13.2c0.2-0.7,0.3-1.3,0.6-2c1.5-4.8,6.1-8.3,11.1-8.6
					c-5.3-0.1-10.4,3.6-12,8.7c-0.2,0.6-0.4,1.3-0.6,2c-1,4.5-0.2,9.3,2.3,13.2c2.5,3.9,7.3,5.9,11.8,5.7c0.2,0,0.3,0,0.5,0
					C46.5,30.9,42,28.8,39.6,25.1z"/>
				<path class="st8" d="M57.9,12.2c0,0.3,0.1,0.5,0.1,0.8l1,0c0-0.3,0-0.5-0.1-0.8c-0.2-0.8-0.4-1.6-0.8-2.4
					c-0.5-0.8-0.9-1.6-1.5-2.3l0.1,0.1c-1.9-2.1-4.8-3.2-7.6-2.9c2.5,0,5,1.2,6.6,3c0-0.1-0.1-0.1-0.1-0.1c0.7,0.7,1.1,1.5,1.6,2.3
					C57.5,10.6,57.7,11.4,57.9,12.2z"/>
			</g>
		</g>
		<g>
			<g>
				<path class="st3" d="M91,11.4l3.6-0.2C94.4,10.1,94.1,9,93.7,8c-0.4-1-1-2-1.7-2.9c-4.1-5.9-13.4-6-18.6-1.4
					c-0.6,0.5-1.1,1.1-1.6,1.8c-0.4,0.6-0.8,1.1-1.1,1.8c-0.6,1.2-1.1,2.5-1.4,3.9c-1,4.5-0.2,9.3,2.3,13.2
					c2.5,3.9,7.3,5.9,11.8,5.7c0.5,0,1-0.1,1.5-0.2c0.5-0.1,0.9-0.2,1.2-0.6c0.3-0.3,0.5-0.8,0.5-1.3c0-0.5-0.2-0.9-0.6-1.2
					c-0.3-0.3-0.8-0.5-1.3-0.5c-1,0.2-1.9,0.2-2.9,0.1c-1-0.1-1.9-0.3-2.9-0.6c-0.6-0.2-1.1-0.5-1.6-0.8c-0.2-0.1-0.3-0.2-0.5-0.3
					c-0.1,0-0.1-0.1-0.2-0.1c-0.3-0.2-0.5-0.4-0.8-0.6c-0.3-0.2-0.5-0.5-0.7-0.7c0,0-0.1-0.1-0.1-0.2c-0.1-0.1-0.2-0.2-0.3-0.4
					c-0.5-0.6-0.8-1.3-1.2-2c-0.5-1.1-0.8-2.2-1.1-3.3c-0.2-1.2-0.3-2.5-0.2-3.7c0.1-1.2,0.4-2.3,0.8-3.4c0.3-0.7,0.6-1.3,0.9-1.9
					c0.1-0.2,0.2-0.3,0.3-0.5c0.1-0.1,0.1-0.2,0.2-0.3c0.6-0.7,1.2-1.5,2-2.1c-0.1,0.1-0.1,0.1-0.2,0.2c3.5-3.1,9.4-2.7,12.4,0.9
					l-0.1-0.1c0.1,0.1,0.1,0.2,0.2,0.2C89,7,89.1,7.2,89.2,7.3c0.4,0.5,0.7,1.1,1,1.7C90.6,9.7,90.9,10.5,91,11.4z"/>
			</g>
			<g>
				<path class="st8" d="M84.9,26.3c-0.3,0.1-0.6,0.1-1,0.1c0.5,0,1,0,1.4-0.1C85.2,26.3,85,26.3,84.9,26.3z"/>
				<path class="st8" d="M72.7,24.3c-2.5-3.8-3.3-8.7-2.3-13.2c0.2-0.7,0.3-1.3,0.6-2c0.2-0.6,0.5-1.3,0.8-1.9
					c0.3-0.7,0.7-1.3,1.1-1.9c0.4-0.6,0.9-1.1,1.4-1.6c2.1-1.9,4.9-2.9,7.7-3.3c-2.9,0.1-5.9,1-8.2,2.9c-0.8,0.6-1.4,1.4-2,2.2
					c-0.4,0.6-0.8,1.1-1.1,1.8c-0.6,1.2-1.1,2.5-1.4,3.9c-1,4.5-0.2,9.3,2.3,13.2c2.5,3.9,7.3,5.9,11.8,5.7c0.2,0,0.3,0,0.5,0
					C79.6,30,75.2,28,72.7,24.3z"/>
				<path class="st8" d="M91,11.4l1,0c-0.2-0.8-0.4-1.6-0.8-2.4c-0.3-0.6-0.6-1.2-1-1.7C90.1,7.1,90,7,89.9,6.9c0,0-0.1-0.1-0.1-0.1
					c-0.1-0.1-0.1-0.1-0.1-0.1l0.1,0.1C88,4.5,85,3.4,82.3,3.6c2.5,0.1,4.9,1.2,6.6,3.1l-0.1-0.1c0.1,0.1,0.1,0.2,0.2,0.2
					C89,7,89.1,7.2,89.2,7.3c0.4,0.5,0.7,1.1,1,1.7C90.6,9.7,90.9,10.5,91,11.4z"/>
			</g>
		</g>
		<g>
			<g>
				<path class="st3" d="M119.6,6.8c0,0,0.1,0.1,0.1,0.1c0,0.1,0.1,0.1,0.1,0.1c0.1,0.1,0.2,0.3,0.3,0.4c0.4,0.5,0.7,1.1,1,1.7
					c0.2,0.4,0.3,0.8,0.5,1.2l3.7-0.1c-0.6-2.5-2-4.9-3.8-6.7c-1.6-1.6-3.7-2.7-5.9-3.2c-1.4-0.3-2.8-0.4-4.2-0.2
					c-1.4,0.2-2.7,0.7-4,1.4c-3.7,2-6.1,5.7-7,9.7c-1,4.5-0.2,9.3,2.3,13.2c2.5,3.9,7.3,5.9,11.8,5.7c0.5,0,1-0.1,1.5-0.2
					c0.5-0.1,0.9-0.2,1.2-0.6c0.3-0.3,0.5-0.8,0.5-1.3c0-0.5-0.2-0.9-0.6-1.2c-0.3-0.3-0.8-0.5-1.3-0.5c-1,0.2-1.9,0.2-2.9,0.1
					c-1-0.1-1.9-0.3-2.9-0.6c-0.6-0.2-1.1-0.5-1.6-0.8c-0.2-0.1-0.3-0.2-0.5-0.3c-0.1,0-0.1-0.1-0.2-0.1c-0.3-0.2-0.5-0.4-0.8-0.6
					c-0.3-0.2-0.5-0.5-0.7-0.7c0,0-0.1-0.1-0.1-0.2c-0.1-0.1-0.2-0.2-0.3-0.4c-0.5-0.6-0.8-1.3-1.2-2c-0.5-1.1-0.8-2.2-1.1-3.3
					c-0.2-1.2-0.3-2.5-0.2-3.7c0.1-1.2,0.4-2.3,0.8-3.4c0.3-0.7,0.6-1.3,0.9-1.9c0.1-0.2,0.2-0.3,0.3-0.5c0.1-0.1,0.1-0.2,0.2-0.3
					c0,0,0,0,0,0c0.2-0.3,0.4-0.6,0.7-0.8c0.3-0.3,0.5-0.6,0.8-0.8c0.2-0.1,0.3-0.3,0.5-0.4c-0.5,0.4,0,0,0.1-0.1
					c0.6-0.5,1.2-0.8,1.9-1.2c0.7-0.3,1.4-0.5,2.1-0.7c0.6-0.1,1.3-0.1,1.9-0.1c0.7,0.1,1.5,0.3,2.2,0.5c0.6,0.2,1.2,0.5,1.7,0.9
					c0.1,0,0.1,0.1,0.2,0.1c0,0,0.1,0.1,0.1,0.1c0,0,0,0,0,0c0.1,0,0.1,0.1,0.2,0.1c0.3,0.2,0.6,0.5,0.8,0.7
					C119.2,6.3,119.5,6.6,119.6,6.8C119.7,6.8,119.7,6.8,119.6,6.8z"/>
			</g>
			<g>
				<path class="st8" d="M115.8,26.4c-0.3,0.1-0.6,0.1-1,0.1c0.5,0,1,0,1.4-0.1C116.1,26.4,116,26.4,115.8,26.4z"/>
				<path class="st8" d="M103.6,24.4c-2.5-3.8-3.3-8.7-2.3-13.2c0.9-4,3.4-7.8,7-9.7c1.3-0.7,2.6-1.2,4-1.4c0.2,0,0.5-0.1,0.7-0.1
					c-0.6,0-1.2,0-1.7,0.1c-1.4,0.2-2.7,0.7-4,1.4c-3.7,2-6.1,5.7-7,9.7c-1,4.5-0.2,9.3,2.3,13.2c2.5,3.9,7.3,5.9,11.8,5.7
					c0.2,0,0.3,0,0.5,0C110.6,30.1,106.1,28.1,103.6,24.4z"/>
				<path class="st8" d="M119.6,6.8c0,0,0.1,0.1,0.1,0.1c0,0.1,0.1,0.1,0.1,0.1c0.1,0.1,0.2,0.3,0.3,0.4c0.4,0.5,0.7,1.1,1,1.7
					c0.2,0.4,0.3,0.8,0.5,1.2l1,0c-0.1-0.4-0.3-0.8-0.5-1.2c-0.3-0.6-0.6-1.2-1-1.7c-0.1-0.1-0.2-0.3-0.3-0.4c0,0-0.1-0.1-0.1-0.1
					c0,0-0.1-0.1-0.1-0.1c0,0,0.1,0.1,0.1,0.1c-0.2-0.3-0.5-0.5-0.8-0.8c-0.3-0.3-0.6-0.5-0.8-0.7c-0.1-0.1-0.1-0.1-0.2-0.1
					c0,0,0,0,0,0c0,0-0.1-0.1-0.1-0.1c-0.1,0-0.1-0.1-0.2-0.1c-0.5-0.3-1.1-0.6-1.7-0.9c-0.7-0.2-1.4-0.4-2.2-0.5c-0.5,0-1,0-1.5,0
					c0.2,0,0.3,0,0.5,0c0.7,0.1,1.5,0.3,2.2,0.5c0.6,0.2,1.2,0.5,1.7,0.9c0.1,0,0.1,0.1,0.2,0.1c0,0,0.1,0.1,0.1,0.1c0,0,0,0,0,0
					c0.1,0,0.1,0.1,0.2,0.1c0.3,0.2,0.6,0.5,0.8,0.7C119.2,6.3,119.5,6.6,119.6,6.8C119.7,6.8,119.7,6.8,119.6,6.8z"/>
			</g>
		</g>
		<g>
			<path class="st9" d="M144.1,122.3c0.2,0,0.2-0.3,0-0.3C143.9,122,143.9,122.3,144.1,122.3L144.1,122.3z"/>
		</g>
		<g>
			<g>
				<path class="st2" d="M13.6,56.6c-1,14.3-1.6,28.6-1.5,43c0.1,14.3,0.7,28.7,2.1,42.9c0.8,8,1.8,16,3.2,23.9
					c0.1,0.8,1.4,0.8,1.3-0.1c-2.3-14.2-3.8-28.4-4.6-42.7c-0.8-14.3-0.9-28.7-0.4-43c0.3-8,0.7-16.1,1.2-24.1
					C14.9,55.7,13.6,55.7,13.6,56.6L13.6,56.6z"/>
			</g>
			<g>
				<path class="st2" d="M48.8,54.9c-1,14.4-1.5,28.8-1.3,43.2c0.1,14.4,0.8,28.8,2.2,43.2c0.8,8,1.8,16.1,3,24.1
					c0.1,0.8,1.4,0.8,1.3-0.1c-2.2-14.3-3.7-28.6-4.5-43c-0.8-14.4-1-28.8-0.6-43.2c0.2-8.1,0.6-16.2,1.2-24.2
					C50.2,54,48.9,54.1,48.8,54.9L48.8,54.9z"/>
			</g>
			<g>
				<path class="st2" d="M83.8,53.4c-1,14.4-1.4,28.8-1.3,43.2c0.1,14.4,0.8,28.8,2.2,43.1c0.8,8,1.8,16.1,3,24.1
					c0.1,0.8,1.4,0.8,1.3-0.1c-2.2-14.2-3.7-28.6-4.5-43c-0.8-14.4-1-28.8-0.6-43.2c0.2-8.1,0.6-16.2,1.1-24.2
					C85.2,52.5,83.9,52.6,83.8,53.4L83.8,53.4z"/>
			</g>
			<g>
				<path class="st2" d="M118.6,51.9c-0.9,14.3-1.4,28.6-1.3,42.9c0.1,14.3,0.8,28.6,2.1,42.9c0.8,8,1.8,16,3,23.9
					c0.1,0.8,1.4,0.8,1.3-0.1c-2.2-14.1-3.6-28.4-4.4-42.7c-0.8-14.3-0.9-28.6-0.5-42.9c0.2-8,0.6-16.1,1.1-24.1
					C120,51,118.7,51.1,118.6,51.9L118.6,51.9z"/>
			</g>
		</g>
		<g>
			<g>
				<path class="st2" d="M12,162.5c14.9,0.6,29.8,0.9,44.7,0.7c14.9-0.2,29.8-0.8,44.6-2.1c8.4-0.7,16.7-1.6,25-2.7
					c0.8-0.1,0.8-1.4-0.1-1.3c-14.7,2-29.6,3.3-44.4,4c-14.9,0.8-29.8,1-44.7,0.8c-8.4-0.1-16.8-0.3-25.2-0.7
					C11.1,161.2,11.2,162.5,12,162.5L12,162.5z"/>
			</g>
			<g>
				<path class="st2" d="M10.7,129c3.6,0.3,7.3,0.5,10.9,0.6c0.4,0,0.6-0.4,0.6-0.7c0-0.4-0.3-0.6-0.7-0.6
					c-3.6-0.1-7.3-0.3-10.9-0.6c-0.4,0-0.6,0.4-0.6,0.7C10.1,128.8,10.4,129,10.7,129L10.7,129z"/>
			</g>
			<g>
				<path class="st2" d="M112.6,125.3c4.1-0.4,8.2-0.9,12.3-1.3c0.4,0,0.6-0.3,0.6-0.7c0-0.3-0.3-0.7-0.7-0.6
					c-4.1,0.4-8.2,0.9-12.3,1.3C111.7,124.1,111.8,125.4,112.6,125.3L112.6,125.3z"/>
			</g>
			<g>
				<path class="st2" d="M9,95.9c14.9,1.4,29.9,1.5,44.9,0.8c14.9-0.7,29.8-2.1,44.6-3.7c8.4-0.9,16.8-1.9,25.2-2.9
					c0.8-0.1,0.8-1.4-0.1-1.3c-14.8,1.7-29.6,3.5-44.5,4.9c-14.8,1.3-29.7,2.2-44.7,2.1c-8.4-0.1-16.8-0.4-25.1-1.2
					C8.5,94.6,8.2,95.8,9,95.9L9,95.9z"/>
			</g>
			<g>
				<path class="st2" d="M7.3,62c14.9,1.4,29.9,1.7,44.8,1.2c15-0.5,29.9-1.8,44.8-3.4c8.4-0.9,16.8-1.9,25.1-2.9
					c0.8-0.1,0.8-1.4-0.1-1.3c-14.9,1.8-29.8,3.5-44.7,4.8c-14.8,1.2-29.7,1.9-44.6,1.7C24.3,62,16,61.6,7.6,60.8
					C6.8,60.7,6.5,62,7.3,62L7.3,62z"/>
			</g>
		</g>
		<g class="st10">
			<path class="st9" d="M140.1,54.3c0.7,26.7-0.2,53.4,2.1,80c0.6,7.3,1.5,14.6,2.7,21.8c0.1,0.7,1.1,0.4,1-0.3
				c-4.3-26.1-4.2-52.7-4.4-79.1c0-7.5-0.1-15-0.3-22.4C141.1,53.7,140.1,53.6,140.1,54.3L140.1,54.3z"/>
		</g>
		<g class="st10">
			<path class="st9" d="M146.6,57.5c-0.1,12.2,0,24.4,0.2,36.6c0.2,11.9,0.4,23.8,1.4,35.6c0.6,6.6,1.4,13.1,2.7,19.6
				c0.1,0.7,1.1,0.4,1-0.3c-2.2-11.7-3.1-23.5-3.6-35.3c-0.4-12-0.6-23.9-0.7-35.9c0-6.8,0-13.6,0-20.4
				C147.7,56.9,146.6,56.9,146.6,57.5L146.6,57.5z"/>
		</g>
		<g>
			<path class="st5" d="M50.5,122.9C50.5,122.9,50.4,122.9,50.5,122.9C50.4,122.9,50.4,122.9,50.5,122.9c-1.7,0.3-3.9,1.4-4.3,3.2
				c-0.4,1.9,1.5,3.3,3,3.6c1.6,0.4,3.4,0.1,4.9-0.7c1.3-0.7,2.6-2.2,1.7-3.9C54.8,123.2,52.4,122.6,50.5,122.9z"/>
			<path class="st5" d="M89,121.7C89,121.7,89,121.7,89,121.7C88.9,121.7,88.9,121.7,89,121.7c-1.9-0.2-3.8,0.4-5,2
				c-0.4,0.7-0.7,1.5-0.4,2.3c0.3,0.8,0.9,1.3,1.5,1.7c1.4,0.9,3.2,1.2,4.8,0.9c1.5-0.3,3.6-1.4,3.6-3.3
				C93.5,123.1,90.8,121.9,89,121.7z"/>
		</g>
		<g>
			<g>
				<g>
					<g>
						<g>
							<g>
								<g>
									<path class="st1" d="M75.6,124.9c-0.7-2.2-2.6-3.9-5.2-4c-2.8-0.1-4.7,1.9-5.6,4.2c-0.5,1.3,1.8,1.9,2.2,0.6
										c0.5-1.4,1.6-2.7,3.3-2.6c1.5,0.1,2.5,1.1,2.9,2.3C73.8,126.8,76.1,126.3,75.6,124.9L75.6,124.9z"/>
								</g>
							</g>
						</g>
					</g>
				</g>
			</g>
			<path class="st1" d="M87.7,114.7C87.7,114.7,87.7,114.7,87.7,114.7c1.2-1.3,2.8-2.3,4.6-3.2c0.7-0.3,0.3-1.3-0.4-1.2
				c-3.3,0.5-6.3,2.7-8.5,4.9c-0.4,0.4-0.9,0.8-1.2,1.3c-0.4,0.4-0.7,0.8-1.1,1.3c-0.4,0.5,0.1,1.1,0.7,1c0,0,0.1,0,0.1,0
				c0.6-0.1,1.3-0.2,1.9-0.3c3-0.4,6.1,0.1,9,0.9c0.7,0.2,1.1-0.6,0.6-1.1c-1.5-1.2-3.4-2.1-5.3-2.5
				C87.5,115.6,87.3,115.1,87.7,114.7z"/>
			<path class="st1" d="M51.5,115.8C51.5,115.8,51.5,115.8,51.5,115.8c-1.3-1.2-3-2.2-4.7-2.9c-0.7-0.3-0.4-1.3,0.3-1.2
				c3.3,0.3,6.4,2.3,8.8,4.4c0.5,0.4,0.9,0.8,1.3,1.2c0.4,0.4,0.8,0.8,1.1,1.2c0.4,0.5,0,1.1-0.6,1c0,0-0.1,0-0.1,0
				c-0.6-0.1-1.3-0.2-1.9-0.2c-3.1-0.2-6.1,0.5-8.9,1.4c-0.7,0.2-1.2-0.6-0.7-1c1.4-1.3,3.2-2.3,5.2-2.8
				C51.8,116.7,51.9,116.2,51.5,115.8z"/>
		</g>
		<path class="st11" d="M30.4,119.2c0-0.9-1.6-1.4-2.5-1.7c-3.6-1.1-8.1-1.7-11.6-0.2c-3.1,1.4-5.5,4.3-5.5,7.7c0,2.3,1.1,4.9,3.2,6
			c2.2,1.2,5.1,0.4,7.1-1c1.9-1.3,3.1-3.1,4.6-4.8c1.5-1.7,2.9-3.5,4.4-5.3C30.3,119.7,30.4,119.4,30.4,119.2z"/>
		<path class="st12" d="M22,119.4c-0.8-0.6-1.7-0.8-2.8-0.5c-0.2,0-0.4,0.1-0.7,0.1c-2.9,0.7-5.9,4.1-3.9,6.6c1.7,2.3,5-0.3,6.7-1.9
			c0.3-0.3,0.5-0.6,0.7-0.9c0.1-0.2,0.2-0.3,0.3-0.5c0.1-0.2,0.2-0.3,0.2-0.5c0.3-0.6,0.3-1.2-0.1-2C22.2,119.7,22.1,119.5,22,119.4
			z"/>
		<path class="st11" d="M110.1,120.3c0.3-0.9,1.9-0.9,2.8-1c3.7-0.2,8.2,0.4,11.1,2.8c2.6,2.1,4.1,5.5,3.3,8.8
			c-0.6,2.2-2.3,4.4-4.6,4.9c-2.5,0.6-5-1-6.5-2.8c-1.5-1.7-2.2-3.8-3.2-5.8c-1-2-1.9-4.1-2.8-6.2
			C110.1,120.8,110.1,120.5,110.1,120.3z"/>
		<path class="st12" d="M118.2,122.6c0.9-0.3,1.9-0.3,2.8,0.3c0.2,0.1,0.4,0.2,0.6,0.3c2.6,1.4,4.7,5.5,2.1,7.4
			c-2.2,1.8-4.7-1.5-5.9-3.5c-0.2-0.3-0.3-0.7-0.4-1.1c-0.1-0.2-0.1-0.4-0.1-0.5c0-0.2-0.1-0.4-0.1-0.6c-0.1-0.7,0-1.3,0.6-1.8
			C117.9,122.9,118,122.7,118.2,122.6z"/>
		<path class="st11" d="M113.6,110c-0.3-0.6,0.6-1.5,1.1-2c2-2,4.8-3.8,7.7-4c2.5-0.1,5.1,1,6.3,3.3c0.8,1.5,0.9,3.6-0.2,5.1
			c-1.1,1.5-3.3,1.9-5,1.7c-1.7-0.2-3.1-1-4.7-1.6c-1.6-0.6-3.1-1.3-4.7-2.1C113.9,110.3,113.7,110.1,113.6,110z"/>
		<path class="st12" d="M119.3,107.3c0.4-0.7,0.9-1.1,1.7-1.3c0.2-0.1,0.3-0.1,0.5-0.2c2.2-0.5,5.3,0.8,4.8,3.1
			c-0.4,2.1-3.4,1.5-5.1,0.9c-0.3-0.1-0.5-0.2-0.8-0.4c-0.1-0.1-0.2-0.2-0.4-0.2c-0.1-0.1-0.2-0.2-0.3-0.3c-0.4-0.3-0.6-0.7-0.6-1.3
			C119.3,107.6,119.3,107.4,119.3,107.3z"/>
		<g>
			<path class="st1" d="M128,139.5c-0.4,1.4-0.9,2.7-1.5,3.9l0-0.1c-0.9,1.7-1.8,3.4-3.2,4.8l0.1,0c-2.2,2.5-5.1,4.3-8.2,5.2
				c-0.4,0.1-0.8,0.2-1.2,0.4c-0.2,0.1-0.4,0.1-0.7,0.2c-0.1,0-0.2,0-0.3,0.1c-0.1,0,0,0,0,0c-0.1,0-0.2,0-0.2,0
				c-0.5,0.1-0.9,0.5-0.9,1c0.1,0.5,0.5,1,1,0.9c1.6-0.3,3.2-0.8,4.7-1.4c6.1-2.3,10.1-8.2,11.8-14.3c0.1-0.5,0-1.2-0.6-1.3
				C128.4,138.9,128.1,139.1,128,139.5L128,139.5z"/>
		</g>
		<g>
			<g>
				<path class="st1" d="M111.9,154.7c0,0.2,0,0.5,0,0.7c0,0.2-0.1,0.5-0.1,0.7c-0.5,1.2-1.4,2.3-2.9,2.6c-0.2,0-0.4,0-0.7,0
					c-1.4,0.1-2.6-1-2.7-2.3c-0.1-2.1,2.3-3.1,4.2-2.6c0.3,0.1,0.6,0.1,0.9,0.3c0.3,0.1,0.5,0.3,0.8,0.4
					C111.6,154.5,111.7,154.6,111.9,154.7z"/>
				<g>
					<path class="st1" d="M111.1,154.8c0,0.2,0,0.4,0,0.5c0-0.2,0,0.1,0,0.1c0,0.1,0,0.2,0,0.3c0,0-0.1,0.3,0,0.1
						c0,0.1-0.1,0.1-0.1,0.2c-0.1,0.1-0.1,0.2-0.2,0.4c0,0.1-0.1,0.1-0.1,0.2c0,0-0.1,0.2,0,0c-0.1,0.1-0.2,0.2-0.2,0.3
						c-0.1,0.1-0.1,0.2-0.2,0.3c0,0-0.1,0.1-0.1,0.1c0.2-0.1-0.1,0.1-0.1,0.1c-0.1,0.1-0.2,0.2-0.3,0.2c0,0-0.1,0-0.1,0.1
						c0.2-0.1,0,0-0.1,0c-0.1,0.1-0.3,0.1-0.4,0.1c0,0-0.3,0-0.1,0c-0.1,0-0.2,0-0.3,0c-0.1,0-0.3,0-0.4,0c-0.1,0-0.1,0-0.2,0
						c0.2,0,0,0,0,0c-0.1,0-0.3-0.1-0.4-0.1c0.2,0.1,0,0,0,0c-0.1,0-0.1-0.1-0.2-0.1c-0.1,0-0.1-0.1-0.2-0.1c-0.2-0.1,0.1,0.1,0,0
						c-0.1-0.1-0.2-0.2-0.3-0.3c-0.2-0.1,0.1,0.1,0,0c0,0-0.1-0.1-0.1-0.1c0,0-0.1-0.1-0.1-0.1c0,0,0-0.1-0.1-0.1c0,0.1,0.1,0.1,0,0
						c0-0.1-0.1-0.2-0.1-0.4c-0.1-0.2,0,0.2,0,0c0-0.1,0-0.1,0-0.2c0-0.1,0-0.1,0-0.2c0-0.2,0,0.2,0,0c0-0.1,0-0.3,0.1-0.4
						c0,0,0,0.1,0,0.1c0,0,0-0.1,0-0.1c0-0.1,0-0.1,0.1-0.2c0,0,0-0.1,0.1-0.1c0.1-0.2-0.1,0.1,0,0c0.1-0.1,0.1-0.2,0.2-0.3
						c0,0,0.1-0.2,0,0c0-0.1,0.1-0.1,0.2-0.1c0.1-0.1,0.2-0.1,0.2-0.2c0.1,0,0.1-0.1,0.2-0.1c-0.2,0.1,0,0,0,0
						c0.2-0.1,0.5-0.2,0.7-0.2c-0.2,0.1,0,0,0,0c0.1,0,0.2,0,0.3,0c0.1,0,0.3,0,0.4,0c0,0,0.1,0,0.1,0c0,0,0.1,0,0.1,0
						c-0.1,0-0.1,0,0,0c0.1,0,0.3,0,0.4,0.1c0.2,0,0.4,0.1,0.6,0.1c0,0,0.2,0.1,0,0c0.1,0,0.2,0.1,0.3,0.1c0.4,0.2,0.6,0.4,1,0.6
						c0.4,0.2,1,0,1.1-0.4c0.2-0.5,0-0.9-0.4-1.1c0,0-0.1,0-0.1-0.1c-0.1-0.1,0.1,0.1,0,0c-0.1-0.1-0.2-0.1-0.3-0.2
						c-0.2-0.1-0.4-0.3-0.6-0.4c-0.4-0.2-0.8-0.3-1.3-0.4c-0.6-0.1-1.3-0.1-1.9,0c-1.3,0.2-2.6,0.9-3.1,2.2
						c-0.5,1.4-0.1,2.9,1.1,3.8c1.3,0.9,3,0.9,4.4,0.1c1.5-0.8,2.5-2.7,2.3-4.4c-0.1-0.4-0.4-0.8-0.9-0.8
						C111.4,153.9,111,154.3,111.1,154.8z"/>
				</g>
			</g>
			<g>
				<path class="st1" d="M109.7,152.8c-0.1,0-0.3-0.1-0.4-0.1c0,0-0.1,0-0.1-0.1c0,0,0,0,0.1,0c0,0,0.2,0.3,0.1,0.3c0,0,0-0.1,0-0.1
					c0,0,0,0,0,0c0,0.1,0,0.1,0,0c0,0,0-0.1,0-0.1c0-0.1,0,0.1,0,0.1c0,0,0,0,0-0.1c0-0.1,0-0.1,0,0c0,0.1,0,0.1,0,0
					c0,0,0,0,0.1-0.1c0,0-0.2,0.1-0.2,0.1c0.1-0.1-0.1,0,0,0c0.1,0-0.1,0,0,0c0.1,0,0.1,0,0.2,0c0.1,0,0.1,0,0,0
					c0.1,0,0.2,0.1,0.3,0.2c0.1,0,0.1,0,0,0c0.1,0,0.1,0.1,0.2,0.1c0.1,0.1,0.2,0.2,0.3,0.2c0,0,0.1,0.1,0.1,0.1c-0.1-0.1,0,0,0,0
					c0.1,0.1,0.1,0.2,0.2,0.3c0.3,0.4,0.6,0.9,0.8,1.3c0.5-0.3,0.9-0.6,1.4-0.9c-0.3-0.6-1-1.1-1.6-1.3c-0.3-0.1-0.6-0.2-0.9-0.2
					c-0.1,0-0.3-0.1-0.4-0.1c-0.3,0-0.5,0-0.7,0.1c-0.4,0.1-0.7,0.7-0.5,1.1c0.2,0.4,0.6,0.6,1.1,0.5c0.2-0.1-0.1,0-0.1,0
					c0,0,0.1,0,0.2,0c0.1,0,0.2,0,0.4,0.1c0.2,0.1,0.5,0.1,0.7,0.2c-0.1,0,0,0,0,0c0,0,0.1,0,0.1,0.1c0.1,0,0.1,0.1,0,0
					c0,0,0.1,0.1,0.1,0.1c0,0,0.1,0.1,0.1,0.1c0.2,0.1,0-0.1,0,0c0.1,0.1,0.1,0.2,0.2,0.3c0.2,0.4,0.8,0.5,1.2,0.2
					c0.4-0.3,0.4-0.7,0.2-1.2c-0.3-0.6-0.7-1.2-1.2-1.7c-0.5-0.6-1.2-1.1-2-1.3c-0.4-0.1-0.8-0.1-1.2,0.2c-0.3,0.2-0.5,0.6-0.6,0.9
					c-0.1,0.4-0.1,0.8,0.1,1.2c0.3,0.4,0.6,0.6,1.1,0.7c0.4,0.1,0.9,0.1,1.1-0.4C110.2,153.6,110.1,153,109.7,152.8z"/>
			</g>
		</g>
		<g>
			<path class="st1" d="M11.4,139.5c0.4,1.4,0.9,2.7,1.5,3.9l0-0.1c0.9,1.7,1.8,3.4,3.2,4.8l-0.1,0c2.2,2.5,5.1,4.3,8.2,5.2
				c0.4,0.1,0.8,0.2,1.2,0.4c0.2,0.1,0.4,0.1,0.7,0.2c0.1,0,0.2,0,0.3,0.1c0.1,0,0,0,0,0c0.1,0,0.2,0,0.2,0c0.5,0.1,0.9,0.5,0.9,1
				c-0.1,0.5-0.5,1-1,0.9c-1.6-0.3-3.2-0.8-4.7-1.4c-6.1-2.3-10.1-8.2-11.8-14.3c-0.1-0.5,0-1.2,0.6-1.3
				C11,138.9,11.3,139.1,11.4,139.5L11.4,139.5z"/>
		</g>
		<g>
			<g>
				<path class="st1" d="M27.5,154.7c0,0.2,0,0.5,0,0.7c0,0.2,0.1,0.5,0.1,0.7c0.5,1.2,1.4,2.3,2.9,2.6c0.2,0,0.4,0,0.7,0
					c1.4,0.1,2.6-1,2.7-2.3c0.1-2.1-2.3-3.1-4.2-2.6c-0.3,0.1-0.6,0.1-0.9,0.3c-0.3,0.1-0.5,0.3-0.8,0.4
					C27.8,154.5,27.7,154.6,27.5,154.7z"/>
				<g>
					<path class="st1" d="M28.3,154.8c0,0.2,0,0.4,0,0.5c0-0.2,0,0.1,0,0.1c0,0.1,0,0.2,0,0.3c0,0,0.1,0.3,0,0.1
						c0,0.1,0.1,0.1,0.1,0.2c0.1,0.1,0.1,0.2,0.2,0.4c0,0.1,0.1,0.1,0.1,0.2c0,0,0.1,0.2,0,0c0.1,0.1,0.2,0.2,0.2,0.3
						c0.1,0.1,0.1,0.2,0.2,0.3c0,0,0.1,0.1,0.1,0.1c-0.2-0.1,0.1,0.1,0.1,0.1c0.1,0.1,0.2,0.2,0.3,0.2c0,0,0.1,0,0.1,0.1
						c-0.2-0.1,0,0,0.1,0c0.1,0.1,0.3,0.1,0.4,0.1c0,0,0.3,0,0.1,0c0.1,0,0.2,0,0.3,0c0.1,0,0.3,0,0.4,0c0.1,0,0.1,0,0.2,0
						c-0.2,0,0,0,0,0c0.1,0,0.3-0.1,0.4-0.1c-0.2,0.1,0,0,0,0c0.1,0,0.1-0.1,0.2-0.1c0.1,0,0.1-0.1,0.2-0.1c0.2-0.1-0.1,0.1,0,0
						c0.1-0.1,0.2-0.2,0.3-0.3c0.2-0.1-0.1,0.1,0,0c0,0,0.1-0.1,0.1-0.1c0,0,0.1-0.1,0.1-0.1c0,0,0-0.1,0.1-0.1c0,0.1-0.1,0.1,0,0
						c0-0.1,0.1-0.2,0.1-0.4c0.1-0.2,0,0.2,0,0c0-0.1,0-0.1,0-0.2c0-0.1,0-0.1,0-0.2c0-0.2,0,0.2,0,0c0-0.1,0-0.3-0.1-0.4
						c0,0,0,0.1,0,0.1c0,0,0-0.1,0-0.1c0-0.1,0-0.1-0.1-0.2c0,0,0-0.1-0.1-0.1c-0.1-0.2,0.1,0.1,0,0c-0.1-0.1-0.1-0.2-0.2-0.3
						c0,0-0.1-0.2,0,0c0-0.1-0.1-0.1-0.2-0.1c-0.1-0.1-0.2-0.1-0.2-0.2c-0.1,0-0.1-0.1-0.2-0.1c0.2,0.1,0,0,0,0
						c-0.2-0.1-0.5-0.2-0.7-0.2c0.2,0.1,0,0,0,0c-0.1,0-0.2,0-0.3,0c-0.1,0-0.3,0-0.4,0c0,0-0.1,0-0.1,0c0,0-0.1,0-0.1,0
						c0.1,0,0.1,0,0,0c-0.1,0-0.3,0-0.4,0.1c-0.2,0-0.4,0.1-0.6,0.1c0,0-0.2,0.1,0,0c-0.1,0-0.2,0.1-0.3,0.1c-0.4,0.2-0.6,0.4-1,0.6
						c-0.4,0.2-1,0-1.1-0.4c-0.2-0.5,0-0.9,0.4-1.1c0,0,0.1,0,0.1-0.1c0.1-0.1-0.1,0.1,0,0c0.1-0.1,0.2-0.1,0.3-0.2
						c0.2-0.1,0.4-0.3,0.6-0.4c0.4-0.2,0.8-0.3,1.3-0.4c0.6-0.1,1.3-0.1,1.9,0c1.3,0.2,2.6,0.9,3.1,2.2c0.5,1.4,0.1,2.9-1.1,3.8
						c-1.3,0.9-3,0.9-4.4,0.1c-1.5-0.8-2.5-2.7-2.3-4.4c0.1-0.4,0.4-0.8,0.9-0.8C28,153.9,28.4,154.3,28.3,154.8z"/>
				</g>
			</g>
			<g>
				<path class="st1" d="M29.7,152.8c0.1,0,0.3-0.1,0.4-0.1c0,0,0.1,0,0.1-0.1c0,0,0,0-0.1,0c0,0-0.2,0.3-0.1,0.3c0,0,0-0.1,0-0.1
					c0,0,0,0,0,0c0,0.1,0,0.1,0,0c0,0,0-0.1,0-0.1c0-0.1,0,0.1,0,0.1c0,0,0,0,0-0.1c0-0.1,0-0.1,0,0c0,0.1,0,0.1,0,0
					c0,0,0,0-0.1-0.1c0,0,0.2,0.1,0.2,0.1c-0.1-0.1,0.1,0,0,0c-0.1,0,0.1,0,0,0c-0.1,0-0.1,0-0.2,0c-0.1,0-0.1,0,0,0
					c-0.1,0-0.2,0.1-0.3,0.2c-0.1,0-0.1,0,0,0c-0.1,0-0.1,0.1-0.2,0.1c-0.1,0.1-0.2,0.2-0.3,0.2c0,0-0.1,0.1-0.1,0.1
					c0.1-0.1,0,0,0,0c-0.1,0.1-0.1,0.2-0.2,0.3c-0.3,0.4-0.6,0.9-0.8,1.3c-0.5-0.3-0.9-0.6-1.4-0.9c0.3-0.6,1-1.1,1.6-1.3
					c0.3-0.1,0.6-0.2,0.9-0.2c0.1,0,0.3-0.1,0.4-0.1c0.3,0,0.5,0,0.7,0.1c0.4,0.1,0.7,0.7,0.5,1.1c-0.2,0.4-0.6,0.6-1.1,0.5
					c-0.2-0.1,0.1,0,0.1,0c0,0-0.1,0-0.2,0c-0.1,0-0.2,0-0.4,0.1c-0.2,0.1-0.5,0.1-0.7,0.2c0.1,0,0,0,0,0c0,0-0.1,0-0.1,0.1
					c-0.1,0-0.1,0.1,0,0c0,0-0.1,0.1-0.1,0.1c0,0-0.1,0.1-0.1,0.1c-0.2,0.1,0-0.1,0,0c-0.1,0.1-0.1,0.2-0.2,0.3
					c-0.2,0.4-0.8,0.5-1.2,0.2c-0.4-0.3-0.4-0.7-0.2-1.2c0.3-0.6,0.7-1.2,1.2-1.7c0.5-0.6,1.2-1.1,2-1.3c0.4-0.1,0.8-0.1,1.2,0.2
					c0.3,0.2,0.5,0.6,0.6,0.9c0.1,0.4,0.1,0.8-0.1,1.2c-0.3,0.4-0.6,0.6-1.1,0.7c-0.4,0.1-0.9,0.1-1.1-0.4
					C29.2,153.6,29.3,153,29.7,152.8z"/>
			</g>
		</g>
	</g>
</g>
<g>
	<path class="st13" d="M185.4,62.3l10,15.2V62.2c0-1,0.2-1.7,0.6-2.2s1-0.7,1.7-0.7c0.8,0,1.3,0.2,1.8,0.7s0.7,1.2,0.7,2.2v20.3
		c0,2.3-0.9,3.4-2.8,3.4c-0.5,0-0.9-0.1-1.3-0.2s-0.7-0.3-1.1-0.6s-0.6-0.6-0.9-1s-0.6-0.8-0.8-1.2l-9.8-15v15.1
		c0,1-0.2,1.7-0.7,2.2s-1,0.8-1.8,0.8c-0.7,0-1.3-0.3-1.8-0.8s-0.7-1.3-0.7-2.2V63c0-0.8,0.1-1.5,0.3-2c0.2-0.5,0.6-1,1.1-1.3
		s1.1-0.5,1.7-0.5c0.5,0,0.9,0.1,1.2,0.2s0.6,0.4,0.9,0.6s0.5,0.6,0.8,1S185.1,61.9,185.4,62.3z"/>
	<path class="st13" d="M223.6,76.1c0,1.4-0.2,2.7-0.7,4s-1.1,2.2-1.9,3.1s-1.9,1.5-3,2s-2.5,0.7-4,0.7c-1.5,0-2.8-0.2-3.9-0.7
		s-2.2-1.1-3-2s-1.5-1.9-1.9-3.1s-0.7-2.5-0.7-3.9c0-1.5,0.2-2.8,0.7-4s1.1-2.2,1.9-3.1s1.8-1.5,3-2s2.5-0.7,3.9-0.7
		c1.5,0,2.8,0.2,4,0.7s2.2,1.1,3,2s1.5,1.9,1.9,3.1S223.6,74.6,223.6,76.1z M218.8,76.1c0-2-0.4-3.5-1.3-4.6s-2-1.6-3.5-1.6
		c-0.9,0-1.8,0.2-2.5,0.7s-1.3,1.2-1.7,2.2s-0.6,2.1-0.6,3.3c0,1.3,0.2,2.3,0.6,3.3s0.9,1.7,1.6,2.2s1.5,0.7,2.5,0.7
		c1.5,0,2.6-0.5,3.5-1.6S218.8,78,218.8,76.1z"/>
	<path class="st13" d="M236.7,74.7V62.3c0-1.1,0.2-1.8,0.7-2.4s1.1-0.8,1.9-0.8c0.8,0,1.5,0.3,1.9,0.8s0.7,1.3,0.7,2.4V75
		c0,1.4,0.2,2.6,0.5,3.6s0.9,1.7,1.7,2.3s2,0.8,3.4,0.8c2,0,3.5-0.5,4.3-1.6s1.3-2.7,1.3-4.9V62.3c0-1.1,0.2-1.9,0.7-2.4
		s1.1-0.8,1.9-0.8c0.8,0,1.4,0.3,1.9,0.8s0.7,1.3,0.7,2.4v12.4c0,2-0.2,3.7-0.6,5s-1.1,2.5-2.2,3.6c-0.9,0.9-2,1.5-3.3,1.9
		s-2.7,0.6-4.4,0.6c-2,0-3.7-0.2-5.1-0.6s-2.6-1.1-3.5-2s-1.6-2-2-3.4S236.7,76.7,236.7,74.7z"/>
	<path class="st13" d="M268.2,69v0.6c0.9-1.1,1.8-1.9,2.8-2.5s2.1-0.8,3.3-0.8c1.5,0,2.8,0.4,4.1,1.1s2.2,1.9,2.9,3.3
		s1.1,3.2,1.1,5.2c0,1.5-0.2,2.8-0.6,4.1s-1,2.3-1.7,3.1s-1.6,1.5-2.6,1.9s-2.1,0.7-3.2,0.7c-1.4,0-2.5-0.3-3.5-0.8
		s-1.8-1.4-2.7-2.4v7.2c0,2.1-0.8,3.2-2.3,3.2c-0.9,0-1.5-0.3-1.8-0.8s-0.4-1.3-0.4-2.4V69c0-0.9,0.2-1.6,0.6-2s0.9-0.7,1.6-0.7
		c0.7,0,1.2,0.2,1.7,0.7S268.2,68.1,268.2,69z M277.6,76c0-1.3-0.2-2.4-0.6-3.3s-0.9-1.6-1.6-2.1s-1.4-0.7-2.3-0.7
		c-1.3,0-2.4,0.5-3.3,1.6s-1.4,2.6-1.4,4.6c0,1.9,0.5,3.4,1.4,4.5s2,1.6,3.4,1.6c0.8,0,1.5-0.2,2.2-0.7s1.2-1.2,1.6-2.1
		S277.6,77.3,277.6,76z"/>
	<path class="st13" d="M303.4,79.9c0,0.6-0.2,1.2-0.5,1.9s-0.9,1.3-1.6,1.9s-1.7,1.1-2.8,1.5s-2.4,0.6-3.8,0.6c-3,0-5.3-0.9-6.9-2.6
		s-2.5-4-2.5-7c0-2,0.4-3.7,1.1-5.2s1.9-2.7,3.3-3.5s3.2-1.2,5.2-1.2c1.2,0,2.4,0.2,3.4,0.5s1.9,0.8,2.6,1.4s1.3,1.2,1.7,1.8
		s0.6,1.3,0.6,1.8c0,0.6-0.2,1.1-0.6,1.5s-0.9,0.6-1.6,0.6c-0.4,0-0.7-0.1-1-0.3s-0.6-0.5-0.9-1c-0.6-0.9-1.2-1.6-1.8-2
		s-1.5-0.7-2.4-0.7c-1.4,0-2.6,0.6-3.4,1.7s-1.3,2.6-1.3,4.5c0,0.9,0.1,1.7,0.3,2.5s0.5,1.4,1,1.9s0.9,0.9,1.5,1.2s1.3,0.4,2,0.4
		c1,0,1.8-0.2,2.5-0.7s1.3-1.1,1.8-2c0.3-0.5,0.6-1,0.9-1.3s0.8-0.5,1.2-0.5c0.6,0,1.1,0.2,1.5,0.7S303.4,79.4,303.4,79.9z"/>
	<path class="st13" d="M325.6,76.1c0,1.4-0.2,2.7-0.7,4s-1.1,2.2-1.9,3.1s-1.9,1.5-3,2s-2.5,0.7-4,0.7c-1.5,0-2.8-0.2-3.9-0.7
		s-2.2-1.1-3-2s-1.5-1.9-1.9-3.1s-0.7-2.5-0.7-3.9c0-1.5,0.2-2.8,0.7-4s1.1-2.2,1.9-3.1s1.8-1.5,3-2s2.5-0.7,3.9-0.7
		c1.5,0,2.8,0.2,4,0.7s2.2,1.1,3,2s1.5,1.9,1.9,3.1S325.6,74.6,325.6,76.1z M320.8,76.1c0-2-0.4-3.5-1.3-4.6s-2-1.6-3.5-1.6
		c-0.9,0-1.8,0.2-2.5,0.7s-1.3,1.2-1.7,2.2s-0.6,2.1-0.6,3.3c0,1.3,0.2,2.3,0.6,3.3s0.9,1.7,1.6,2.2s1.5,0.7,2.5,0.7
		c1.5,0,2.6-0.5,3.5-1.6S320.8,78,320.8,76.1z"/>
	<path class="st13" d="M345.3,76.4v6.4c0,1-0.2,1.8-0.7,2.3s-1.1,0.8-1.8,0.8c-0.7,0-1.3-0.3-1.8-0.8s-0.7-1.3-0.7-2.3v-7.6
		c0-1.2,0-2.1-0.1-2.8s-0.3-1.2-0.7-1.6s-0.9-0.6-1.7-0.6c-1.6,0-2.6,0.5-3.1,1.6s-0.7,2.6-0.7,4.6v6.5c0,1-0.2,1.7-0.7,2.3
		s-1,0.8-1.8,0.8c-0.7,0-1.3-0.3-1.8-0.8s-0.7-1.3-0.7-2.3V69.1c0-0.9,0.2-1.6,0.6-2.1s1-0.7,1.6-0.7c0.7,0,1.2,0.2,1.6,0.7
		s0.7,1,0.7,1.8v0.5c0.8-1,1.7-1.7,2.7-2.2s2-0.7,3.2-0.7c1.2,0,2.2,0.2,3.1,0.7s1.6,1.2,2.1,2.2c0.8-1,1.7-1.7,2.6-2.2
		s2-0.7,3.1-0.7c1.3,0,2.4,0.3,3.4,0.8s1.7,1.3,2.1,2.2c0.4,0.9,0.6,2.2,0.6,4.1v9.4c0,1-0.2,1.8-0.7,2.3s-1.1,0.8-1.8,0.8
		c-0.7,0-1.3-0.3-1.8-0.8s-0.7-1.3-0.7-2.3v-8.1c0-1,0-1.9-0.1-2.5s-0.3-1.1-0.7-1.6s-1-0.6-1.8-0.6c-0.6,0-1.2,0.2-1.8,0.6
		s-1,0.9-1.3,1.5C345.5,72.9,345.3,74.4,345.3,76.4z"/>
	<path class="st13" d="M363.6,64.1c-0.7,0-1.2-0.2-1.7-0.6s-0.7-1-0.7-1.7c0-0.7,0.2-1.2,0.7-1.7s1.1-0.7,1.7-0.7
		c0.6,0,1.2,0.2,1.7,0.6s0.7,1,0.7,1.7c0,0.7-0.2,1.3-0.7,1.7S364.3,64.1,363.6,64.1z M366,69v13.9c0,1-0.2,1.7-0.7,2.2
		s-1,0.7-1.7,0.7s-1.3-0.3-1.7-0.8s-0.7-1.2-0.7-2.2V69.2c0-0.9,0.2-1.7,0.7-2.1s1-0.7,1.7-0.7s1.3,0.2,1.7,0.7S366,68.2,366,69z"/>
	<path class="st13" d="M375.3,69v0.6c0.8-1.1,1.8-1.9,2.8-2.5s2.2-0.8,3.5-0.8c1.3,0,2.4,0.3,3.4,0.8s1.7,1.3,2.2,2.3
		c0.3,0.6,0.5,1.2,0.6,1.9s0.1,1.5,0.1,2.6v8.9c0,1-0.2,1.7-0.7,2.2s-1,0.7-1.7,0.7c-0.7,0-1.3-0.3-1.7-0.8s-0.7-1.2-0.7-2.2v-8
		c0-1.6-0.2-2.8-0.7-3.6s-1.3-1.3-2.6-1.3c-0.9,0-1.6,0.3-2.3,0.8s-1.2,1.2-1.5,2.1c-0.2,0.7-0.4,2.1-0.4,4v6c0,1-0.2,1.7-0.7,2.2
		s-1,0.7-1.7,0.7c-0.7,0-1.3-0.3-1.7-0.8s-0.7-1.2-0.7-2.2V69c0-0.9,0.2-1.6,0.6-2s0.9-0.7,1.6-0.7c0.4,0,0.8,0.1,1.1,0.3
		s0.6,0.5,0.8,0.9S375.3,68.4,375.3,69z"/>
	<path class="st13" d="M410.4,69.8v13.9c0,1.6-0.2,3-0.5,4.1s-0.9,2.1-1.6,2.8s-1.7,1.3-2.9,1.7s-2.7,0.5-4.5,0.5
		c-1.7,0-3.1-0.2-4.4-0.7s-2.3-1.1-3-1.8s-1.1-1.5-1.1-2.3c0-0.6,0.2-1.1,0.6-1.4s0.9-0.6,1.4-0.6c0.7,0,1.3,0.3,1.8,0.9
		c0.3,0.3,0.5,0.6,0.8,1s0.6,0.6,0.9,0.8s0.7,0.4,1.2,0.5s1,0.2,1.6,0.2c1.2,0,2.2-0.2,2.9-0.5s1.2-0.8,1.4-1.5s0.4-1.3,0.5-2
		s0.1-1.8,0.1-3.4c-0.7,1-1.6,1.8-2.6,2.4s-2.1,0.8-3.5,0.8c-1.6,0-3-0.4-4.2-1.2s-2.1-2-2.8-3.4s-1-3.2-1-5.1
		c0-1.4,0.2-2.7,0.6-3.9s1-2.1,1.7-2.9s1.6-1.4,2.5-1.8s2-0.6,3.1-0.6c1.4,0,2.5,0.3,3.5,0.8s1.9,1.3,2.8,2.5v-0.7
		c0-0.8,0.2-1.5,0.6-1.9s0.9-0.7,1.6-0.7c0.9,0,1.5,0.3,1.8,0.9S410.4,68.7,410.4,69.8z M396.5,75.9c0,1.9,0.4,3.4,1.3,4.4
		s1.9,1.5,3.3,1.5c0.8,0,1.5-0.2,2.3-0.6s1.3-1.1,1.7-1.9s0.7-1.9,0.7-3.1c0-2-0.4-3.5-1.3-4.6s-2-1.6-3.4-1.6
		c-1.4,0-2.5,0.5-3.3,1.6S396.5,74,396.5,75.9z"/>
	<path class="st13" d="M195.6,106.8h-11.8v6.3h10.8c0.8,0,1.4,0.2,1.8,0.5s0.6,0.8,0.6,1.4s-0.2,1.1-0.6,1.4s-1,0.6-1.8,0.6h-10.8
		v7.3H196c0.8,0,1.4,0.2,1.9,0.6s0.6,0.9,0.6,1.5c0,0.6-0.2,1.1-0.6,1.5c-0.4,0.4-1,0.6-1.9,0.6h-14.2c-1.1,0-2-0.3-2.5-0.8
		c-0.5-0.5-0.7-1.3-0.7-2.4V106c0-0.8,0.1-1.4,0.3-1.8s0.6-0.8,1-1s1.1-0.3,1.8-0.3h13.8c0.8,0,1.5,0.2,1.9,0.6s0.6,0.9,0.6,1.5
		c0,0.6-0.2,1.1-0.6,1.5S196.4,106.8,195.6,106.8z"/>
	<path class="st13" d="M205.7,112.5l3.9,10.9l4.2-11.4c0.3-0.9,0.7-1.6,1-1.9s0.8-0.6,1.4-0.6c0.6,0,1.1,0.2,1.6,0.6
		s0.6,0.9,0.6,1.4c0,0.2,0,0.5-0.1,0.7s-0.2,0.5-0.3,0.8s-0.2,0.5-0.3,0.8l-4.6,11.4c-0.1,0.3-0.3,0.7-0.5,1.2s-0.4,0.9-0.7,1.3
		c-0.3,0.4-0.6,0.6-0.9,0.8s-0.8,0.3-1.3,0.3c-0.7,0-1.2-0.2-1.6-0.5s-0.7-0.7-0.9-1s-0.5-1.1-1-2.2l-4.6-11.3
		c-0.1-0.3-0.2-0.6-0.3-0.8s-0.2-0.6-0.3-0.9s-0.1-0.5-0.1-0.8c0-0.3,0.1-0.7,0.3-1s0.5-0.6,0.8-0.8s0.7-0.3,1.1-0.3
		c0.8,0,1.3,0.2,1.6,0.7S205.3,111.4,205.7,112.5z"/>
	<path class="st13" d="M234.7,120.5h-9.4c0,1.1,0.2,2.1,0.7,2.9s1,1.5,1.7,1.9s1.5,0.6,2.3,0.6c0.6,0,1.1-0.1,1.6-0.2
		s0.9-0.3,1.4-0.6s0.9-0.6,1.2-0.9s0.9-0.8,1.5-1.3c0.2-0.2,0.6-0.3,1.1-0.3c0.5,0,0.9,0.1,1.2,0.4s0.5,0.7,0.5,1.1
		c0,0.4-0.2,0.9-0.5,1.5s-0.9,1.1-1.5,1.7s-1.5,1-2.6,1.3s-2.2,0.5-3.6,0.5c-3.1,0-5.5-0.9-7.2-2.6c-1.7-1.8-2.6-4.1-2.6-7.2
		c0-1.4,0.2-2.7,0.6-3.9s1-2.3,1.8-3.1s1.8-1.5,3-2s2.5-0.7,3.9-0.7c1.9,0,3.5,0.4,4.8,1.2s2.3,1.8,3,3.1s1,2.5,1,3.8
		c0,1.2-0.3,2-1,2.3S236,120.5,234.7,120.5z M225.3,117.7h8.7c-0.1-1.6-0.6-2.9-1.3-3.7s-1.8-1.2-3-1.2c-1.2,0-2.2,0.4-2.9,1.2
		S225.5,116.1,225.3,117.7z"/>
	<path class="st13" d="M247.1,112.2v0.6c0.8-1.1,1.8-1.9,2.8-2.5s2.2-0.8,3.5-0.8c1.3,0,2.4,0.3,3.4,0.8c1,0.6,1.7,1.3,2.2,2.3
		c0.3,0.6,0.5,1.2,0.6,1.9s0.1,1.5,0.1,2.6v8.9c0,1-0.2,1.7-0.7,2.2c-0.4,0.5-1,0.7-1.7,0.7c-0.7,0-1.3-0.3-1.7-0.8
		c-0.4-0.5-0.7-1.2-0.7-2.2v-8c0-1.6-0.2-2.8-0.7-3.6s-1.3-1.3-2.6-1.3c-0.9,0-1.6,0.3-2.3,0.8s-1.2,1.2-1.5,2.1
		c-0.2,0.7-0.4,2.1-0.4,4v6c0,1-0.2,1.7-0.7,2.2c-0.5,0.5-1,0.7-1.7,0.7c-0.7,0-1.3-0.3-1.7-0.8c-0.4-0.5-0.7-1.2-0.7-2.2v-13.9
		c0-0.9,0.2-1.6,0.6-2s0.9-0.7,1.6-0.7c0.4,0,0.8,0.1,1.1,0.3s0.6,0.5,0.8,0.9S247.1,111.6,247.1,112.2z"/>
	<path class="st13" d="M264.7,109.9h0.5v-2.9c0-0.8,0-1.4,0.1-1.8s0.2-0.8,0.3-1.1c0.2-0.3,0.5-0.6,0.8-0.8s0.7-0.3,1.2-0.3
		c0.6,0,1.2,0.2,1.7,0.7c0.3,0.3,0.5,0.7,0.6,1.1s0.1,1.1,0.1,1.9v3.3h1.8c0.7,0,1.2,0.2,1.6,0.5s0.5,0.7,0.5,1.2
		c0,0.6-0.3,1.1-0.8,1.4s-1.2,0.4-2.2,0.4H270v8.8c0,0.8,0,1.3,0.1,1.7s0.2,0.7,0.4,1s0.6,0.4,1.1,0.4c0.3,0,0.7,0,1.1-0.1
		s0.9-0.1,1.1-0.1c0.4,0,0.7,0.2,1,0.5s0.5,0.7,0.5,1.2c0,0.8-0.4,1.4-1.3,1.8s-2.1,0.6-3.6,0.6c-1.5,0-2.6-0.3-3.4-0.8
		c-0.8-0.5-1.3-1.2-1.5-2.1s-0.4-2.1-0.4-3.6v-9.2h-0.6c-0.7,0-1.2-0.2-1.6-0.5s-0.5-0.7-0.5-1.2s0.2-0.9,0.6-1.2
		S264,109.9,264.7,109.9z"/>
	<path class="st13" d="M292.7,122.8c0,1.3-0.3,2.5-1,3.4s-1.6,1.7-2.9,2.1c-1.3,0.5-2.8,0.7-4.6,0.7c-1.7,0-3.2-0.3-4.4-0.8
		c-1.2-0.5-2.1-1.2-2.7-2s-0.9-1.6-0.9-2.4c0-0.5,0.2-1,0.6-1.4s0.8-0.6,1.4-0.6c0.5,0,0.9,0.1,1.2,0.4s0.5,0.6,0.8,1
		c0.5,0.9,1.1,1.5,1.8,1.9s1.6,0.6,2.8,0.6c1,0,1.7-0.2,2.4-0.6s0.9-0.9,0.9-1.5c0-0.8-0.3-1.5-1-1.8s-1.7-0.8-3.2-1.1
		c-1.7-0.4-3-0.8-4-1.3s-1.9-1-2.5-1.8s-0.9-1.6-0.9-2.7c0-1,0.3-1.9,0.9-2.7s1.4-1.5,2.5-2s2.5-0.8,4.1-0.8c1.2,0,2.4,0.1,3.3,0.4
		s1.8,0.6,2.5,1s1.2,0.9,1.5,1.4s0.5,1,0.5,1.5c0,0.6-0.2,1-0.6,1.4s-0.9,0.5-1.6,0.5c-0.5,0-0.9-0.1-1.3-0.4s-0.7-0.7-1.2-1.3
		c-0.4-0.5-0.8-0.8-1.3-1.1s-1.2-0.4-2-0.4c-0.9,0-1.6,0.2-2.2,0.6s-0.9,0.8-0.9,1.4c0,0.5,0.2,0.9,0.6,1.2s1,0.6,1.7,0.8
		s1.7,0.5,3,0.8c1.5,0.4,2.7,0.8,3.6,1.3s1.7,1.1,2.1,1.8S292.7,121.9,292.7,122.8z"/>
</g>
<g>
</g>
<g>
</g>
<g>
</g>
<g>
</g>
<g>
</g>
<g>
</g>
</svg>
