<?xml version="1.0" encoding="utf-8"?>
<!-- Generator: Adobe Illustrator 23.0.1, SVG Export Plug-In . SVG Version: 6.00 Build 0)  -->
<svg version="1.1" id="Layer_1" xmlns="http://www.w3.org/2000/svg" xmlns:xlink="http://www.w3.org/1999/xlink" x="0px" y="0px"
	 viewBox="0 0 255.4 180" style="enable-background:new 0 0 255.4 180;" xml:space="preserve">
<style type="text/css">
	.st0{fill:#FFEFC1;}
	.st1{fill:#2E1010;}
	.st2{opacity:5.000000e-02;}
	.st3{fill:#131313;}
	.st4{fill:#72BF44;}
	.st5{fill:#569F44;}
	.st6{fill:#65BC46;}
	.st7{fill:#55B948;}
	.st8{fill:#64BC46;}
	.st9{fill:#FFFFFF;}
	.st10{fill:#F7A3A5;}
	.st11{opacity:0.5;}
	.st12{fill:none;stroke:#FFFFFF;stroke-miterlimit:10;}
	.st13{fill:none;}
	.st14{fill:#F15E5C;stroke:#010101;stroke-width:0.25;stroke-miterlimit:10;}
</style>
<path class="st0" d="M193.9,61.5c-6.3-16.8-19.3-30.5-35.4-38.9C139,12.4,117.5,9.3,96.1,9.3c-2.8,0-5.6,0.1-8.4,0.3
	c-11.2,0.7-22.4,2.9-33,6.7c-14.8,5.2-29,13.7-38.3,26.5C7.2,55.5,3.6,71.8,6.6,87.3c1.5,7.6,4.4,14.9,8.7,21.3
	c2.2,3.3,4.7,6.4,7.5,9.2c3.2,3.3,7.1,5.9,11.2,8.1c16.5,8.8,35.7,11.6,54.3,9.6c6.8-0.7,13.5-2.5,20.3-3.3c8.5-1,17.2,2.2,25.8,4.8
	c1.2,0.4,2.5,0.7,3.7,1c1.9,0.4,3.9,0.9,5.9,1.2c2,0.4,4,0.7,6.1,0.8c4.1,0.3,8.3-0.7,11.7-3c-3.6-0.7-7-3.1-8.3-6.6
	c-0.5-1.5-0.5-3.1,0.6-4.6c2.2-3.3,6-4.5,9.2-6.3c0.7-0.4,1.4-0.7,2.1-1.1c8.9-4,16.6-9.9,22.8-17.8c8-10,10.1-23,6.9-34.8
	C194.8,64.3,194.3,62.9,193.9,61.5z"/>
<g>
	<g>
		<path class="st1" d="M160,130.1c0.2,0.1,0.4,0.2,0.6,0.2c0.5,0.1,1,0,1.5,0.1c0.2,0.2,0.3,0.3,0.5,0.5c2,2,4.6,3.4,7.3,4
			c2,0.5,5.5,1.1,7-0.9c-1.1-0.4-2,0.2-3.1,0.2c-1.1,0.1-2.5-0.1-3.6-0.3c-2.3-0.5-4.5-1.6-6.3-3.2c-0.2-0.2-0.4-0.3-0.5-0.5
			c-0.1-0.1-0.2-0.2-0.3-0.3c0,0-0.1-0.1-0.1-0.1c0,0,0,0,0,0c0,0,0-0.1-0.1-0.1c0,0,0-0.1-0.1-0.1c0.1-0.1,0.2-0.3,0.2-0.5
			c0.4-0.7,0.3-1.6-0.1-2.2c-0.5-0.7-1.4-1.4-2.4-1.1c-0.1,0-0.3,0.1-0.4,0.2c-0.5,0.3-1,0.8-1.2,1.4c-0.3,0.7,0,1.7,0.5,2.2
			C159.7,129.9,159.9,130,160,130.1z"/>
	</g>
	<g>
		<g>
			<path class="st1" d="M162,126.5c-0.2-1.2-0.6-2.4-0.5-3.7c0-0.3,0.4-0.6,0.7-0.4c0.2,0.1,0.3,0.4,0.3,0.6
				c0.1,1.2,0.2,2.4,0.2,3.6C162.6,126.7,162.4,126.7,162,126.5z"/>
		</g>
		<g>
			<g>
				<path class="st1" d="M162.1,126.4c-0.1-0.7-0.3-1.5-0.4-2.2c-0.1-0.4-0.1-0.7-0.1-1.1c0-0.2,0-0.5,0.1-0.6
					c0.2-0.2,0.4,0,0.5,0.2c0.1,0.3,0.1,0.7,0.1,1c0,0.4,0.1,0.7,0.1,1.1c0,0.4,0,0.8,0,1.1c0,0.1,0,0.4,0,0.5
					c-0.1,0.1-0.4-0.1-0.4-0.2c-0.2-0.1-0.4,0.2-0.2,0.3c0.2,0.1,0.6,0.3,0.8,0.1c0.1-0.1,0.1-0.2,0.1-0.3c0-0.3,0-0.6,0-0.8
					c0-0.6-0.1-1.2-0.1-1.8c0-0.5,0-1-0.3-1.3c-0.2-0.3-0.5-0.4-0.8-0.2c-0.3,0.2-0.4,0.5-0.4,0.8c0,1.2,0.3,2.4,0.5,3.5
					C161.8,126.7,162.2,126.7,162.1,126.4z"/>
			</g>
		</g>
	</g>
	<g>
		<g>
			<g>
				<g>
					<path class="st1" d="M243,143.4c0.7,0.5,1.3,1,1.8,1.6l0,0c0.8,0.8,1.5,1.7,2,2.7l0,0c0.9,1.7,1.4,3.6,1.3,5.5
						c0,0.2,0,0.5,0,0.7c0,0.1,0,0.3,0,0.4c0,0.1,0,0.1,0,0.2c0,0.1,0,0,0,0c0,0,0,0.1,0,0.1c0,0.3,0.1,0.6,0.4,0.7
						c0.3,0.1,0.6-0.1,0.6-0.4c0.1-0.9,0.2-1.9,0.1-2.8c-0.1-3.8-2.5-7.1-5.5-9.2c-0.3-0.2-0.6-0.2-0.8,0.1
						C242.7,143,242.8,143.3,243,143.4L243,143.4z"/>
				</g>
			</g>
		</g>
		<g>
			<g>
				<g>
					<g>
						<path class="st1" d="M248.2,155.1c0.1,0,0.3,0.1,0.4,0.1c0.1,0.1,0.2,0.1,0.3,0.2c0.6,0.5,1,1.2,0.9,2.1
							c0,0.1-0.1,0.3-0.1,0.4c-0.2,0.8-1,1.3-1.8,1c-1.1-0.3-1.2-1.9-0.6-2.8c0.1-0.2,0.2-0.3,0.3-0.5c0.1-0.1,0.2-0.2,0.4-0.3
							C248,155.2,248.1,155.2,248.2,155.1z"/>
					</g>
				</g>
				<g>
					<g>
						<g>
							<path class="st1" d="M248.1,155.6c0.1,0,0.2,0,0.3,0.1c-0.1,0,0.1,0,0.1,0c0,0,0.1,0,0.1,0.1c0,0,0.1,0.1,0.1,0
								c0,0,0.1,0.1,0.1,0.1c0.1,0.1,0.1,0.1,0.2,0.2c0,0,0.1,0.1,0.1,0.1c0,0,0.1,0.1,0,0c0,0.1,0.1,0.1,0.1,0.2
								c0,0.1,0.1,0.1,0.1,0.2c0,0,0,0.1,0,0.1c0-0.1,0,0,0,0.1c0,0.1,0,0.2,0.1,0.2c0,0,0,0.1,0,0.1c0-0.1,0,0,0,0
								c0,0.1,0,0.2,0,0.2c0,0,0,0.1,0,0c0,0.1,0,0.1,0,0.2c0,0.1,0,0.2-0.1,0.2c0,0,0,0.1,0,0.1c0-0.1,0,0,0,0
								c0,0.1-0.1,0.1-0.1,0.2c0.1-0.1,0,0,0,0c0,0-0.1,0.1-0.1,0.1c0,0-0.1,0.1-0.1,0.1c-0.1,0.1,0.1,0,0,0c-0.1,0-0.1,0.1-0.2,0.1
								c-0.1,0.1,0.1,0,0,0c0,0-0.1,0-0.1,0c0,0-0.1,0-0.1,0c0,0,0,0-0.1,0c0.1,0,0.1,0,0,0c-0.1,0-0.1,0-0.2,0c-0.1,0,0.1,0,0,0
								c0,0-0.1,0-0.1,0c0,0-0.1,0-0.1,0c-0.1,0,0.1,0.1,0,0c0,0-0.2-0.1-0.2-0.1c0,0,0,0,0,0c0,0,0,0-0.1,0c0,0,0,0-0.1-0.1
								c0,0,0,0,0,0c-0.1-0.1,0.1,0.1,0,0c0-0.1-0.1-0.1-0.1-0.2c0,0-0.1-0.1,0,0c0,0,0-0.1,0-0.1c0-0.1,0-0.1,0-0.2
								c0,0,0-0.1,0-0.1c0,0.1,0,0,0,0c0-0.1,0-0.3,0-0.4c0,0.1,0,0,0,0c0,0,0-0.1,0-0.1c0-0.1,0-0.2,0.1-0.2c0,0,0,0,0-0.1
								s0,0,0-0.1c0,0.1,0,0.1,0,0c0-0.1,0.1-0.2,0.1-0.2c0.1-0.1,0.1-0.2,0.2-0.3c0,0,0.1-0.1,0,0c0-0.1,0.1-0.1,0.1-0.2
								c0.2-0.2,0.3-0.3,0.5-0.4c0.2-0.2,0.2-0.5,0-0.7c-0.2-0.2-0.5-0.2-0.7,0c0,0,0,0-0.1,0c-0.1,0.1,0,0,0,0c0,0-0.1,0.1-0.1,0.1
								c-0.1,0.1-0.2,0.2-0.3,0.3c-0.2,0.2-0.3,0.4-0.5,0.6c-0.2,0.3-0.3,0.7-0.4,1c-0.1,0.7,0,1.6,0.6,2.1c0.6,0.6,1.6,0.6,2.3,0.1
								c0.7-0.5,1-1.5,0.9-2.4c-0.2-1-1-1.9-1.9-2.1c-0.2,0-0.5,0.1-0.6,0.4C247.7,155.2,247.8,155.5,248.1,155.6z"/>
						</g>
					</g>
				</g>
			</g>
			<g>
				<g>
					<g>
						<path class="st1" d="M246.8,156c0,0.1-0.1,0.1-0.1,0.2c0,0,0,0,0,0c0,0,0,0,0,0c0,0,0.2,0,0.2,0c0,0,0,0,0,0c0,0,0,0,0,0
							c0,0,0,0,0,0c0,0,0,0,0,0c-0.1,0,0,0,0,0c0,0,0,0,0,0c0,0,0,0,0,0c0,0,0,0,0,0c0,0,0,0,0,0c0,0,0,0.1,0,0.1c0-0.1,0,0.1,0,0
							c0,0,0,0,0,0c0,0,0-0.1,0.1-0.1c0,0,0,0,0,0c0-0.1,0.1-0.1,0.1-0.2c0,0,0,0,0,0c0,0,0.1,0,0.1-0.1c0.1,0,0.1-0.1,0.2-0.1
							c0,0,0.1,0,0.1,0c-0.1,0,0,0,0,0c0.1,0,0.1,0,0.2-0.1c0.3-0.1,0.6-0.2,0.9-0.2c-0.1-0.3-0.2-0.6-0.3-0.9
							c-0.4,0.1-0.8,0.3-1,0.6c-0.1,0.2-0.2,0.3-0.3,0.5C246.8,155.8,246.8,155.8,246.8,156c-0.1,0.1-0.1,0.2-0.1,0.4
							c0,0.3,0.2,0.5,0.5,0.5c0.3,0,0.5-0.2,0.5-0.5c0-0.1,0,0.1,0,0.1c0,0,0-0.1,0-0.1c0-0.1,0.1-0.1,0.1-0.2
							c0.1-0.1,0.2-0.2,0.2-0.4c0,0,0,0,0,0c0,0,0,0,0.1-0.1c0,0,0,0,0,0c0,0,0,0,0.1,0c0,0,0,0,0.1,0c0.1-0.1,0,0,0,0
							c0.1,0,0.1,0,0.2,0c0.2,0,0.4-0.4,0.3-0.6c-0.1-0.3-0.3-0.4-0.6-0.3c-0.4,0.1-0.8,0.2-1.1,0.3c-0.4,0.2-0.8,0.4-1,0.9
							c-0.1,0.2-0.2,0.4-0.1,0.7c0.1,0.2,0.2,0.4,0.4,0.5c0.2,0.1,0.4,0.2,0.6,0.2c0.3-0.1,0.4-0.2,0.6-0.5c0.2-0.2,0.2-0.5,0-0.7
							C247.3,155.8,246.9,155.8,246.8,156z"/>
					</g>
				</g>
			</g>
		</g>
	</g>
	<g>
		<g class="st2">
			<path class="st3" d="M195.2,178c-0.2,1.3,1.9,1.5,2.7,1.7c2.9,0.6,5.8,0.1,8.6-0.3c0.3-0.1,0.6-0.1,1-0.2c3-0.5,5.9,0.4,8.9,0.5
				c2.5,0.1,4.9,0,7.4-0.3c0.4-0.1,1.1-0.1,1.3-0.6c0.2-0.5,0-0.9-0.4-1.1c-1.8-0.9-3.7-0.9-5.5-1c-3.7-0.2-7.4,1-11.1,0.7
				c-0.8-0.1-1.6-0.3-2.5-0.4c-0.3-0.1-0.5-0.1-0.8-0.2c-1.6-0.3-3.2-0.3-4.7-0.2c-0.8,0.1-1.6,0.1-2.4,0.2
				c-0.7,0.1-1.5,0.1-2.1,0.5C195.3,177.6,195.2,177.8,195.2,178z"/>
		</g>
		<g>
			<g>
				<g>
					<path class="st1" d="M216.9,162c0,0.4-0.1,0.9-0.1,1.3v0c0,0.1,0,0.1,0,0.2c0,0.5-0.1,1-0.2,1.5c-0.1,1-0.3,2-0.4,3.1
						c-0.3,2-0.7,4-1,6c-0.2,1.1-0.4,2.3-0.6,3.4c-0.1,0.4,0.1,0.8,0.4,0.9c0.3,0.1,0.5-0.1,0.6-0.5c0.7-4,1.5-8.1,2-12.2
						c0.1-0.6,0.1-1.2,0.2-1.8c0.1-0.6,0.1-1.2,0.2-1.8c0-0.4-0.3-0.8-0.5-0.8C217.1,161.3,216.9,161.6,216.9,162L216.9,162z"/>
				</g>
			</g>
			<g>
				<g>
					<path class="st1" d="M215,178c0.1,0.1,0.2,0.1,0.4,0.2c0.1,0.1,0.2,0.1,0.4,0.1c0.5,0.1,1.1,0.2,1.6,0.2c0.1,0,0.3,0,0.4-0.1
						c0.1,0,0.2,0,0.3-0.1c0.1,0,0.2-0.1,0.3-0.1c0.3-0.2,0.3-0.5,0.2-0.8c-0.2-0.3-0.4-0.6-0.7-0.7c-0.1,0-0.2-0.1-0.2-0.1
						c-0.7-0.3-1.6,0-2.2,0.6c0,0.1-0.1,0.1-0.1,0.2c-0.1,0.1-0.2,0.2-0.3,0.4C215,177.9,215,177.9,215,178z"/>
				</g>
				<g>
					<g>
						<path class="st1" d="M214.8,178.4c0.3,0.2,0.7,0.3,1,0.4c0.4,0.1,0.7,0.1,1.1,0.2c0.4,0,0.8,0,1.1-0.1
							c0.3-0.1,0.8-0.3,0.9-0.6c0.3-0.7-0.2-1.5-0.7-1.8c-0.6-0.4-1.3-0.4-2-0.2c-0.4,0.1-0.7,0.3-1,0.6c-0.1,0.1-0.1,0.1-0.2,0.2
							c0,0-0.1,0.1-0.1,0.2c0,0,0,0,0,0.1c0,0,0,0,0,0c-0.1,0.1-0.2,0.3-0.3,0.5C214.5,178,214.5,178.3,214.8,178.4
							c0.2,0.1,0.5,0.1,0.6-0.2c0-0.1,0.1-0.1,0.1-0.2c0,0,0.1-0.1,0,0c0,0,0,0,0-0.1c0.1-0.1,0.1-0.1,0.2-0.2c0,0,0.1-0.1,0,0
							c0,0,0,0,0,0c0,0,0,0,0.1-0.1c0,0,0.1-0.1,0.1-0.1c0,0,0,0,0.1-0.1c0,0,0.1-0.1,0,0c0,0,0.1,0,0,0c0,0,0.1,0,0.1-0.1
							c0.1,0,0.1-0.1,0.2-0.1c0,0,0.1,0,0.1,0c0,0-0.1,0,0,0c0.1,0,0.1,0,0.2-0.1c0.1,0,0.1,0,0.2,0c0,0,0,0,0.1,0c0,0,0,0,0,0
							c0,0,0,0,0.1,0c0.1,0,0.2,0,0.3,0c0,0,0.1,0,0,0c0,0,0,0,0.1,0c0.1,0,0.1,0,0.2,0.1c0,0,0.1,0,0.1,0c-0.1,0,0.1,0,0.1,0
							c0.1,0,0.1,0.1,0.2,0.1c0.1,0,0,0,0,0c0,0,0.1,0,0.1,0.1c0,0,0,0,0.1,0.1c0,0,0.1,0.1,0.1,0.1c0,0,0,0.1,0,0c0,0,0,0,0,0.1
							c0,0,0,0.1,0.1,0.1c0,0.1,0,0,0,0c0,0,0.1,0.1,0,0.2c0,0,0,0,0-0.1c0,0,0,0,0,0.1c0,0,0,0,0,0c0,0,0,0,0,0c0,0,0,0.1,0,0.1
							c0,0,0,0,0,0c0,0,0,0,0,0.1c0-0.1,0,0,0,0c0,0,0,0,0,0c0,0,0,0-0.1,0c0,0,0,0-0.1,0c0,0-0.1,0.1,0,0c-0.1,0-0.1,0.1-0.2,0.1
							c-0.1,0-0.1,0-0.2,0.1c0,0-0.1,0-0.1,0c0,0-0.1,0-0.1,0c-0.2,0-0.3,0-0.5,0c-0.1,0-0.2,0-0.2,0c-0.1,0,0.1,0,0,0
							c0,0-0.1,0-0.1,0c-0.2,0-0.3-0.1-0.5-0.1c-0.2,0-0.3-0.1-0.4-0.1c-0.1-0.1,0,0,0,0c0,0-0.1,0-0.1-0.1c-0.1,0-0.2-0.1-0.2-0.1
							c-0.2-0.1-0.5-0.1-0.6,0.2C214.5,178,214.6,178.2,214.8,178.4z"/>
					</g>
				</g>
			</g>
		</g>
		<g>
			<g>
				<g>
					<path class="st1" d="M202.7,162.1c0,0.3,0,0.5,0.1,0.8c0,0.1,0,0.2,0,0.4c0,0.1,0,0.1,0,0.2c0-0.1,0,0.1,0,0.2
						c0,0.5,0.1,1,0.2,1.5c0.1,1,0.3,2,0.4,3.1c0.3,2,0.7,4,1,6c0.2,1.1,0.4,2.3,0.6,3.4c0.1,0.4-0.1,0.8-0.4,0.9
						c-0.3,0.1-0.5-0.1-0.6-0.5c-0.7-4-1.5-8.1-2-12.2c-0.1-0.6-0.1-1.2-0.2-1.8c-0.1-0.6-0.1-1.2-0.2-1.8c0-0.4,0.2-0.8,0.5-0.7
						C202.5,161.3,202.6,161.6,202.7,162.1L202.7,162.1z"/>
				</g>
			</g>
			<g>
				<g>
					<path class="st1" d="M204.6,178c-0.1,0.1-0.2,0.1-0.4,0.2c-0.1,0.1-0.2,0.1-0.4,0.1c-0.5,0.1-1.1,0.2-1.6,0.2
						c-0.1,0-0.3,0-0.4-0.1c-0.1,0-0.2,0-0.3-0.1c-0.1,0-0.2-0.1-0.3-0.1c-0.3-0.2-0.3-0.5-0.2-0.8c0.2-0.3,0.4-0.6,0.7-0.7
						c0.1,0,0.2-0.1,0.2-0.1c0.7-0.3,1.6,0,2.2,0.6c0,0.1,0.1,0.1,0.1,0.2c0.1,0.1,0.2,0.2,0.3,0.4
						C204.5,177.9,204.5,177.9,204.6,178z"/>
				</g>
				<g>
					<g>
						<path class="st1" d="M204.8,178.4c-0.3,0.2-0.7,0.3-1,0.4c-0.4,0.1-0.7,0.1-1.1,0.2c-0.4,0-0.8,0-1.1-0.1
							c-0.3-0.1-0.8-0.3-0.9-0.6c-0.3-0.7,0.2-1.5,0.7-1.8c0.6-0.4,1.3-0.4,2-0.2c0.4,0.1,0.7,0.3,1,0.6c0.1,0.1,0.1,0.1,0.2,0.2
							c0,0,0.1,0.1,0.1,0.2c0,0,0,0,0,0.1c0,0,0,0,0,0c0.1,0.1,0.2,0.3,0.3,0.5C205,178,205,178.3,204.8,178.4
							c-0.2,0.1-0.5,0.1-0.6-0.2c0-0.1-0.1-0.1-0.1-0.2c0,0-0.1-0.1,0,0c0,0,0,0,0-0.1c-0.1-0.1-0.1-0.1-0.2-0.2c0,0-0.1-0.1,0,0
							c0,0,0,0,0,0c0,0,0,0-0.1-0.1c0,0-0.1-0.1-0.1-0.1c0,0,0,0-0.1-0.1c0,0-0.1-0.1,0,0c0,0-0.1,0,0,0c0,0-0.1,0-0.1-0.1
							c-0.1,0-0.1-0.1-0.2-0.1c0,0-0.1,0-0.1,0c0,0,0.1,0,0,0c-0.1,0-0.1,0-0.2-0.1c-0.1,0-0.1,0-0.2,0c0,0,0,0-0.1,0c0,0,0,0,0,0
							c0,0,0,0-0.1,0c-0.1,0-0.2,0-0.3,0c0,0-0.1,0,0,0c0,0,0,0-0.1,0c-0.1,0-0.1,0-0.2,0.1c0,0-0.1,0-0.1,0c0.1,0-0.1,0-0.1,0
							c-0.1,0-0.1,0.1-0.2,0.1c-0.1,0,0,0,0,0c0,0-0.1,0-0.1,0.1c0,0,0,0-0.1,0.1c0,0-0.1,0.1-0.1,0.1c0,0,0,0.1,0,0c0,0,0,0,0,0.1
							c0,0,0,0.1-0.1,0.1c0,0.1,0,0,0,0c0,0-0.1,0.1,0,0.2c0,0,0,0,0-0.1c0,0,0,0,0,0.1c0,0,0,0,0,0c0,0,0,0,0,0c0,0,0,0.1,0,0.1
							c0,0,0,0,0,0c0,0,0,0,0,0.1c0-0.1,0,0,0,0c0,0,0,0,0,0c0,0,0,0,0.1,0c0,0,0,0,0.1,0c0,0,0.1,0.1,0,0c0.1,0,0.1,0.1,0.2,0.1
							c0.1,0,0.1,0,0.2,0.1c0,0,0.1,0,0.1,0c0,0,0.1,0,0.1,0c0.2,0,0.3,0,0.5,0c0.1,0,0.2,0,0.2,0c0.1,0-0.1,0,0,0c0,0,0.1,0,0.1,0
							c0.2,0,0.3-0.1,0.5-0.1c0.2,0,0.3-0.1,0.4-0.1c0.1-0.1,0,0,0,0c0,0,0.1,0,0.1-0.1c0.1,0,0.2-0.1,0.2-0.1
							c0.2-0.1,0.5-0.1,0.6,0.2C205,178,205,178.2,204.8,178.4z"/>
					</g>
				</g>
			</g>
		</g>
	</g>
	<g>
		<g>
			<path class="st4" d="M197.1,79.4l-3-0.2c-0.8,0-1.5,0.6-1.5,1.4l-0.3,4.8c0,0.8,0.6,1.5,1.3,1.5l3,0.2c0.8,0,1.5-0.6,1.5-1.4
				l0.3-4.8C198.4,80.1,197.8,79.4,197.1,79.4z"/>
		</g>
		<g>
			<path class="st4" d="M233.1,81.4l-3-0.2c-0.8,0-1.5,0.6-1.5,1.4l-0.3,4.8c0,0.8,0.6,1.5,1.3,1.5l3,0.2c0.8,0,1.5-0.6,1.5-1.4
				l0.3-4.8C234.5,82.2,233.9,81.5,233.1,81.4z"/>
		</g>
	</g>
	<g>
		<path class="st5" d="M244.8,92c0-1.8-0.2-3.6-0.8-5.3c-0.8-2.4-2.5-3.2-4.6-3.3c-8.4-0.4-16.8-0.9-25.2-1.4
			c-8.4-0.5-16.8-1-25.2-1.5c-2.1-0.1-3.9,0.5-5,2.8c-0.8,1.6-1.1,3.4-1.4,5.1c-0.1,0.9-0.1,1.8,0.6,2.3c0.4,0.2,0.8,0.2,1.2,0.3
			c0.1,0,0.1,0,0.2,0c9.6,0.7,19.3,1.2,28.9,1.7c9.6,0.6,19.3,1.2,28.9,1.6c0.1,0,0.1,0,0.2,0c0.4,0,0.8,0,1.2-0.1
			C244.8,93.8,244.9,92.8,244.8,92z"/>
	</g>
	<g>
		<path class="st4" d="M215.2,97.9c0-0.1,0-0.2,0-0.3c-0.9,0-1.7,0-2.6-0.1c-0.9-0.1-1.7-0.2-2.6-0.2c0,0.1,0,0.2,0,0.3
			c-11.8-0.3-23.7-0.5-35.5-0.8c0.5,11.1,0.3,22.2,0.7,33.3c0.2,6.5,0,13.1,1.2,19.5c1.1,5.8,3.8,12.5,8.5,16.2
			c3.3,2.6,7.6,3.4,11.6,3.9c4,0.5,8.1,1,12.1,1.2c4,0.3,8.1,0.2,12.2,0.2c4.1,0,8.4-0.3,11.9-2.5c5-3.2,8.5-9.5,10.2-15.2
			c1.9-6.2,2.3-12.8,3.3-19.2c1.6-11,2.7-22,4.4-33C238.8,100,227,98.9,215.2,97.9z"/>
	</g>
	<g>
		<g>
			<path class="st6" d="M214.3,97.6c0.3,0,0.6,0,0.9,0c0,0,0,0,0-0.1c-0.6,0-1.2,0-1.7,0C213.7,97.6,214,97.6,214.3,97.6z"/>
		</g>
		<g>
			<path class="st6" d="M198.7,169.8c-3.9-0.5-8-1.2-11.1-3.9c-4.4-3.8-7.1-10.4-8.1-16.2c-1.1-6.4-0.9-13-1.1-19.5
				c-0.4-11.1-0.2-22.2-0.6-33.3c11.3,0.2,22.6,0.5,34,0.7c0-0.1,0-0.1,0-0.2c-0.6-0.1-1.2-0.1-1.8-0.2c0,0.1,0,0.2,0,0.3
				c-11.8-0.3-23.7-0.5-35.5-0.8c0.5,11.1,0.3,22.2,0.7,33.3c0.2,6.5,0,13.1,1.2,19.5c1.1,5.8,3.8,12.5,8.5,16.2
				c3.3,2.6,7.6,3.4,11.6,3.9c3.9,0.5,8,1,11.9,1.2C205.2,170.6,201.9,170.2,198.7,169.8z"/>
		</g>
		<g>
			<path class="st6" d="M210.5,170.9c-0.1,0-0.1,0-0.2,0c-0.2,0-0.5,0-0.7,0C209.8,170.9,210.1,170.9,210.5,170.9z"/>
		</g>
		<g>
			<path class="st6" d="M209.3,170.9c0,0,0.1,0,0.1,0C209.4,170.9,209.3,170.9,209.3,170.9z"/>
		</g>
	</g>
	<g>
		<path class="st6" d="M175.2,104.3c0.3,0.6,0.4,1.3,0.6,2c0.1,0.7,0.3,1.4,0.3,2c0.1,2.9,1.4,5.6,1.1,8.5c-0.1,0.5-0.9,0.5-1.4,0.5
			c0.8-0.2,1.9-0.3,2.1-1.2c0.7-2.4,0.4-5.2,2.2-7c0.3-0.3,0.6-0.7,0.9-0.9c1.6-1.4,3.9-2.2,6.4-1.8c0.6,0,1.2,0,1.8,0.1
			c3,0.2,6.1,0.8,9.1,0.7c0.6,0,1.1,0.1,1.7,0.1c4.7,0.3,9.7,0.6,14.6,0.8c0.6,0,1.3,0.1,1.9,0.1c8.2,0.9,18.3-1,24.4,6.1
			c0.5,0.6,0.8,1.3,1.1,2c1,2.8,0.6,6.1,0.2,9.1c-0.1,0.8-0.1,1.7-0.2,2.5c0.2-0.6,0.4-1.2,0.6-1.8c0.3-1.1,0.6-2.1,1-3.2
			c1.6-4.3,3.6-8.4,4.7-12.8c0.1-0.5,0.2-0.9,0.4-1.4c0.3-0.9,0.5-1.8,0.8-2.7c0.2-0.7,0.4-1.5,0.5-2.2c0.2-0.7,0.3-1.4,0.4-2.1
			c-0.7-0.1-1.4-0.2-2.2-0.3c-5.1-0.7-10.2-1.6-15.3-2c-1.5-0.1-2.9-0.3-4.4-0.4c-4.4-0.4-8.8-0.8-13.3-1.2c0-0.1,0-0.2,0-0.3
			c-0.9,0-1.7,0-2.6-0.1c-0.9-0.1-1.7-0.2-2.6-0.2c0,0.1,0,0.2,0,0.3c-8.1-0.2-16.3-0.4-24.4-0.6c-0.7,0-1.5,0-2.2-0.1
			c-1.5,0-2.9,0-4.4-0.1c-0.7,0-1.5,0-2.2-0.1c-0.7-0.1-1.5,0-2.2,0c0.1,0.9,0.1,1.8,0.1,2.7c0,0.6,0.1,1.2,0.1,1.8
			c0.1,0.6,0.1,1.2,0.3,1.8C175.1,103.4,175.2,103.8,175.2,104.3z"/>
	</g>
	<g>
		<path class="st6" d="M215.2,97.9c0-0.1,0-0.2,0-0.3c-0.1,0-0.2,0-0.4,0c0,0.1,0,0.2,0,0.2c10.1,1,20.3,1.9,30.4,2.9
			c-1.5,10.5-2.5,21.1-3.9,31.6c-0.3,2.1-0.5,4.3-0.8,6.4c-0.1,0.7-0.2,1.4-0.3,2.1c-0.1,1.8-0.4,3.6-0.8,5.4
			c-0.2,0.9-0.4,1.8-0.7,2.7c-2.8,13.5-17,19.9-29.5,18.6c-1.3,0-2.7-0.1-4-0.2c-1.3-0.1-2.6-0.2-3.8-0.4c-0.5-0.1-1-0.1-1.4-0.2
			c-1.4-0.1-2.8-0.2-4.1-0.4c-0.7-0.1-1.4-0.3-2-0.4c-1.2-0.2-2.4-0.6-3.6-1c-0.6-0.2-1.1-0.5-1.7-0.8c-0.6-0.3-1.2-0.6-1.7-0.9
			c-5.6-4-7.5-11.5-8.2-18.1c-0.3,6.2-0.1,13,3.7,18c0.4,0.5,0.8,1,1.2,1.5c0.4,0.3,0.7,0.6,1.1,0.9c1.1,0.9,2.4,1.6,3.7,2.2
			c0.6,0.3,1.3,0.5,1.9,0.7c2,0.7,4,1,6.1,1.2c0.7,0.1,1.3,0.2,2,0.2c0.8,0.1,1.7,0.2,2.5,0.3c0.8,0.1,1.7,0.2,2.5,0.3
			c1.2,0,2.4,0.1,3.6,0.1s2.4,0.1,3.6,0.2c8.9,0.5,19.9,1.4,26.4-6.1c0.7-0.8,1.3-1.8,1.8-2.8c0.4-0.7,0.8-1.4,1.2-2.1
			c0.6-1.1,1.1-2.1,1.5-3.2c0.4-1.1,0.8-2.2,1.1-3.2c0.2-0.8,0.4-1.6,0.6-2.4c1.4-5.5,1.8-11.2,2.7-16.9c1.6-11,2.7-22,4.4-33
			C238.8,100,227,98.9,215.2,97.9z"/>
	</g>
	<g>
		<path class="st7" d="M191.6,96.9L191.6,96.9c6.2,0.2,12.5,0.3,18.7,0.4c0-0.1,0-0.2,0-0.2c-0.1,0-0.2,0-0.4,0c0,0.1,0,0.2,0,0.3
			C203.8,97.2,197.7,97.1,191.6,96.9z"/>
	</g>
	<g>
		<path class="st8" d="M250.9,97c-0.1-1.8-0.3-3.6-1-5.3c-1.1-2.4-3.1-3.3-5.7-3.4c-10.3-0.6-20.6-1.1-31-1.7
			c-10.3-0.6-20.7-1.2-31-1.9c-2.6-0.2-4.7,0.5-6.1,2.7c-0.9,1.6-1.3,3.4-1.6,5.2c-0.1,0.9-0.2,1.9,0.8,2.3c0.4,0.2,1,0.3,1.5,0.3
			c0.1,0,0.2,0,0.3,0c11.8,0.8,23.7,1.4,35.5,2.1c11.8,0.7,23.7,1.5,35.5,2c0.1,0,0.2,0,0.3,0c0.5,0,1,0,1.5-0.1
			C250.9,98.8,251,97.9,250.9,97z"/>
	</g>
	<g>
		<path class="st4" d="M250.9,97c-0.1-1.8-0.3-3.6-1-5.3c-1.1-2.4-3.1-3.3-5.7-3.4c-10.3-0.6-20.6-1.1-31-1.7
			c-10.3-0.6-20.7-1.2-31-1.9c-2.6-0.2-4.7,0.5-6.1,2.7c-0.9,1.6-1.3,3.4-1.6,5.2c-0.1,0.9-0.2,1.9,0.8,2.3c0.4,0.2,1,0.3,1.5,0.3
			c0.1,0,0.2,0,0.3,0c11.8,0.8,23.7,1.4,35.5,2.1c11.8,0.7,23.7,1.5,35.5,2c0.1,0,0.2,0,0.3,0c0.5,0,1,0,1.5-0.1
			C250.9,98.8,251,97.9,250.9,97z"/>
	</g>
	<g>
		<path class="st6" d="M250.9,97c-0.1-1.8-0.3-3.6-1-5.3c-1.1-2.4-3.1-3.3-5.7-3.4c0,0,0,0-0.1,0c0.2,1.1,0.3,2.3,0.4,3.4
			c0,0.9-0.1,1.9-1,2.2c-0.4,0.2-0.9,0.1-1.4,0.1c-0.1,0-0.2,0-0.2,0c-11.2-0.5-22.3-1.2-33.5-1.9c-11.1-0.6-22.2-1.2-33.3-1.9
			c-0.2,0.8-0.4,1.6-0.5,2.4c-0.1,0.9-0.2,1.9,0.8,2.3c0.4,0.2,1,0.3,1.5,0.3c0.1,0,0.2,0,0.3,0c11.8,0.8,23.7,1.4,35.5,2.1
			c11.8,0.7,23.7,1.5,35.5,2c0.1,0,0.2,0,0.3,0c0.5,0,1,0,1.5-0.1C250.9,98.8,251,97.9,250.9,97z"/>
	</g>
	<g>
		<g>
			<path class="st9" d="M222.2,154.3c-0.2-1.6-1.1-3.1-2-4.3c-0.5-0.7-1.7-0.7-2.3-0.1c-0.7,0.7-0.7,1.6-0.1,2.3
				c0,0,0.2,0.2,0.2,0.2c0.1,0.1,0.1,0.2,0.2,0.4c0.1,0.3,0.3,0.5,0.4,0.8c0.1,0.2,0.1,0.3,0.2,0.5c0,0,0.2,0.5,0.1,0.1
				c0.1,0.2,0.1,0.4,0.1,0.7c0,0,0,0,0,0c0,0,0,0,0,0.1c0,0.1,0,0.2,0,0.3c0,0,0,0.1,0,0.1c0,0,0,0,0,0.1c-0.1,0.1-0.2,0.2,0,0.1
				c0,0,0,0,0-0.1c0,0,0,0.1,0,0.1c0,0,0,0,0,0c0,0,0,0,0,0c0,0,0,0,0,0c-0.1,0.1-0.2,0.2-0.3,0.2c-0.1,0.1-0.2,0.2-0.3,0.2
				c0,0-0.1,0-0.1,0.1c0,0,0,0,0,0c-0.2,0.1-0.4,0.2-0.6,0.3c0,0-0.1,0-0.1,0c-0.1,0-0.3,0.1-0.4,0.1c-0.1,0-0.2,0-0.3,0.1
				c-0.1,0-0.5,0-0.1,0c-0.3,0-0.5,0-0.8,0c-1.1-0.1-2.3-0.2-3.4-0.3c0.1-0.4,0.1-0.7,0.2-1.1c0.1-0.7-0.7-1.3-1.3-0.9
				c-0.3,0.2-0.6,0.5-0.9,0.7c-0.5,0.4-1,0.7-1.5,1.1c-0.3,0.2-0.7,0.4-0.9,0.8c-0.3,0.6,0.3,1.2,0.5,1.7c0.4,0.6,0.7,1.2,1.1,1.9
				c0.2,0.4,0.4,1,0.9,1.1c0.5,0.1,0.9-0.2,1-0.6c0,0,0-0.1,0-0.1c0,0,0,0,0,0c0.1-0.4,0.1-0.8,0.2-1.2c0,0,0.1,0,0.1,0
				c2.9,0.2,6.1,0.9,8.6-1.1C221.8,157.4,222.4,156,222.2,154.3z M219,155.2C219,155.2,219,155.2,219,155.2L219,155.2z"/>
		</g>
		<g>
			<polygon class="st9" points="218.9,155.5 218.9,155.5 218.9,155.5 218.9,155.5 			"/>
		</g>
		<g>
			<path class="st9" d="M205.2,156.1c-1.3-0.1-2.5,0-3.8-0.2c-0.1,0-0.3,0-0.4,0c0,0,0,0,0,0c0,0,0,0,0,0c-0.2-0.1-0.5-0.1-0.7-0.2
				c0,0,0,0,0,0c0,0,0,0,0,0c-0.1-0.1-0.2-0.1-0.3-0.2c0,0,0,0-0.1-0.1c-0.1-0.1-0.2-0.2-0.2-0.3c0,0,0,0,0,0c0,0,0,0,0,0
				c0-0.1-0.1-0.3-0.1-0.2c0-0.1,0-0.2-0.1-0.3c0.1,0.3,0-0.1,0-0.1c0,0,0,0,0,0c0,0,0,0,0-0.1c0,0,0-0.1,0-0.1c0,0,0,0,0,0
				c0.2-0.2,0.3-0.5,0.5-0.7c0.1-0.1,0.1-0.2,0.2-0.3c0,0,0.2-0.2,0.2-0.2c0.2-0.2,0.4-0.5,0.6-0.7c0.1-0.2,0.3-0.3,0.4-0.5
				c0.5,0.4,1.1,1,1.8,0.8c0.7-0.2,0.6-1,0.5-1.5c-0.2-0.9-0.3-1.9-0.4-2.8c-0.1-0.6-0.3-1.1-0.9-1.1c-0.9,0-1.8,0.1-2.7,0.2
				c-0.4,0-0.8,0-1.1,0.1c-0.8,0.1-1.2,0.9-0.6,1.5c0,0,0,0,0,0c0,0,0,0,0,0c0.3,0.2,0.6,0.4,0.8,0.7c0,0-0.1,0.1-0.1,0.1
				c-0.1,0.1-0.2,0.3-0.4,0.4c-0.5,0.6-1.1,1.2-1.5,1.8c-1.1,1.5-1.1,3.5,0,5.1c1.9,2.8,5.2,2.1,8,2.4c0.8,0.1,1.7-0.7,1.7-1.6
				C206.7,156.9,206.1,156.2,205.2,156.1z"/>
		</g>
		<g>
			<path class="st9" d="M209,142c0.1-0.1,0.2-0.1,0.4-0.2c0,0,0.2-0.1,0.3-0.1c0.1,0,0.3-0.1,0.3-0.1c0,0,0,0,0,0c0,0,0,0,0,0
				c0,0,0.1,0,0.1,0c0.1,0,0.2,0.1,0.2,0.1c0,0,0,0,0.1,0c0,0,0,0,0,0c0.1,0.1,0.2,0.1,0.3,0.2c0,0,0.1,0.1,0.1,0.1
				c0.4,0.4,0.7,0.8,1.1,1.3c0.1,0.1,0.1,0.2,0.2,0.3c0,0,0.1,0.1,0.1,0.1c0,0,0,0,0,0c0.2,0.3,0.4,0.6,0.6,0.9
				c0.3,0.5,0.6,0.8,0.8,1.1c-0.2,0.2-0.5,0.3-0.7,0.5c-0.4,0.3-0.9,0.7-0.6,1.4c0.3,0.5,0.9,0.5,1.4,0.6c0.7,0.1,1.4,0.2,2.2,0.4
				c0.5,0.1,1.2,0.3,1.6-0.3c0.2-0.4,0.3-1,0.4-1.4c0.2-0.8,0.4-1.5,0.6-2.3c0.1-0.2,0.1-0.5,0.1-0.7c-0.1-0.5-0.6-0.8-1.1-0.7
				c-0.1,0-0.1,0-0.2,0.1c0,0-0.1,0.1-0.1,0.1c-0.3,0.2-0.5,0.4-0.8,0.6c-0.3-0.5-0.7-1-1-1.5c0.2,0.4,0-0.1-0.1-0.1
				c-0.1-0.2-0.3-0.4-0.4-0.7c-0.2-0.3-0.4-0.5-0.6-0.8c-0.9-1.2-2.1-2.3-3.6-2.6c-1.7-0.3-3.3,0.8-4.5,1.9c-1.2,1.1-2,2.5-3,3.8
				c-0.5,0.7-0.3,1.9,0.5,2.3c0.8,0.5,1.7,0.3,2.3-0.5c0.4-0.5,0.8-1.1,1.1-1.6c0.2-0.3,0.4-0.5,0.6-0.8c0-0.1,0.1-0.1,0.1-0.2
				c0,0,0,0,0,0c0.1-0.1,0.2-0.2,0.3-0.3c0.2-0.2,0.5-0.5,0.7-0.7C208.8,142.1,208.8,142,209,142C208.9,142,208.9,142,209,142z"/>
		</g>
	</g>
	<g>
		<g>
			<path class="st5" d="M190.2,99l-1.9-0.1c-0.5,0-0.9,0.4-0.9,0.8l-0.2,3c0,0.5,0.3,0.9,0.8,0.9l1.9,0.1c0.5,0,0.9-0.4,0.9-0.8
				l0.2-3C191.1,99.5,190.7,99.1,190.2,99z"/>
		</g>
		<g>
			<path class="st5" d="M212.5,100.3l-1.9-0.1c-0.5,0-0.9,0.4-0.9,0.8l-0.2,3c0,0.5,0.3,0.9,0.8,0.9l1.9,0.1c0.5,0,0.9-0.4,0.9-0.8
				l0.2-3C213.3,100.8,212.9,100.3,212.5,100.3z"/>
		</g>
		<g>
			<path class="st5" d="M234.7,101.6l-1.9-0.1c-0.5,0-0.9,0.4-0.9,0.8l-0.2,3c0,0.5,0.3,0.9,0.8,0.9l1.9,0.1c0.5,0,0.9-0.4,0.9-0.8
				l0.2-3C235.5,102,235.2,101.6,234.7,101.6z"/>
		</g>
	</g>
	<g>
		<g>
			<path class="st4" d="M189.1,99.5l-1.9-0.1c-0.5,0-0.9,0.4-0.9,0.8l-0.2,3c0,0.5,0.3,0.9,0.8,0.9l1.9,0.1c0.5,0,0.9-0.4,0.9-0.8
				l0.2-3C189.9,99.9,189.6,99.5,189.1,99.5z"/>
		</g>
		<g>
			<path class="st4" d="M211.3,100.8l-1.9-0.1c-0.5,0-0.9,0.4-0.9,0.8l-0.2,3c0,0.5,0.3,0.9,0.8,0.9l1.9,0.1c0.5,0,0.9-0.4,0.9-0.8
				l0.2-3C212.2,101.2,211.8,100.8,211.3,100.8z"/>
		</g>
		<g>
			<path class="st4" d="M233.5,102l-1.9-0.1c-0.5,0-0.9,0.4-0.9,0.8l-0.2,3c0,0.5,0.3,0.9,0.8,0.9l1.9,0.1c0.5,0,0.9-0.4,0.9-0.8
				l0.2-3C234.4,102.5,234,102.1,233.5,102z"/>
		</g>
	</g>
	<g>
		<path class="st5" d="M252.9,96.7l-80.2-4.6c-1.5-0.1-2.8,1.1-2.8,2.7l-0.2,3.2c-0.1,1.6,1.1,2.9,2.5,3l80.2,4.6
			c1.5,0.1,2.8-1.1,2.8-2.7l0.2-3.2C255.5,98.1,254.4,96.8,252.9,96.7z"/>
	</g>
	<g>
		<g>
			<g>
				<g>
					<path class="st1" d="M195.9,122.6c0.1-1.6,1.3-3.1,2.9-3.3c1.2-0.2,2.3,0.3,3,1.3c0.7,1,0.9,2.3,0.4,3.5
						c-0.5,1.3-1.7,2.2-3,2.2c-1.4,0-2.7-1-3.1-2.4C195.9,123.5,195.9,123.1,195.9,122.6z"/>
				</g>
			</g>
		</g>
		<g>
			<g>
				<g>
					<path class="st9" d="M197.6,122.3c0-0.5,0.4-0.9,0.9-1.1c0.8-0.2,1.5,0.5,1.3,1.3c-0.1,0.4-0.4,0.8-0.8,0.9
						c-0.4,0.1-0.9,0-1.2-0.3C197.7,122.9,197.6,122.6,197.6,122.3z"/>
				</g>
			</g>
		</g>
		<g>
			<g>
				<g>
					<path class="st1" d="M219.4,124.5c0.1-1.5,1.2-2.9,2.6-3.3c1.7-0.4,3.5,0.9,3.8,2.7c0.3,1.4-0.2,2.8-1.3,3.7
						c-1,0.8-2.3,0.9-3.4,0.3c-0.9-0.5-1.6-1.4-1.8-2.5C219.4,125.1,219.4,124.8,219.4,124.5z"/>
				</g>
			</g>
		</g>
		<g>
			<g>
				<g>
					<path class="st9" d="M221,124.2c0-0.5,0.4-0.9,0.8-1c0.5-0.2,1.1,0.1,1.4,0.6c0.2,0.5,0,1.2-0.5,1.5c-0.5,0.2-1.1,0.2-1.4-0.3
						C221.1,124.8,221,124.5,221,124.2z"/>
				</g>
			</g>
		</g>
		<g>
			<g>
				<path class="st10" d="M201.6,128.5c-0.5-1.2-1.9-1.7-3.1-1.7c0,0,0,0,0,0c0,0,0,0,0,0c-1,0.1-2.4,0.5-2.7,1.6
					c-0.4,1.1,0.7,2,1.6,2.3c1,0.3,2,0.3,3-0.1C201.2,130.4,202,129.6,201.6,128.5z"/>
			</g>
		</g>
		<g>
			<g>
				<path class="st10" d="M222.7,128.8C222.7,128.8,222.7,128.8,222.7,128.8C222.7,128.8,222.7,128.8,222.7,128.8
					c-1.1-0.2-2.3,0-3.1,0.9c-0.3,0.4-0.5,0.8-0.4,1.3c0.1,0.5,0.4,0.8,0.8,1.1c0.8,0.6,1.8,0.9,2.8,0.8c0.9-0.1,2.2-0.6,2.3-1.7
					C225.3,129.9,223.8,129,222.7,128.8z"/>
			</g>
		</g>
		<g>
			<g>
				<g>
					<path class="st10" d="M210.8,129c-0.8-1.1-2.2-0.5-2.8,0.4c0.7,0.8,1.7,1.3,2.7,1.3c1.1,0,2.1-0.5,2.8-1.2
						C212.8,128.6,211.8,128,210.8,129z"/>
				</g>
			</g>
			<g>
				<g>
					<g>
						<path class="st1" d="M214.7,127c-0.1-0.4-0.3-0.6-0.8-0.7c-0.6,0-1.1,0.3-1.7,0.4c-1,0.2-2,0.1-3-0.2
							c-0.5-0.2-1.2-0.5-1.7-0.3c-0.8,0.2-0.6,1.3-0.4,1.9c0.2,0.5,0.5,0.9,0.9,1.3c0.7-0.9,2-1.5,2.8-0.4c0.9-0.9,1.9-0.4,2.7,0.5
							c0.5-0.5,0.9-1.2,1.1-1.9C214.7,127.3,214.7,127.2,214.7,127z"/>
					</g>
				</g>
			</g>
		</g>
	</g>
	<g class="st11">
		<g>
			<path class="st6" d="M174,98c-0.5-0.7-0.3-2.1,0.3-2.2c1-0.1,2-0.2,3-0.2c0.5,0,1,0,1.5,0.1c0.5,0.1,1,0.2,1.5,0.3
				c0.1,0,0.3,0.1,0.4,0.3c0.6,1.3-0.7,2.2-1.1,2.3c-0.9,0.2-1.8,0.3-2.7,0.2c-0.8,0-1.8,0-2.6-0.5C174.2,98.2,174.1,98.1,174,98z"
				/>
		</g>
	</g>
	<g class="st11">
		<g>
			<path class="st6" d="M184.6,98.6c-1-0.8-0.8-2.1,0.4-2.2c4.1-0.1,8.2-0.3,12.3,0.3c0.3,0,0.6,0.1,0.8,0.3c1.4,1.3-1.3,2.2-2,2.2
				c-1.9,0.2-3.7,0.2-5.6,0.1c-1.8-0.1-3.7,0-5.4-0.6C185,98.8,184.8,98.7,184.6,98.6z"/>
		</g>
	</g>
	<g class="st11">
		<g>
			<path class="st6" d="M188.7,83.6c-0.7-0.6-0.5-1.8,0.3-1.8c2.8-0.1,5.6-0.2,8.4,0.3c0.2,0,0.4,0.1,0.5,0.3c1,1.1-0.9,1.8-1.4,1.9
				c-1.3,0.1-2.6,0.2-3.8,0.1c-1.2-0.1-2.5-0.1-3.7-0.5C188.9,83.8,188.8,83.7,188.7,83.6z"/>
		</g>
	</g>
	<g>
		<g>
			<path class="st12" d="M186.9,84.6"/>
		</g>
	</g>
	<g>
		<path class="st6" d="M234.2,93.5c0-1.1-0.1-2.3-0.6-3.3c-0.6-1.5-1.7-2-3.2-2.1c-5.8-0.3-11.5-0.6-17.3-1
			c-5.8-0.3-11.6-0.7-17.3-1c-1.4-0.1-2.6,0.3-3.4,1.7c-0.5,1-0.7,2.1-0.9,3.2c-0.1,0.5-0.1,1.2,0.4,1.4c0.3,0.1,0.5,0.2,0.8,0.2
			c0,0,0.1,0,0.1,0c6.6,0.5,13.2,0.8,19.9,1.2c6.6,0.4,13.2,0.8,19.9,1.1c0,0,0.1,0,0.1,0c0.3,0,0.6,0,0.8-0.1
			C234.1,94.7,234.2,94.1,234.2,93.5z"/>
	</g>
	<g>
		<path class="st5" d="M232,92.3c-0.1-0.7-0.2-1.5-0.5-2.2c-0.6-1-1.6-1.4-2.9-1.4c-5.2-0.3-10.4-0.6-15.5-0.9
			c-5.2-0.3-10.4-0.6-15.5-0.9c-1.3-0.1-2.4,0.2-3,1.1c-0.5,0.6-0.6,1.4-0.8,2.1c-0.1,0.4-0.1,0.8,0.4,1c0.2,0.1,0.5,0.1,0.7,0.1
			c0,0,0.1,0,0.1,0c5.9,0.4,11.9,0.7,17.8,1c5.9,0.4,11.9,0.7,17.8,1c0,0,0.1,0,0.1,0c0.2,0,0.5,0,0.7,0C232,93,232.1,92.6,232,92.3
			z"/>
	</g>
</g>
<g>
	<rect x="19.5" y="51.1" class="st13" width="159.8" height="37.9"/>
	<path class="st14" d="M27.2,53.6l8.1,12.2V53.5c0-0.8,0.2-1.4,0.5-1.8c0.3-0.4,0.8-0.6,1.4-0.6c0.6,0,1.1,0.2,1.4,0.6
		c0.3,0.4,0.5,1,0.5,1.8v16.3c0,1.8-0.8,2.7-2.3,2.7c-0.4,0-0.7-0.1-1-0.2c-0.3-0.1-0.6-0.3-0.8-0.5s-0.5-0.5-0.7-0.8
		c-0.2-0.3-0.5-0.6-0.7-1L25.7,58v12.2c0,0.8-0.2,1.4-0.6,1.8s-0.8,0.6-1.4,0.6c-0.6,0-1.1-0.2-1.4-0.6c-0.4-0.4-0.5-1-0.5-1.8v-16
		c0-0.7,0.1-1.2,0.2-1.6c0.2-0.4,0.5-0.8,0.9-1c0.4-0.3,0.9-0.4,1.3-0.4c0.4,0,0.7,0.1,1,0.2c0.3,0.1,0.5,0.3,0.7,0.5
		c0.2,0.2,0.4,0.5,0.6,0.8C26.8,52.9,27,53.3,27.2,53.6z"/>
	<path class="st14" d="M58,64.7c0,1.2-0.2,2.2-0.5,3.2s-0.9,1.8-1.6,2.5s-1.5,1.2-2.4,1.6c-0.9,0.4-2,0.6-3.2,0.6
		c-1.2,0-2.2-0.2-3.2-0.6s-1.7-0.9-2.4-1.6c-0.7-0.7-1.2-1.5-1.6-2.5c-0.4-1-0.5-2-0.5-3.2c0-1.2,0.2-2.2,0.5-3.2s0.9-1.8,1.5-2.5
		s1.5-1.2,2.4-1.6c1-0.4,2-0.6,3.2-0.6c1.2,0,2.2,0.2,3.2,0.6s1.8,0.9,2.4,1.6s1.2,1.5,1.6,2.5C57.8,62.5,58,63.6,58,64.7z
		 M54.1,64.7c0-1.6-0.3-2.8-1-3.7c-0.7-0.9-1.6-1.3-2.8-1.3c-0.8,0-1.4,0.2-2,0.6c-0.6,0.4-1,1-1.3,1.7s-0.5,1.7-0.5,2.7
		c0,1,0.2,1.9,0.5,2.6c0.3,0.8,0.7,1.3,1.3,1.7c0.6,0.4,1.2,0.6,2,0.6c1.2,0,2.1-0.4,2.8-1.3C53.7,67.5,54.1,66.3,54.1,64.7z"/>
	<path class="st14" d="M74.2,63.4h-1.5V70c0,0.9-0.2,1.5-0.6,1.9s-0.9,0.6-1.5,0.6c-0.7,0-1.2-0.2-1.6-0.7s-0.6-1.1-0.6-1.9v-16
		c0-0.9,0.2-1.6,0.6-2s1.1-0.6,2-0.6h6.8c0.9,0,1.8,0,2.4,0.1c0.7,0.1,1.3,0.2,1.8,0.5c0.7,0.3,1.2,0.7,1.7,1.2s0.9,1.1,1.1,1.8
		c0.3,0.7,0.4,1.4,0.4,2.1c0,1.5-0.4,2.8-1.3,3.7c-0.9,0.9-2.2,1.6-4,2c0.7,0.4,1.5,1,2.1,1.8s1.3,1.6,1.8,2.5
		c0.5,0.9,0.9,1.7,1.2,2.4c0.3,0.7,0.4,1.2,0.4,1.5c0,0.3-0.1,0.5-0.3,0.8c-0.2,0.3-0.4,0.5-0.7,0.6c-0.3,0.2-0.7,0.2-1,0.2
		c-0.5,0-0.9-0.1-1.2-0.3c-0.3-0.2-0.6-0.5-0.8-0.8c-0.2-0.3-0.5-0.8-0.9-1.5l-1.7-2.8c-0.6-1-1.1-1.8-1.6-2.4
		c-0.5-0.5-1-0.9-1.5-1.1S74.9,63.4,74.2,63.4z M76.6,54.6h-3.9v5.7h3.8c1,0,1.9-0.1,2.5-0.3c0.7-0.2,1.2-0.5,1.6-0.9
		c0.4-0.4,0.5-1,0.5-1.7c0-0.6-0.1-1.1-0.4-1.5c-0.3-0.4-0.7-0.8-1.2-1C79,54.7,78,54.6,76.6,54.6z"/>
	<path class="st14" d="M99.2,65.7h-7.6c0,0.9,0.2,1.7,0.5,2.3c0.3,0.7,0.8,1.2,1.4,1.5c0.6,0.3,1.2,0.5,1.9,0.5
		c0.5,0,0.9-0.1,1.3-0.2c0.4-0.1,0.8-0.3,1.1-0.5c0.4-0.2,0.7-0.5,1-0.7s0.7-0.6,1.2-1.1c0.2-0.2,0.5-0.3,0.8-0.3
		c0.4,0,0.7,0.1,1,0.3s0.4,0.5,0.4,0.9c0,0.3-0.1,0.8-0.4,1.2c-0.3,0.5-0.7,0.9-1.2,1.3c-0.6,0.4-1.2,0.8-2.1,1.1
		c-0.8,0.3-1.8,0.4-2.9,0.4c-2.5,0-4.4-0.7-5.8-2.1s-2.1-3.3-2.1-5.8c0-1.1,0.2-2.2,0.5-3.2c0.3-1,0.8-1.8,1.5-2.5s1.5-1.2,2.4-1.6
		c1-0.4,2-0.6,3.2-0.6c1.5,0,2.8,0.3,3.9,1c1.1,0.6,1.9,1.5,2.4,2.5s0.8,2,0.8,3.1c0,1-0.3,1.6-0.8,1.9
		C101,65.5,100.2,65.7,99.2,65.7z M91.6,63.5h7c-0.1-1.3-0.5-2.3-1.1-3c-0.6-0.7-1.4-1-2.4-1c-1,0-1.8,0.3-2.4,1
		C92.1,61.2,91.8,62.2,91.6,63.5z"/>
	<path class="st14" d="M108.8,59v0.5c0.7-0.9,1.5-1.6,2.3-2c0.8-0.4,1.7-0.6,2.7-0.6c1.2,0,2.3,0.3,3.3,0.9c1,0.6,1.8,1.5,2.4,2.7
		s0.9,2.6,0.9,4.2c0,1.2-0.2,2.3-0.5,3.3c-0.3,1-0.8,1.8-1.4,2.5c-0.6,0.7-1.3,1.2-2.1,1.6c-0.8,0.4-1.7,0.5-2.6,0.5
		c-1.1,0-2-0.2-2.8-0.7s-1.5-1.1-2.1-2v5.8c0,1.7-0.6,2.5-1.9,2.5c-0.7,0-1.2-0.2-1.4-0.7c-0.2-0.4-0.4-1.1-0.4-1.9V59.1
		c0-0.7,0.2-1.3,0.5-1.6c0.3-0.4,0.8-0.5,1.3-0.5c0.5,0,1,0.2,1.3,0.6C108.6,57.8,108.8,58.3,108.8,59z M116.4,64.7
		c0-1-0.2-1.9-0.5-2.6c-0.3-0.7-0.7-1.3-1.3-1.7c-0.6-0.4-1.2-0.6-1.8-0.6c-1.1,0-2,0.4-2.7,1.3c-0.7,0.8-1.1,2.1-1.1,3.7
		c0,1.5,0.4,2.7,1.1,3.6c0.7,0.9,1.6,1.3,2.7,1.3c0.6,0,1.2-0.2,1.8-0.6c0.5-0.4,1-0.9,1.3-1.7C116.2,66.6,116.4,65.7,116.4,64.7z"
		/>
	<path class="st14" d="M137.8,64.7c0,1.2-0.2,2.2-0.5,3.2c-0.4,1-0.9,1.8-1.6,2.5s-1.5,1.2-2.4,1.6c-0.9,0.4-2,0.6-3.2,0.6
		c-1.2,0-2.2-0.2-3.2-0.6c-0.9-0.4-1.7-0.9-2.4-1.6c-0.7-0.7-1.2-1.5-1.6-2.5c-0.4-1-0.5-2-0.5-3.2c0-1.2,0.2-2.2,0.5-3.2
		s0.9-1.8,1.5-2.5c0.7-0.7,1.5-1.2,2.4-1.6c1-0.4,2-0.6,3.2-0.6c1.2,0,2.2,0.2,3.2,0.6c1,0.4,1.8,0.9,2.4,1.6s1.2,1.5,1.6,2.5
		C137.7,62.5,137.8,63.6,137.8,64.7z M134,64.7c0-1.6-0.3-2.8-1-3.7c-0.7-0.9-1.6-1.3-2.8-1.3c-0.8,0-1.4,0.2-2,0.6
		c-0.6,0.4-1,1-1.3,1.7c-0.3,0.8-0.5,1.7-0.5,2.7c0,1,0.2,1.9,0.5,2.6s0.7,1.3,1.3,1.7c0.6,0.4,1.2,0.6,2,0.6c1.2,0,2.1-0.4,2.8-1.3
		C133.6,67.5,134,66.3,134,64.7z"/>
	<path class="st14" d="M144.7,67v3.2c0,0.8-0.2,1.4-0.6,1.8c-0.4,0.4-0.8,0.6-1.4,0.6c-0.6,0-1-0.2-1.4-0.6c-0.4-0.4-0.5-1-0.5-1.8
		V59.5c0-1.7,0.6-2.6,1.9-2.6c0.6,0,1.1,0.2,1.4,0.6s0.4,1,0.5,1.8c0.5-0.8,0.9-1.4,1.4-1.8s1.1-0.6,1.9-0.6c0.8,0,1.6,0.2,2.4,0.6
		s1.1,0.9,1.1,1.6c0,0.5-0.2,0.9-0.5,1.2c-0.3,0.3-0.7,0.5-1.1,0.5c-0.1,0-0.5-0.1-1-0.3c-0.5-0.2-1-0.3-1.4-0.3
		c-0.6,0-1,0.1-1.4,0.4c-0.4,0.3-0.6,0.7-0.8,1.3c-0.2,0.6-0.3,1.3-0.4,2.1C144.8,64.9,144.7,65.9,144.7,67z"/>
	<path class="st14" d="M154.2,57.2h0.4v-2.3c0-0.6,0-1.1,0-1.5c0-0.4,0.1-0.7,0.3-0.9c0.2-0.3,0.4-0.5,0.7-0.6
		c0.3-0.2,0.6-0.2,0.9-0.2c0.5,0,0.9,0.2,1.3,0.6c0.3,0.2,0.4,0.5,0.5,0.9c0.1,0.4,0.1,0.9,0.1,1.5v2.6h1.4c0.5,0,1,0.1,1.3,0.4
		c0.3,0.3,0.4,0.6,0.4,1c0,0.5-0.2,0.9-0.6,1.1c-0.4,0.2-1,0.3-1.8,0.3h-0.7v7.1c0,0.6,0,1.1,0.1,1.4c0,0.3,0.2,0.6,0.3,0.8
		c0.2,0.2,0.5,0.3,0.9,0.3c0.2,0,0.5,0,0.9-0.1c0.4-0.1,0.7-0.1,0.9-0.1c0.3,0,0.6,0.1,0.8,0.4c0.3,0.3,0.4,0.6,0.4,0.9
		c0,0.6-0.3,1.1-1,1.4s-1.7,0.5-2.9,0.5c-1.2,0-2.1-0.2-2.7-0.6s-1-1-1.2-1.7s-0.3-1.7-0.3-2.9V60h-0.5c-0.6,0-1-0.1-1.3-0.4
		s-0.4-0.6-0.4-1s0.2-0.7,0.5-1C153.1,57.3,153.6,57.2,154.2,57.2z"/>
	<path class="st14" d="M176.7,67.5c0,1.1-0.3,2-0.8,2.7c-0.5,0.8-1.3,1.3-2.3,1.7c-1,0.4-2.2,0.6-3.7,0.6c-1.4,0-2.6-0.2-3.6-0.6
		c-1-0.4-1.7-1-2.2-1.6c-0.5-0.6-0.7-1.3-0.7-1.9c0-0.4,0.2-0.8,0.5-1.1s0.7-0.5,1.1-0.5c0.4,0,0.7,0.1,0.9,0.3
		c0.2,0.2,0.4,0.5,0.6,0.8c0.4,0.7,0.9,1.2,1.4,1.5c0.6,0.3,1.3,0.5,2.3,0.5c0.8,0,1.4-0.2,1.9-0.5c0.5-0.3,0.7-0.7,0.7-1.2
		c0-0.7-0.3-1.2-0.8-1.5s-1.4-0.6-2.5-0.9c-1.3-0.3-2.4-0.7-3.3-1c-0.8-0.4-1.5-0.8-2-1.4c-0.5-0.6-0.8-1.3-0.8-2.2
		c0-0.8,0.2-1.5,0.7-2.2c0.5-0.7,1.1-1.2,2-1.6c0.9-0.4,2-0.6,3.3-0.6c1,0,1.9,0.1,2.7,0.3s1.5,0.5,2,0.8s0.9,0.7,1.2,1.2
		s0.4,0.8,0.4,1.2c0,0.4-0.1,0.8-0.4,1.1c-0.3,0.3-0.7,0.4-1.3,0.4c-0.4,0-0.7-0.1-1-0.3s-0.6-0.6-1-1c-0.3-0.4-0.6-0.7-1-0.9
		s-0.9-0.3-1.6-0.3c-0.7,0-1.3,0.1-1.7,0.4c-0.5,0.3-0.7,0.7-0.7,1.1c0,0.4,0.2,0.7,0.5,1c0.3,0.3,0.8,0.5,1.4,0.6
		c0.6,0.2,1.4,0.4,2.4,0.6c1.2,0.3,2.2,0.6,2.9,1s1.3,0.9,1.7,1.4C176.5,66.2,176.7,66.8,176.7,67.5z"/>
</g>
<g>
</g>
<g>
</g>
<g>
</g>
<g>
</g>
<g>
</g>
<g>
</g>
</svg>
