<svg id="Layer_2" data-name="Layer 2" xmlns="http://www.w3.org/2000/svg" width="256" height="150" viewBox="0 0 256 150"><title>500</title><rect width="256" height="150" fill="#fff"/><rect x="81" y="58" width="10" height="2" fill="#3a7596"/><rect x="77" y="58" width="2" height="2" fill="#3a7596"/><rect x="73" y="58" width="2" height="2" fill="#3a7596"/><rect x="69" y="58" width="2" height="2" fill="#3a7596"/><rect x="65" y="58" width="2" height="2" fill="#3a7596"/><rect x="61" y="58" width="2" height="2" fill="#3a7596"/><rect x="68" y="68" width="12" height="2" fill="#3a7596"/><rect x="59" y="68" width="7" height="2" fill="#3a7596"/><rect x="55" y="68" width="2" height="2" fill="#3a7596"/><rect x="162" y="57" width="8" height="2" fill="#3a7596"/><rect x="172" y="57" width="2" height="2" fill="#3a7596"/><rect x="173" y="91" width="10" height="2" fill="#3a7596"/><rect x="185" y="91" width="6" height="2" fill="#3a7596"/><rect x="193" y="91" width="2" height="2" fill="#3a7596"/><rect x="52" y="89" width="31" height="2" fill="#3a7596"/><rect x="38" y="89" width="12" height="2" fill="#3a7596"/><rect x="34" y="89" width="2" height="2" fill="#3a7596"/><rect x="37" y="79" width="29" height="2" fill="#3a7596"/><rect x="29" y="79" width="6" height="2" fill="#3a7596"/><rect x="25" y="79" width="2" height="2" fill="#3a7596"/><rect x="175" y="63" width="21" height="2" fill="#3a7596"/><rect x="198" y="63" width="11" height="2" fill="#3a7596"/><rect x="211" y="63" width="2" height="2" fill="#3a7596"/><rect x="190" y="78" width="23" height="2" fill="#3a7596"/><rect x="215" y="78" width="2" height="2" fill="#3a7596"/><rect x="219" y="78" width="2" height="2" fill="#3a7596"/><rect x="223" y="78" width="2" height="2" fill="#3a7596"/><rect x="227" y="78" width="2" height="2" fill="#3a7596"/><rect x="126.61" y="40.24" width="1.15" height="1.15" transform="translate(8.39 101.89) rotate(-45)" fill="#3a7596"/><rect x="124.98" y="41.86" width="1.15" height="1.15" transform="translate(6.77 101.21) rotate(-45)" fill="#3a7596"/><rect x="126.61" y="41.86" width="1.15" height="1.15" transform="translate(7.24 102.36) rotate(-45)" fill="#3a7596"/><rect x="124.98" y="40.24" width="1.15" height="1.15" transform="translate(7.92 100.74) rotate(-45)" fill="#3a7596"/><circle cx="116.3" cy="104.7" r="2.3" fill="#3a7596"/><circle cx="116.3" cy="104.7" r="1.15" fill="#f5f4f1"/><rect x="101.01" y="45" width="3" height="2" fill="#3a7596"/><rect x="97.12" y="47.25" width="3" height="2" transform="matrix(0.5, -0.87, 0.87, 0.5, 7.52, 109.53)" fill="#3a7596"/><rect x="97.62" y="51.25" width="2" height="3" transform="translate(-13.16 56.38) rotate(-30)" fill="#3a7596"/><rect x="101.01" y="54" width="3" height="2" fill="#3a7596"/><rect x="104.91" y="51.75" width="3" height="2" transform="translate(7.52 118.53) rotate(-60)" fill="#3a7596"/><rect x="105.41" y="46.75" width="2" height="3" transform="translate(-9.87 59.67) rotate(-30)" fill="#3a7596"/><rect x="187.65" y="39.92" width="3.45" height="1.15" transform="translate(26.83 145.77) rotate(-45)" fill="#3a7596"/><rect x="182.77" y="44.8" width="3.45" height="1.15" transform="translate(21.95 143.75) rotate(-45)" fill="#3a7596"/><rect x="188.8" y="43.65" width="1.15" height="3.45" transform="translate(23.38 147.2) rotate(-45)" fill="#3a7596"/><rect x="183.92" y="38.77" width="1.15" height="3.45" transform="translate(25.4 142.32) rotate(-45)" fill="#3a7596"/><rect x="228" y="56" width="2" height="2" fill="#3a7596"/><rect x="231" y="59" width="2" height="2" fill="#3a7596"/><rect x="234" y="62" width="2" height="2" fill="#3a7596"/><rect x="234" y="56" width="2" height="2" fill="#3a7596"/><rect x="76" y="76" width="2" height="2" fill="#3a7596"/><rect x="76" y="79" width="2" height="2" fill="#3a7596"/><rect x="76" y="82" width="2" height="2" fill="#3a7596"/><rect x="79" y="79" width="2" height="2" fill="#3a7596"/><rect x="82" y="79" width="2" height="2" fill="#3a7596"/><path d="M156.89,33.87a2.3,2.3,0,1,0,2.3,2.3A2.3,2.3,0,0,0,156.89,33.87Zm0,3.45A1.15,1.15,0,1,1,158,36.17,1.15,1.15,0,0,1,156.89,37.32Z" fill="#3a7596"/><rect x="164.7" y="42.6" width="1.15" height="1.15" fill="#3a7596"/><rect x="164.7" y="44.9" width="1.15" height="1.15" fill="#3a7596"/><rect x="165.85" y="43.75" width="1.15" height="1.15" fill="#3a7596"/><rect x="163.55" y="43.75" width="1.15" height="1.15" fill="#3a7596"/><path d="M206,88a3,3,0,1,0,3,3A3,3,0,0,0,206,88Zm0,4a1,1,0,1,1,1-1A1,1,0,0,1,206,92Z" fill="#3a7596"/><path d="M215,88a3,3,0,1,0,3,3A3,3,0,0,0,215,88Zm0,4a1,1,0,1,1,1-1A1,1,0,0,1,215,92Z" fill="#3a7596"/><path d="M224,88a3,3,0,1,0,3,3A3,3,0,0,0,224,88Zm0,4a1,1,0,1,1,1-1A1,1,0,0,1,224,92Z" fill="#3a7596"/><polygon points="202.51 72 201 72 201 69 200.21 69 199 69 199 72 197 72 197 72.95 197 74 199 74 199 75.25 199 76 201 76 201 75.25 201 74 204 74 204 72.95 204 72 202.51 72" fill="#3a7596"/><path d="M54,55V54H51v1H50v3h1v1h3V58h1V55Zm0,2H53v1H52V57H51V56h1V55h1v1h1Z" fill="#3a7596"/><rect x="87" y="95" width="4" height="4" fill="#3a7596"/><rect x="88" y="96" width="2" height="2" fill="#fff"/><rect x="92" y="100" width="4" height="4" fill="#3a7596"/><rect x="93" y="101" width="2" height="2" fill="#fff"/><rect x="97" y="95" width="4" height="4" fill="#3a7596"/><rect x="98" y="96" width="2" height="2" fill="#fff"/><polygon points="182 76 180 76 180 78 178 78 178 80 180 80 180 82 182 82 182 80 184 80 184 78 182 78 182 76" fill="#3a7596"/><path d="M181,72a7,7,0,1,0,7,7A7,7,0,0,0,181,72Zm0,12a5,5,0,1,1,5-5A5,5,0,0,1,181,84Z" fill="#3a7596"/><rect x="181" y="97" width="5" height="2" fill="#3a7596"/><rect x="179" y="99" width="2" height="2" fill="#3a7596"/><rect x="181" y="101" width="5" height="2" fill="#3a7596"/><rect x="52" y="43" width="7" height="2" fill="#3a7596"/><rect x="46" y="43" width="4" height="2" fill="#3a7596"/><rect x="156.61" y="101.98" width="1.15" height="1.15" transform="translate(-26.48 141.2) rotate(-45)" fill="#3a7596"/><rect x="154.98" y="103.61" width="1.15" height="1.15" transform="translate(-28.11 140.51) rotate(-45)" fill="#3a7596"/><rect x="156.61" y="103.61" width="1.15" height="1.15" transform="translate(-27.63 141.66) rotate(-45)" fill="#3a7596"/><rect x="154.98" y="101.98" width="1.15" height="1.15" transform="translate(-26.96 140.05) rotate(-45)" fill="#3a7596"/><rect x="122" y="97" width="14" height="2" fill="#3a7596"/><rect x="138" y="97" width="4" height="2" fill="#3a7596"/><path d="M77,44l2.62,5.24L82.24,44Zm1.62,1h2l-1,2Z" fill="#3a7596"/><polygon points="138.76 110 141.38 104.76 144 110 138.76 110" fill="#3a7596"/><polygon points="141.38 107 140.38 109 142.38 109 141.38 107" fill="#f5f4f1"/><path d="M138,29a2,2,0,0,1-2,2,2,2,0,0,1,2,2,2,2,0,0,1,2-2A2,2,0,0,1,138,29Z" fill="#3a7596"/><path d="M29,94a2,2,0,0,1-2,2,2,2,0,0,1,2,2,2,2,0,0,1,2-2A2,2,0,0,1,29,94Z" fill="#3a7596"/><rect x="132" y="46" width="15" height="2" fill="#3a7596"/><rect x="149" y="46" width="8" height="2" fill="#3a7596"/><rect x="128" y="46" width="2" height="2" fill="#3a7596"/><circle cx="68" cy="97" r="1" fill="#3a7596"/><circle cx="64" cy="97" r="1" fill="#3a7596"/><rect x="216" y="70" width="7" height="2" fill="#3a7596"/><rect x="225" y="70" width="2" height="2" fill="#3a7596"/><rect x="58" y="95" width="2" height="4" fill="#3a7596"/><rect x="57" y="96" width="4" height="2" fill="#3a7596"/><rect x="40.42" y="57.98" width="1.15" height="1.15" transform="translate(-29.4 46.15) rotate(-45)" fill="#3a7596"/><rect x="38.8" y="59.61" width="1.15" height="1.15" transform="translate(-31.03 45.47) rotate(-45)" fill="#3a7596"/><rect x="40.42" y="59.61" width="1.15" height="1.15" transform="translate(-30.55 46.62) rotate(-45)" fill="#3a7596"/><rect x="38.8" y="57.98" width="1.15" height="1.15" transform="translate(-29.88 45) rotate(-45)" fill="#3a7596"/><rect x="217" y="41" width="1" height="1" fill="#3a7596"/><rect x="217" y="43" width="1" height="1" fill="#3a7596"/><rect x="218" y="42" width="1" height="1" fill="#3a7596"/><rect x="216" y="42" width="1" height="1" fill="#3a7596"/><path d="M47,69H46V68H45v2H44v1h2v1h1V70h1V69Zm-.5,1.5h-1v-1h1Z" fill="#3a7596"/><circle cx="25.81" cy="59" r="1" fill="#3a7596"/><rect x="90" y="68" width="2" height="2" fill="#3a7596"/><rect x="167" y="67" width="2" height="2" fill="#3a7596"/><rect x="169" y="69" width="2" height="2" fill="#3a7596"/><rect x="171" y="67" width="2" height="2" fill="#3a7596"/><rect x="91" y="33" width="2" height="2" fill="#3a7596"/><rect x="89" y="35" width="2" height="2" fill="#3a7596"/><rect x="93" y="35" width="2" height="2" fill="#3a7596"/><rect x="91" y="37" width="2" height="2" fill="#3a7596"/><rect x="108" y="97" width="2" height="2" fill="#3a7596"/><text transform="translate(76.99 123.52)" font-size="12" fill="#343b47" font-family="MyriadPro-Regular, Myriad Pro">Click <tspan x="26.15" y="0" letter-spacing="-0.01em">t</tspan><tspan x="30.05" y="0">o </tspan><tspan x="39.18" y="0" letter-spacing="-0.01em">r</tspan><tspan x="42.98" y="0">etu</tspan><tspan x="59.58" y="0" letter-spacing="0em">r</tspan><tspan x="63.55" y="0">n home</tspan></text><text transform="translate(111.53 82)" font-size="24" stroke="#231f20" stroke-miterlimit="10" stroke-width="0.25" font-family="MyriadPro-Regular, Myriad Pro">500</text></svg>