<?xml version="1.0" encoding="utf-8"?>
<!-- Generator: Adobe Illustrator 23.0.1, SVG Export Plug-In . SVG Version: 6.00 Build 0)  -->
<svg version="1.1" id="Layer_1" xmlns="http://www.w3.org/2000/svg" xmlns:xlink="http://www.w3.org/1999/xlink" x="0px" y="0px"
	 viewBox="0 0 393.6 133.2" style="enable-background:new 0 0 393.6 133.2;" xml:space="preserve">
<title>logolarge</title>
<g>
	<g>
		<path d="M0,133L26.9,4.2h26.5L42,58.9l59.6-54.8h35.5L79.3,54.7l42.4,78.3h-30L59.9,71.7l-25,21.9L26.6,133H0z"/>
		<path d="M226.5,84.6l26.7,4c-5.2,14.5-13,25.5-23.5,33.2c-10.4,7.6-22.6,11.5-36.6,11.5c-15.8,0-28.1-4.7-37-14.2
			s-13.3-23.2-13.3-41.3c-0.2-13.9,2.9-27.7,8.9-40.2c5.9-12.2,14.2-21.5,24.7-27.9C186.9,3.2,198.8-0.1,211,0
			c13.9,0,25.2,3.7,33.8,11.2s13.7,17.6,15.2,30.5l-25.4,2.5c-1.4-7.5-4.1-12.9-8.1-16.3c-4-3.4-9.4-5.1-16-5.1
			c-7.4,0-14.6,2.4-20.5,6.7c-6.4,4.4-11.4,11.4-15.3,20.9c-3.7,9-5.6,18.6-5.7,28.3c0,10.3,2.5,18.3,7.4,23.9
			c4.6,5.4,11.4,8.5,18.5,8.4c6.9,0,13.5-2.4,18.9-6.7C219.4,99.9,223.7,93.3,226.5,84.6z"/>
		<path d="M360.1,84.6l26.7,4c-5.2,14.5-13,25.5-23.5,33.2s-22.6,11.5-36.7,11.5c-15.8,0-28.1-4.7-37-14.2
			c-8.9-9.5-13.3-23.2-13.3-41.3c-0.2-13.9,2.9-27.7,8.9-40.2c5.9-12.2,14.2-21.5,24.7-27.9c10.4-6.4,22.3-9.7,34.5-9.6
			c13.9,0,25.2,3.7,33.8,11.2s13.7,17.6,15.2,30.5l-25.4,2.5c-1.4-7.5-4.1-12.9-8.1-16.3c-4-3.4-9.4-5.1-16-5.1
			c-7.4,0-14.6,2.4-20.5,6.7c-6.4,4.4-11.4,11.4-15.3,20.9c-3.7,9-5.7,18.6-5.7,28.3c0,10.3,2.5,18.3,7.4,23.9
			c4.6,5.5,11.4,8.6,18.5,8.4c6.9,0,13.5-2.4,18.8-6.7C353.1,99.9,357.3,93.3,360.1,84.6z"/>
	</g>
</g>
</svg>
