<?xml version="1.0" encoding="utf-8"?>
<!-- Generator: Adobe Illustrator 23.0.1, SVG Export Plug-In . SVG Version: 6.00 Build 0)  -->
<svg version="1.1" id="Layer_1" xmlns="http://www.w3.org/2000/svg" xmlns:xlink="http://www.w3.org/1999/xlink" x="0px" y="0px"
	 viewBox="0 0 230 230" style="enable-background:new 0 0 230 230;" xml:space="preserve">
<style type="text/css">
	.st0{fill:none;}
	.st1{fill:#EEBE1C;}
	.st2{fill:#07B1D3;}
	.st3{fill:#98B43D;}
	.st4{fill:#D82990;}
</style>
<title>logolarge</title>
<g>
	<g>
		<path class="st0" d="M61.9,78.7c-0.2,4.9-0.4,11.1-0.5,14.3c0.1,0.9,0.9,1.5,1.7,1.4c0.1,0,0.3-0.1,0.4-0.1c0.6-0.2,1-0.6,1.1-1.2
			l1.8-11.5l-1.9-1.3C63.8,79.9,62.9,79.4,61.9,78.7z"/>
		<path class="st0" d="M91.1,101.4c-0.4-0.5-0.7-1-1.1-1.4C89.9,100.7,90.4,101.3,91.1,101.4C91.1,101.4,91.1,101.4,91.1,101.4z"/>
		<path class="st0" d="M76.6,93.6c-0.1,1.1,0.8,1.7,2,1.2c0.4-0.2,0.6-0.5,0.7-0.9c0.1-0.5,0.2-1.6,0.4-2.9
			c-0.8-0.6-1.7-1.3-2.6-1.9L76.6,93.6z"/>
		<path class="st0" d="M129.3,201.9L129.3,201.9l0.2-0.3l0.5-0.7l0.4-0.5l0.5-0.6c0.7-0.9,1.4-1.7,2.1-2.4l0.2-0.2l0,0l0.4-0.4
			l0.1-0.1c3.6-3.6,11-9,17.1-13.2l0.2-0.1l0.9-0.6l0.4-0.3l1.2-0.8l0.7-0.5l0.5-0.4l0.7-0.5l0.4-0.3l1.1-0.7c1.7-1.1,4-2.5,6.4-4.1
			l0,0l1.1-0.7l0.2-0.1l1-0.7c3.3-2.1,6.5-4.5,9.5-7c1.3-1,2.4-2.3,3.3-3.7c1.8-3.2-0.8-5.4-2.5-6.4c-2.3-1.4-7.3,0.7-8.5,1.1
			c-0.5,0.1-1.1,0.4-1.7,0.6l0,0c-0.7,0.3-1.5,0.6-2.4,0.9h-0.1l-0.7,0.3l-0.2,0.1l-0.7,0.3l-0.3,0.1l-0.7,0.3l-0.3,0.1l-0.7,0.3
			l-0.3,0.1l-2.5,1.1l-0.4,0.2l-0.6,0.3l-0.5,0.2L155,163l-0.5,0.2l-0.5,0.2l-0.6,0.3l-0.5,0.2l-0.6,0.3l-0.4,0.2l-1,0.5
			c-3.8,1.8-8.2,1.9-12.1,0.5c-2.2-0.8-4.1-2.2-5.6-4l0,0c-0.2-0.2-0.3-0.4-0.5-0.7l-0.2-0.3c-0.1-0.2-0.2-0.4-0.3-0.6
			s-0.2-0.4-0.3-0.6s-0.1-0.3-0.2-0.5c-0.1-0.4-0.3-0.7-0.4-1.1c-1-3.8-1.9-27.5-2.3-32.6c-0.4-4.6-3.2-18-3.2-18
			c0-0.2-0.1-0.4-0.2-0.7c0-0.1,0-0.1-0.1-0.2l-0.1-0.2l-0.2-0.3c0,0,0-0.1-0.1-0.1s-0.2-0.2-0.3-0.3l-0.2-0.2l-0.2-0.2l-0.3-0.3
			l-0.3-0.2l-0.3-0.2c-0.1-0.1-0.2-0.1-0.3-0.2c-0.2-0.1-0.4-0.2-0.7-0.3l0,0c-0.5-0.2-1.1-0.3-1.6-0.3c-0.1,0-0.3,0-0.4,0
			c-2.8,0-5.1,2-4.8,4.4c0,0,0.8,8.2,1,11c0.3,4.2,0.6,14.9,0.8,19.3c-0.1,0.9-0.9,1.5-1.8,1.4c-0.1,0-0.3,0-0.4-0.1
			c-0.6-0.2-1-0.6-1.1-1.2l-3-19.2l-3-16.7c-0.5-2-2.3-3.5-4.4-3.5l0,0c-0.4,0-0.8,0-1.3,0c-2.7,0.3-4.6,2.4-4.3,4.7l0.8,7.6
			l1.3,11.7l0,0l0.2,1.5l1.8,14.4c0.2,1.1-0.8,1.8-2,1.2c-0.4-0.1-0.7-0.5-0.7-0.9c-0.3-2.2-1.9-11.9-3.2-19.2l0,0
			c-0.5-2.4-0.9-4.6-1.3-6.1c-0.5-1.9-2.4-7.6-2.4-7.6c-0.6-2-3.1-3.2-5.5-2.6c-1.8,0.4-3.1,1.9-3.1,3.7l0.2,4.3
			c0,0,0.4,12.5,1,16.6c0.5,3.6,2.6,12.6,3.6,16.7c0.2,0.9-0.5,1.6-1.5,1.6c-0.6,0-1.2-0.4-1.4-1l-7.1-24c-0.5-1.5-2-2.5-3.7-2.4
			c-2.2,0-3.8,1.6-3.5,3.4c0,0,3.4,24.7,5,32.9c2,11.1,1.8,23,6.8,38c0.3,0.9,0.7,1.7,1.1,2.5c2.3,3.8,3.5,8.2,3.6,12.6V230H125v-14
			C125,211,126.5,206.1,129.3,201.9z"/>
		<polygon class="st1" points="100.6,122.9 99.3,111.3 100.6,122.9 		"/>
		<path class="st1" d="M88.4,208.7c-0.1-4.4-1.3-8.8-3.6-12.6c-0.4-0.8-0.8-1.6-1.1-2.5c-5-14.9-4.7-26.9-6.8-38
			c-1.5-8.2-5-32.9-5-32.9c-0.3-1.8,1.3-3.4,3.5-3.4c1.6-0.1,3.1,0.9,3.7,2.4l7.1,24c0.2,0.6,0.8,1,1.4,1c1,0,1.7-0.7,1.5-1.6
			c-1-4.1-3.1-13.1-3.6-16.7c-0.6-4.1-1-16.6-1-16.6l-0.2-4.3c0-1.8,1.3-3.4,3.1-3.7c2.4-0.6,4.8,0.6,5.5,2.6c0,0,1.9,5.7,2.4,7.6
			c0.4,1.5,0.8,3.6,1.3,6.1v-2.9c-0.1-5.7-2-11.2-5.5-15.7c-0.7-0.1-1.2-0.8-1.1-1.5c0,0,0,0,0,0c-0.6-0.7-1.3-1.4-2-2.1
			c0,0-0.1-0.1-0.1-0.1c-2.6-2.4-5.3-4.7-8.1-6.7c-0.2,1.3-0.4,2.3-0.4,2.9c-0.1,0.4-0.4,0.7-0.7,0.9c-1.2,0.5-2.1-0.1-2-1.2
			l0.6-4.5c-3.8-2.8-7.7-5.4-10.7-7.4l-1.8,11.5c-0.1,0.6-0.5,1-1.1,1.2c-0.8,0.3-1.7-0.1-2.1-0.9c-0.1-0.1-0.1-0.3-0.1-0.4
			c0.1-3.1,0.3-9.4,0.5-14.3c-3.1-2-7.1-4.6-10.5-6.9c-0.6,3.2-1.1,6.3-1.2,8c-0.4,5.1-1.4,28.8-2.3,32.6c-1.1,3.6-3.8,6.5-7.4,7.8
			c-3.9,1.4-8.3,1.3-12.1-0.5c-5.8-2.7-13.1-6-16.8-7.1c-1.2-0.4-6.2-2.4-8.5-1.1c-1.6,1-4.3,3.2-2.5,6.3c0.9,1.4,2,2.6,3.3,3.7
			c4,3.6,13.6,9.6,18.3,12.6c6.2,4,18.3,12.4,23.3,17.3l0.1,0.1c5.5,5.4,8.6,12.2,8.6,19.3V230h34.1V208.7z"/>
		<path class="st1" d="M102.9,99c0.4,0,0.8,0,1.3,0l0,0C103.7,99,103.3,99,102.9,99z"/>
		<path class="st1" d="M58.3,58.3c-1.2,0-2.3,0.3-3.2,1c2.1,0.8,5,2,8.1,3.3C63.3,60.3,61.1,58.3,58.3,58.3z"/>
		<path class="st1" d="M79.8,67.3l0.1-1.3l0.8-7.6c0.1-2.5-1.8-4.6-4.3-4.7c-2.8-0.3-5.2,1.3-5.7,3.5l-1.5,8l1.5,0.7
			C73.5,67.3,76.7,67.8,79.8,67.3z"/>
		<path class="st1" d="M90.3,58.8c0-0.1,0-0.2,0.1-0.4c-1.8-0.1-3.4,1-4.1,2.7c0,0-0.8,2.3-1.5,4.5C87.4,64.2,89.4,61.7,90.3,58.8z"
			/>
		<path class="st2" d="M154.8,180.8l-0.5,0.4L154.8,180.8z"/>
		<path class="st2" d="M133.9,47.7c0.6,0,1.2-0.4,1.4-1l1.8-6c-0.3-1.4-0.5-2.6-0.8-3.5s-0.6-2.3-1.1-3.7c-0.9,4.2-2.2,9.6-2.9,12.6
			C132.1,47,132.8,47.8,133.9,47.7z"/>
		<path class="st2" d="M133,197.3c-0.8,0.8-1.5,1.6-2.1,2.4C131.5,198.9,132.2,198.1,133,197.3z"/>
		<path class="st2" d="M151.9,182.7l-0.9,0.6L151.9,182.7z"/>
		<path class="st2" d="M160.8,160.5l0.7-0.3L160.8,160.5z"/>
		<path class="st2" d="M142.5,22.7c-1.9,0.6-3.1,2.4-3,4.4l0.4,4.1l2.5-8.4C142.4,22.8,142.5,22.7,142.5,22.7z"/>
		<path class="st2" d="M162.8,159.6l0.7-0.3L162.8,159.6z"/>
		<path class="st2" d="M161.8,160l0.7-0.3L161.8,160z"/>
		<path class="st2" d="M164.6,174.5l-1.1,0.7L164.6,174.5z"/>
		<path class="st2" d="M163.4,175.2c-2.4,1.6-4.7,3-6.4,4.1C158.7,178.3,161,176.8,163.4,175.2z"/>
		<path class="st2" d="M165.7,173.7l-1,0.7L165.7,173.7z"/>
		<path class="st2" d="M155.9,180l-0.4,0.3L155.9,180z"/>
		<path class="st2" d="M124.4,104.7L124.4,104.7l0.3,0.3l-0.1-0.1L124.4,104.7z"/>
		<path class="st2" d="M150.8,183.5c-6.1,4.2-13.5,9.6-17.1,13.2l-0.1,0.1l-0.4,0.4V230h6v-38.1C142.7,189.1,147,186,150.8,183.5z"
			/>
		<path class="st2" d="M123,103.9L123,103.9L123,103.9c0.1,0.1,0.4,0.2,0.6,0.3C123.4,104.1,123.2,104,123,103.9z"/>
		<path class="st2" d="M125.4,106l0.1,0.2l0,0C125.5,106.2,125.5,106.1,125.4,106z"/>
		<path class="st2" d="M125,105.3c0.1,0.1,0.2,0.2,0.3,0.3s0,0,0,0S125,105.4,125,105.3z"/>
		<path class="st2" d="M129.3,201.9c0-0.1,0.1-0.2,0.2-0.3L129.3,201.9L129.3,201.9z"/>
		<path class="st2" d="M124.1,104.5l-0.3-0.2L124.1,104.5z"/>
		<path class="st2" d="M130.4,200.4l-0.4,0.5L130.4,200.4z"/>
		<path class="st2" d="M140.8,83.6c1.4,0.3,2.5,1.2,2.9,2.6c0,0,1.9,5.7,2.4,7.6c1.4,5.8,4,22.3,4.5,25.3c0.1,0.4,0.4,0.7,0.7,0.9
			c1.2,0.5,2.1-0.1,2-1.2l-1.8-14.4l-1.4-13.2l-0.8-7.6c-0.1-2.5,1.8-4.6,4.3-4.7c2.8-0.3,5.2,1.3,5.6,3.5l3,16.7l3,19.2
			c0.1,0.6,0.5,1,1.1,1.2c0.8,0.3,1.7-0.1,2.1-0.9c0.1-0.1,0.1-0.3,0.1-0.4c-0.1-4.4-0.5-15.1-0.7-19.3c-0.2-2.8-1-11-1-11
			c-0.2-2.4,2-4.4,4.8-4.4c0.6,0,1.1,0.1,1.7,0.2c-0.5-0.8-0.8-1.7-1-2.6c-1-3.8-1.9-27.5-2.3-32.6c-0.4-4.5-3.2-18-3.2-18
			c-0.4-2-2.5-3.5-4.9-3.5c-2.8,0-5.1,2.1-4.8,4.4c0,0,0.8,8.2,1,11c0.3,4.2,0.6,14.9,0.7,19.3c-0.1,0.9-0.9,1.5-1.8,1.4
			c-0.1,0-0.3,0-0.4-0.1c-0.6-0.2-1-0.6-1.1-1.2l-3-19.2l-3-16.7c0-0.2-0.1-0.3-0.1-0.5c-0.8,5.6-3.4,24.4-4.7,31.3
			C143.1,64.9,142.9,73.6,140.8,83.6z"/>
		<path class="st2" d="M165.9,158.4c-0.7,0.3-1.5,0.6-2.4,0.9C164.4,159,165.2,158.7,165.9,158.4z"/>
		<path class="st2" d="M180.4,115.1c5.7-4.5,13.2-9.6,17.6-12.4c4.7-3,14.3-9,18.3-12.6c1.3-1,2.4-2.3,3.3-3.7
			c1.8-3.2-0.8-5.4-2.5-6.3c-2.3-1.3-7.3,0.7-8.5,1.1c-3.7,1.2-11,4.4-16.8,7.2c-3.8,1.8-8.2,2-12.1,0.5c-1.1-0.4-2.1-1-3.1-1.7
			c0.4,1.8,2.8,13.6,3.1,17.8C179.9,106.7,180.1,110.6,180.4,115.1z"/>
		<path class="st2" d="M153.5,181.6l-1.2,0.8L153.5,181.6z"/>
		<path class="st2" d="M156.1,162.5l0.6-0.3L156.1,162.5z"/>
		<path class="st2" d="M152.9,164l0.5-0.2L152.9,164z"/>
		<path class="st2" d="M121.3,103.6c0.6,0,1.1,0.1,1.6,0.3C122.4,103.7,121.8,103.6,121.3,103.6z"/>
		<path class="st2" d="M155,163l0.6-0.3L155,163z"/>
		<path class="st2" d="M138.5,126.5c1,0,1.8-0.7,1.5-1.6c-1-4.1-3.1-13.1-3.6-16.7c-0.3-1.9-0.5-5.6-0.7-9
			c-1.6,3.3-2.5,6.9-2.5,10.6v2.7l3.9,13.1C137.3,126.1,137.9,126.5,138.5,126.5z"/>
		<path class="st2" d="M154,163.5l0.5-0.2L154,163.5z"/>
		<path class="st2" d="M157.1,162.1l2.5-1.1L157.1,162.1z"/>
		<path class="st2" d="M159.8,160.9l0.7-0.3L159.8,160.9z"/>
		<path class="st2" d="M151.9,164.5l0.4-0.2L151.9,164.5z"/>
		<path class="st3" d="M99.8,139.1c0.1,0.4,0.4,0.7,0.7,0.9c1.2,0.5,2.1-0.1,2-1.2l-1.8-14.4l-0.2-1.5c-0.4,3.6-0.9,7.3-1.6,11.3
			c-0.7-4-1.6-9.6-2.4-14.2l0,0C98,127.2,99.5,137,99.8,139.1z"/>
		<path class="st3" d="M125.3,105.8l0.2,0.3L125.3,105.8C125.3,105.8,125.3,105.8,125.3,105.8z"/>
		<path class="st3" d="M125,216v14h4.4v-28.1C126.6,206.1,125,211,125,216z"/>
		<path class="st3" d="M149.4,25.4c0.1-1,0.2-1.6,0.2-1.6c0.3-1.8-1.4-3.4-3.5-3.4c-1.6-0.1-3,0.8-3.6,2.3c0.4-0.2,0.9-0.3,1.4-0.3
			C146.2,22,148.5,23.3,149.4,25.4z"/>
		<path class="st3" d="M141.5,63.4c1.2,0.5,2.1-0.1,2-1.2l-1.8-14.4l-1.4-13.2l-0.4-3.5l-2.9,9.6c1.4,7.2,3.4,19.3,3.7,21.7
			C140.9,62.9,141.2,63.2,141.5,63.4z"/>
		<path class="st3" d="M133,197.3l0.2-0.2l0,0L133,197.3z"/>
		<path class="st3" d="M125.6,106.4c0.1,0.2,0.1,0.4,0.2,0.7C125.7,106.8,125.7,106.6,125.6,106.4L125.6,106.4z"/>
		<path class="st3" d="M124.8,105.1l0.2,0.2C124.9,105.3,124.9,105.2,124.8,105.1C124.8,105.2,124.8,105.1,124.8,105.1z"/>
		<path class="st3" d="M130.9,199.8l-0.5,0.6L130.9,199.8z"/>
		<path class="st3" d="M130,200.9l-0.5,0.7L130,200.9z"/>
		<polygon class="st3" points="133.2,161.4 133.2,161.4 133.2,161.4 		"/>
		<path class="st3" d="M62.2,73.7c-0.1,1.2-0.2,3-0.3,5c1,0.6,1.9,1.2,2.6,1.7l1.9,1.3l1.2-7.7l1.6-8.6c-2-0.9-4-1.8-6.1-2.7v0.1
			C63.2,62.7,62.4,71,62.2,73.7z"/>
		<path class="st3" d="M132.7,160.8l-0.2-0.3L132.7,160.8z"/>
		<path class="st3" d="M91.7,58.5c1.8,0.4,3,1.9,3.1,3.7l-0.2,4.3c0,0-0.4,12.5-1,16.6C93.1,86.8,91,95.7,90,99.8c0,0,0,0.1,0,0.1
			c0.4,0.5,0.8,0.9,1.1,1.4c0.1,0,0.3,0,0.4,0c0.6,0,1.2-0.4,1.4-1l7.1-24c0.5-1.5,2-2.5,3.7-2.4c2.2,0,3.8,1.7,3.5,3.4
			c0,0-1.6,11.5-3.1,21.5c2.1,0.1,3.9,1.5,4.4,3.6l3,16.7l3,19.2c0.1,0.6,0.5,1,1.1,1.2c0.8,0.3,1.8-0.1,2.1-0.9
			c0.1-0.1,0.1-0.3,0.1-0.4c-0.1-4.4-0.5-15.1-0.8-19.3c-0.2-2.8-1-11-1-11c-0.2-2.4,2-4.4,4.8-4.4c0.1,0,0.3,0,0.4,0l0,0
			c-1.6-9-2-17-3.3-24.5c-1.5-8.2-5-32.9-5-32.9c-0.3-1.8,1.4-3.4,3.5-3.4c1.6-0.1,3.1,0.9,3.7,2.4l7.1,24c0.2,0.6,0.8,1,1.4,1
			c1.1,0,1.8-0.7,1.5-1.6c-1-4.1-3.1-13.1-3.6-16.7c-0.6-4.1-1-16.6-1-16.6l-0.2-4.3c0-1.8,1.3-3.4,3.1-3.7c2.4-0.6,4.8,0.6,5.5,2.5
			c0,0,0.6,1.9,1.3,3.9c0.3-1.6,0.6-3.1,0.8-4.1c0.6-4.1,1-16.6,1-16.6l0.2-4.3c0-1.8-1.3-3.4-3.1-3.7c-2.4-0.6-4.8,0.6-5.5,2.6
			c0,0-1.9,5.7-2.4,7.6c-1.4,5.8-4,22.3-4.5,25.3c-0.1,0.4-0.4,0.7-0.7,0.9c-1.2,0.5-2.1-0.1-2-1.2l1.8-14.4l1.4-13.2l0.8-7.5
			c0.1-2.5-1.8-4.6-4.3-4.7c-2.8-0.3-5.2,1.3-5.6,3.5l-3,16.7l-3,19.2c-0.1,0.6-0.5,1.1-1.1,1.2c-0.8,0.3-1.8-0.1-2.1-0.9
			c0-0.1-0.1-0.3-0.1-0.4c0.1-4.4,0.5-15.1,0.7-19.3c0.2-2.8,1-11,1-11c0.2-2.4-2-4.4-4.8-4.4c-2.5,0-4.6,1.5-4.9,3.5
			c0,0-2.8,13.5-3.2,18c-0.4,5-1.3,27.5-2.2,32.2C90.8,58.4,91.3,58.4,91.7,58.5z"/>
		<path class="st3" d="M132.2,159.8c-0.1-0.2-0.2-0.4-0.3-0.6C132,159.5,132.1,159.6,132.2,159.8z"/>
		<path class="st3" d="M55.1,59.3l-1.2-0.4c-1.2-0.4-6.2-2.5-8.5-1.1c-1.6,1-4.3,3.2-2.5,6.4c0.9,1.4,2,2.6,3.3,3.7
			c1.6,1.4,3.4,2.8,5.2,4c0.9-5,2-10,2-10C53.6,60.8,54.2,59.9,55.1,59.3z"/>
		<path class="st3" d="M131.7,158.8c-0.1-0.4-0.3-0.7-0.4-1.1C131.4,158.1,131.5,158.4,131.7,158.8z"/>
		<path class="st3" d="M122.9,103.9"/>
		<path class="st3" d="M77.2,89.1c0.9,0.6,1.8,1.3,2.6,1.9c0.9-5.8,2.9-17.7,4-22.4c0.2-0.7,0.5-1.9,0.9-3.1
			c-0.6,0.4-1.3,0.7-1.9,0.9c-1,0.4-2,0.6-3.1,0.8l-1.3,11.9L77.2,89.1z"/>
		<path class="st1" d="M62.2,73.7c0.2-2.8,1-11,1-11v-0.1c-3-1.3-5.9-2.6-8.1-3.3c-0.9,0.6-1.5,1.5-1.7,2.5c0,0-1.1,5-2,10
			c3.4,2.4,7.4,4.9,10.5,6.9C62,76.7,62.1,74.9,62.2,73.7z"/>
		<path class="st3" d="M62.2,73.7c0.2-2.8,1-11,1-11v-0.1c-3-1.3-5.9-2.6-8.1-3.3c-0.9,0.6-1.5,1.5-1.7,2.5c0,0-1.1,5-2,10
			c3.4,2.4,7.4,4.9,10.5,6.9C62,76.7,62.1,74.9,62.2,73.7z"/>
		<path class="st1" d="M100.6,122.9l-1.3-11.7l-0.8-7.6c-0.2-2.3,1.6-4.4,4.3-4.7c0.4,0,0.8,0,1.3,0c1.5-9.9,3.1-21.5,3.1-21.5
			c0.3-1.8-1.3-3.4-3.5-3.4c-1.6-0.1-3.1,0.9-3.7,2.4l-7.1,24c-0.2,0.6-0.8,1-1.4,1c-0.1,0-0.3,0-0.4,0c3.5,4.5,5.4,10,5.5,15.7v2.9
			c0.8,4.6,1.8,10.2,2.4,14.2C99.7,130.3,100.2,126.5,100.6,122.9z"/>
		<path class="st3" d="M100.6,122.9l-1.3-11.7l-0.8-7.6c-0.2-2.3,1.6-4.4,4.3-4.7c0.4,0,0.8,0,1.3,0c1.5-9.9,3.1-21.5,3.1-21.5
			c0.3-1.8-1.3-3.4-3.5-3.4c-1.6-0.1-3.1,0.9-3.7,2.4l-7.1,24c-0.2,0.6-0.8,1-1.4,1c-0.1,0-0.3,0-0.4,0c3.5,4.5,5.4,10,5.5,15.7v2.9
			c0.8,4.6,1.8,10.2,2.4,14.2C99.7,130.3,100.2,126.5,100.6,122.9z"/>
		<path class="st1" d="M66.5,81.7c3.1,2,7,4.7,10.7,7.4l1.2-9.9l1.3-11.9c-3.1,0.4-6.2,0-9-1.3l-1.5-0.7L67.7,74L66.5,81.7z"/>
		<path class="st3" d="M66.5,81.7c3.1,2,7,4.7,10.7,7.4l1.2-9.9l1.3-11.9c-3.1,0.4-6.2,0-9-1.3l-1.5-0.7L67.7,74L66.5,81.7z"/>
		<path class="st1" d="M79.8,91c2.8,2.1,5.5,4.3,8.1,6.7c0,0,0.1,0.1,0.1,0.1c0.7,0.7,1.4,1.4,2,2.1c0,0,0-0.1,0-0.1
			c1-4.1,3.1-13.1,3.6-16.7c0.6-4.1,1-16.6,1-16.6l0.2-4.3c0-1.8-1.3-3.4-3.1-3.7c-0.4-0.1-0.9-0.1-1.4-0.1c0,0.1-0.1,0.3-0.1,0.4
			c-0.8,2.9-2.8,5.4-5.5,6.8c-0.4,1.2-0.7,2.4-0.9,3.1C82.7,73.4,80.8,85.2,79.8,91z"/>
		<path class="st3" d="M79.8,91c2.8,2.1,5.5,4.3,8.1,6.7c0,0,0.1,0.1,0.1,0.1c0.7,0.7,1.4,1.4,2,2.1c0,0,0-0.1,0-0.1
			c1-4.1,3.1-13.1,3.6-16.7c0.6-4.1,1-16.6,1-16.6l0.2-4.3c0-1.8-1.3-3.4-3.1-3.7c-0.4-0.1-0.9-0.1-1.4-0.1c0,0.1-0.1,0.3-0.1,0.4
			c-0.8,2.9-2.8,5.4-5.5,6.8c-0.4,1.2-0.7,2.4-0.9,3.1C82.7,73.4,80.8,85.2,79.8,91z"/>
		<path class="st2" d="M125.8,107c0-0.2-0.1-0.4-0.2-0.6C125.7,106.6,125.7,106.8,125.8,107z"/>
		<path class="st3" d="M125.8,107c0-0.2-0.1-0.4-0.2-0.6C125.7,106.6,125.7,106.8,125.8,107z"/>
		<path class="st2" d="M133,197.3c-0.8,0.8-1.5,1.6-2.1,2.4l-0.5,0.6l-0.4,0.5l-0.5,0.7c-0.1,0.1-0.1,0.2-0.2,0.3V230h3.9v-32.9
			L133,197.3z"/>
		<path class="st3" d="M133,197.3c-0.8,0.8-1.5,1.6-2.1,2.4l-0.5,0.6l-0.4,0.5l-0.5,0.7c-0.1,0.1-0.1,0.2-0.2,0.3V230h3.9v-32.9
			L133,197.3z"/>
		<path class="st2" d="M128.5,27.1c-1.8,0.4-3,1.9-3.1,3.7l0.2,4.3c0,0,0.4,12.5,1,16.6c0.5,3.6,2.6,12.6,3.6,16.7
			c0.2,0.9-0.5,1.6-1.5,1.6c-0.6,0-1.2-0.4-1.4-1l-7.1-24c-0.5-1.5-2-2.5-3.7-2.4c-2.2,0-3.8,1.6-3.5,3.4c0,0,3.4,24.7,5,32.9
			c1.4,7.5,1.7,15.5,3.3,24.5l0,0c0.6,0,1.1,0.1,1.6,0.3l0,0h0.1c-0.1-0.8-0.2-1.3-0.2-1.3c-0.3-1.8,1.3-3.4,3.5-3.4
			c1.6-0.1,3.1,0.9,3.7,2.4l3.2,10.9v-2.7c0-3.7,0.9-7.3,2.5-10.6c-0.2-4-0.3-7.6-0.3-7.6l-0.1-4.3c0-1.8,1.3-3.4,3.1-3.7
			c0.8-0.2,1.7-0.2,2.5,0c2-10,2.3-18.7,3.8-26.9c1.3-6.9,3.9-25.7,4.7-31.3c-0.9-2.2-3.2-3.5-5.5-3.1c-0.5,0.1-0.9,0.2-1.4,0.3
			c0,0,0,0.1-0.1,0.1L140,31l0.4,3.4l1.4,13.2l1.8,14.4c0.1,1.1-0.8,1.8-2,1.2c-0.4-0.1-0.7-0.5-0.7-0.9c-0.4-2.4-2.3-14.5-3.7-21.7
			l-1.8,6c-0.2,0.6-0.8,1-1.4,1c-1.1,0-1.7-0.7-1.5-1.6c0.7-3,2-8.4,2.9-12.6c-0.6-2-1.3-3.9-1.3-3.9
			C133.3,27.7,130.9,26.5,128.5,27.1z"/>
		<path class="st3" d="M128.5,27.1c-1.8,0.4-3,1.9-3.1,3.7l0.2,4.3c0,0,0.4,12.5,1,16.6c0.5,3.6,2.6,12.6,3.6,16.7
			c0.2,0.9-0.5,1.6-1.5,1.6c-0.6,0-1.2-0.4-1.4-1l-7.1-24c-0.5-1.5-2-2.5-3.7-2.4c-2.2,0-3.8,1.6-3.5,3.4c0,0,3.4,24.7,5,32.9
			c1.4,7.5,1.7,15.5,3.3,24.5l0,0c0.6,0,1.1,0.1,1.6,0.3l0,0h0.1c-0.1-0.8-0.2-1.3-0.2-1.3c-0.3-1.8,1.3-3.4,3.5-3.4
			c1.6-0.1,3.1,0.9,3.7,2.4l3.2,10.9v-2.7c0-3.7,0.9-7.3,2.5-10.6c-0.2-4-0.3-7.6-0.3-7.6l-0.1-4.3c0-1.8,1.3-3.4,3.1-3.7
			c0.8-0.2,1.7-0.2,2.5,0c2-10,2.3-18.7,3.8-26.9c1.3-6.9,3.9-25.7,4.7-31.3c-0.9-2.2-3.2-3.5-5.5-3.1c-0.5,0.1-0.9,0.2-1.4,0.3
			c0,0,0,0.1-0.1,0.1L140,31l0.4,3.4l1.4,13.2l1.8,14.4c0.1,1.1-0.8,1.8-2,1.2c-0.4-0.1-0.7-0.5-0.7-0.9c-0.4-2.4-2.3-14.5-3.7-21.7
			l-1.8,6c-0.2,0.6-0.8,1-1.4,1c-1.1,0-1.7-0.7-1.5-1.6c0.7-3,2-8.4,2.9-12.6c-0.6-2-1.3-3.9-1.3-3.9
			C133.3,27.7,130.9,26.5,128.5,27.1z"/>
		<path class="st2" d="M125.3,105.8l0.1,0.2c0,0.1,0,0.1,0.1,0.2C125.5,106,125.4,106,125.3,105.8z"/>
		<path class="st3" d="M125.3,105.8l0.1,0.2c0,0.1,0,0.1,0.1,0.2C125.5,106,125.4,106,125.3,105.8z"/>
		<path class="st2" d="M124.4,104.7l0.2,0.1L124.4,104.7z"/>
		<path class="st3" d="M124.4,104.7l0.2,0.1L124.4,104.7z"/>
		<path class="st2" d="M124.8,105.2c0,0.1,0.1,0.1,0.1,0.2c0.1,0.1,0.2,0.2,0.2,0.3C125.1,105.4,125,105.3,124.8,105.2z"/>
		<path class="st3" d="M124.8,105.2c0,0.1,0.1,0.1,0.1,0.2c0.1,0.1,0.2,0.2,0.2,0.3C125.1,105.4,125,105.3,124.8,105.2z"/>
		<path class="st4" d="M150.9,164.9l1-0.5L150.9,164.9z"/>
		<path class="st4" d="M153.4,163.8l0.6-0.3L153.4,163.8z"/>
		<path class="st4" d="M155.6,162.8l0.5-0.2L155.6,162.8z"/>
		<path class="st4" d="M154.5,163.3l0.5-0.2L154.5,163.3z"/>
		<path class="st4" d="M176.6,87.2v-0.3c-0.4-1.6-1.6-2.9-3.2-3.3C174.2,85,175.3,86.2,176.6,87.2z"/>
		<path class="st4" d="M157,179.3l-1.1,0.7L157,179.3z"/>
		<path class="st4" d="M161.5,160.2l0.3-0.1L161.5,160.2z"/>
		<path class="st4" d="M163.5,159.3h0.1H163.5z"/>
		<path class="st4" d="M163.5,175.2L163.5,175.2z"/>
		<path class="st4" d="M162.5,159.7l0.2-0.1L162.5,159.7z"/>
		<path class="st4" d="M164.7,174.4l-0.2,0.1L164.7,174.4z"/>
		<path class="st4" d="M160.6,160.6l0.3-0.1L160.6,160.6z"/>
		<path class="st4" d="M152.3,182.4l-0.4,0.3L152.3,182.4z"/>
		<path class="st4" d="M154.3,181.1l-0.7,0.5L154.3,181.1z"/>
		<path class="st4" d="M156.7,162.3l0.4-0.2L156.7,162.3z"/>
		<path class="st4" d="M155.5,180.3l-0.7,0.5L155.5,180.3z"/>
		<path class="st4" d="M159.5,161l0.3-0.1L159.5,161z"/>
		<path class="st4" d="M151,183.3l-0.2,0.1L151,183.3z"/>
		<path class="st4" d="M174.6,120.1c-5.5,5.4-8.6,12.2-8.6,19.3v19c0.6-0.2,1.2-0.4,1.7-0.6c1.2-0.4,6.2-2.4,8.5-1.1
			c1.6,1,4.3,3.1,2.5,6.4c-0.9,1.4-2,2.6-3.3,3.7c-3,2.5-6.2,4.9-9.5,7l0.2-0.1V230h9.8v-34.2c0-7.1,3.1-13.9,8.6-19.3l0.1-0.1
			c5-5,17.2-13.4,23.4-17.3c4.7-3,14.3-9,18.3-12.6c1.3-1,2.4-2.3,3.3-3.7c1.8-3.2-0.8-5.4-2.5-6.4c-2.3-1.4-7.3,0.7-8.5,1.1
			c-3.7,1.2-11,4.4-16.8,7.1c-3.8,1.8-8.2,2-12.1,0.5c-3.6-1.2-6.4-4.1-7.4-7.8c-0.6-2.5-1.3-13.7-1.7-22.4
			C178.4,116.7,176.5,118.3,174.6,120.1C174.6,120.1,174.6,120.1,174.6,120.1z"/>
		<path class="st4" d="M123.6,104.2L123.6,104.2c0,0,0.1,0.1,0.2,0.2L123.6,104.2L123.6,104.2z"/>
		<path class="st4" d="M125.2,105.6c0,0.1,0.1,0.1,0.1,0.1C125.3,105.7,125.3,105.7,125.2,105.6
			C125.3,105.7,125.2,105.7,125.2,105.6z"/>
		<path class="st4" d="M124.2,104.6l-0.1-0.1l0.3,0.2l0,0L124.2,104.6z"/>
		<path class="st4" d="M124.7,105l0.2,0.2l0,0L124.7,105z"/>
		<path class="st4" d="M152.3,164.3l0.6-0.3L152.3,164.3z"/>
		<path class="st4" d="M125.5,106.2c0,0,0,0.1,0.1,0.2S125.6,106.4,125.5,106.2C125.6,106.3,125.6,106.3,125.5,106.2z"/>
		<path class="st2" d="M125.2,105.6L125.2,105.6L125.2,105.6z"/>
		<path class="st4" d="M125.2,105.6L125.2,105.6L125.2,105.6z"/>
		<path class="st2" d="M123.7,104.2l0.1,0.1l0.3,0.2l0.1,0.1C124.1,104.5,123.9,104.4,123.7,104.2z"/>
		<path class="st4" d="M123.7,104.2l0.1,0.1l0.3,0.2l0.1,0.1C124.1,104.5,123.9,104.4,123.7,104.2z"/>
		<path class="st2" d="M124.5,104.9l0.1,0.1l0.1,0.1L124.5,104.9z"/>
		<path class="st4" d="M124.5,104.9l0.1,0.1l0.1,0.1L124.5,104.9z"/>
		<polygon class="st2" points="124.4,104.7 124.4,104.7 124.4,104.7 		"/>
		<polygon class="st4" points="124.4,104.7 124.4,104.7 124.4,104.7 		"/>
		<path class="st2" d="M123.5,104.2L123.5,104.2c-0.1-0.1-0.3-0.2-0.6-0.3l0,0C123.2,104,123.4,104.1,123.5,104.2z"/>
		<path class="st4" d="M123.5,104.2L123.5,104.2c-0.1-0.1-0.3-0.2-0.6-0.3l0,0C123.2,104,123.4,104.1,123.5,104.2z"/>
		<path class="st2" d="M131.9,159.3c-0.1-0.1-0.1-0.3-0.2-0.5C131.7,159,131.8,159.1,131.9,159.3z"/>
		<path class="st4" d="M131.9,159.3c-0.1-0.1-0.1-0.3-0.2-0.5C131.7,159,131.8,159.1,131.9,159.3z"/>
		<path class="st2" d="M133.2,161.4c-0.2-0.2-0.3-0.4-0.5-0.7C132.9,161,133,161.2,133.2,161.4z"/>
		<path class="st4" d="M133.2,161.4c-0.2-0.2-0.3-0.4-0.5-0.7C132.9,161,133,161.2,133.2,161.4z"/>
		<path class="st2" d="M125.5,106.2L125.5,106.2C125.5,106.2,125.5,106.3,125.5,106.2C125.5,106.3,125.5,106.2,125.5,106.2z"/>
		<path class="st4" d="M125.5,106.2L125.5,106.2C125.5,106.2,125.5,106.3,125.5,106.2C125.5,106.3,125.5,106.2,125.5,106.2z"/>
		<path class="st2" d="M166.8,87.8c0,0,0.8,8.2,1,11c0.3,4.2,0.6,14.9,0.7,19.3c-0.1,0.9-0.9,1.5-1.7,1.4c-0.1,0-0.3-0.1-0.4-0.1
			c-0.6-0.2-1-0.6-1.1-1.2l-3-19.2l-3-16.7c-0.4-2.2-2.9-3.8-5.6-3.5c-2.5,0.1-4.4,2.2-4.3,4.7l0.8,7.6l1.4,13.2l1.8,14.4
			c0.1,1.1-0.8,1.7-2,1.2c-0.4-0.2-0.6-0.5-0.7-0.9c-0.4-2.9-3.1-19.5-4.5-25.3c-0.5-1.9-2.4-7.6-2.4-7.6c-0.5-1.3-1.6-2.3-2.9-2.6
			c-0.8,3.8-1.7,7.5-2.9,11.1c-0.3,0.9-0.7,1.7-1.1,2.5c-0.4,0.7-0.7,1.3-1.1,2c0.2,3.4,0.4,7.1,0.7,9c0.5,3.6,2.6,12.6,3.6,16.7
			c0.2,0.9-0.5,1.6-1.5,1.6c-0.6,0-1.2-0.4-1.4-1l-3.9-13.1v49c1.5,1.8,3.4,3.2,5.6,4c3.9,1.4,8.3,1.3,12.1-0.5l1-0.5l0.4-0.2
			l0.6-0.3l0.5-0.2l0.6-0.3l0.5-0.2l0.5-0.2l0.6-0.3l0.5-0.2l0.6-0.3l0.4-0.2l2.5-1.1l0.3-0.1l0.7-0.3l0.3-0.1l0.7-0.3l0.3-0.1
			l0.7-0.3l0.2-0.1l0.7-0.3h0.1c0.8-0.3,1.6-0.6,2.4-0.9v-19c0-7.1,3.1-13.9,8.6-19.3c0,0,0.1-0.1,0.1-0.1c1.8-1.7,3.7-3.4,5.8-4.9
			c-0.2-4.5-0.4-8.4-0.6-10.2c-0.3-4.2-2.8-16-3.1-17.8c-1.3-0.9-2.4-2.1-3.3-3.5c-0.5-0.2-1.1-0.2-1.7-0.2
			C168.8,83.4,166.6,85.4,166.8,87.8z"/>
		<path class="st4" d="M166.8,87.8c0,0,0.8,8.2,1,11c0.3,4.2,0.6,14.9,0.7,19.3c-0.1,0.9-0.9,1.5-1.7,1.4c-0.1,0-0.3-0.1-0.4-0.1
			c-0.6-0.2-1-0.6-1.1-1.2l-3-19.2l-3-16.7c-0.4-2.2-2.9-3.8-5.6-3.5c-2.5,0.1-4.4,2.2-4.3,4.7l0.8,7.6l1.4,13.2l1.8,14.4
			c0.1,1.1-0.8,1.7-2,1.2c-0.4-0.2-0.6-0.5-0.7-0.9c-0.4-2.9-3.1-19.5-4.5-25.3c-0.5-1.9-2.4-7.6-2.4-7.6c-0.5-1.3-1.6-2.3-2.9-2.6
			c-0.8,3.8-1.7,7.5-2.9,11.1c-0.3,0.9-0.7,1.7-1.1,2.5c-0.4,0.7-0.7,1.3-1.1,2c0.2,3.4,0.4,7.1,0.7,9c0.5,3.6,2.6,12.6,3.6,16.7
			c0.2,0.9-0.5,1.6-1.5,1.6c-0.6,0-1.2-0.4-1.4-1l-3.9-13.1v49c1.5,1.8,3.4,3.2,5.6,4c3.9,1.4,8.3,1.3,12.1-0.5l1-0.5l0.4-0.2
			l0.6-0.3l0.5-0.2l0.6-0.3l0.5-0.2l0.5-0.2l0.6-0.3l0.5-0.2l0.6-0.3l0.4-0.2l2.5-1.1l0.3-0.1l0.7-0.3l0.3-0.1l0.7-0.3l0.3-0.1
			l0.7-0.3l0.2-0.1l0.7-0.3h0.1c0.8-0.3,1.6-0.6,2.4-0.9v-19c0-7.1,3.1-13.9,8.6-19.3c0,0,0.1-0.1,0.1-0.1c1.8-1.7,3.7-3.4,5.8-4.9
			c-0.2-4.5-0.4-8.4-0.6-10.2c-0.3-4.2-2.8-16-3.1-17.8c-1.3-0.9-2.4-2.1-3.3-3.5c-0.5-0.2-1.1-0.2-1.7-0.2
			C168.8,83.4,166.6,85.4,166.8,87.8z"/>
		<path class="st2" d="M132.5,160.4c-0.1-0.2-0.2-0.4-0.3-0.6C132.3,160,132.4,160.2,132.5,160.4z"/>
		<path class="st4" d="M132.5,160.4c-0.1-0.2-0.2-0.4-0.3-0.6C132.3,160,132.4,160.2,132.5,160.4z"/>
		<path class="st2" d="M165.7,173.7l-1,0.7l-0.2,0.1l-1.1,0.7l0,0c-2.4,1.6-4.7,3-6.4,4.1L156,180l-0.4,0.3l-0.7,0.5l-0.5,0.4
			l-0.7,0.5l-1.2,0.8l-0.4,0.3l-0.9,0.6l-0.2,0.1c-3.8,2.6-8.1,5.6-11.6,8.5V230H166v-56.5L165.7,173.7z"/>
		<path class="st4" d="M165.7,173.7l-1,0.7l-0.2,0.1l-1.1,0.7l0,0c-2.4,1.6-4.7,3-6.4,4.1L156,180l-0.4,0.3l-0.7,0.5l-0.5,0.4
			l-0.7,0.5l-1.2,0.8l-0.4,0.3l-0.9,0.6l-0.2,0.1c-3.8,2.6-8.1,5.6-11.6,8.5V230H166v-56.5L165.7,173.7z"/>
		<path class="st3" d="M124.8,105.1L124.8,105.1L124.8,105.1z"/>
		<path class="st4" d="M124.8,105.1L124.8,105.1L124.8,105.1z"/>
		<path class="st3" d="M125.6,106.3C125.6,106.3,125.6,106.3,125.6,106.3L125.6,106.3L125.6,106.3z"/>
		<path class="st4" d="M125.6,106.3C125.6,106.3,125.6,106.3,125.6,106.3L125.6,106.3L125.6,106.3z"/>
		<path class="st3" d="M125.2,105.7C125.2,105.7,125.2,105.7,125.2,105.7c0,0.1,0,0.1,0,0.1C125.2,105.8,125.2,105.7,125.2,105.7z"
			/>
		<path class="st4" d="M125.2,105.7C125.2,105.7,125.2,105.7,125.2,105.7c0,0.1,0,0.1,0,0.1C125.2,105.8,125.2,105.7,125.2,105.7z"
			/>
		<path class="st3" d="M124.2,104.6l0.1,0.1L124.2,104.6z"/>
		<path class="st4" d="M124.2,104.6l0.1,0.1L124.2,104.6z"/>
		<path class="st3" d="M123.6,104.2L123.6,104.2L123.6,104.2z"/>
		<path class="st4" d="M123.6,104.2L123.6,104.2L123.6,104.2z"/>
		<path class="st2" d="M137.9,94.7c1.2-3.6,2.2-7.3,2.9-11.1c-0.8-0.2-1.7-0.2-2.5,0c-1.8,0.4-3,1.9-3.1,3.7l0.1,4.3
			c0,0,0.1,3.6,0.3,7.6c0.3-0.7,0.7-1.4,1.1-2C137.2,96.4,137.6,95.6,137.9,94.7z"/>
		<path class="st3" d="M137.9,94.7c1.2-3.6,2.2-7.3,2.9-11.1c-0.8-0.2-1.7-0.2-2.5,0c-1.8,0.4-3,1.9-3.1,3.7l0.1,4.3
			c0,0,0.1,3.6,0.3,7.6c0.3-0.7,0.7-1.4,1.1-2C137.2,96.4,137.6,95.6,137.9,94.7z"/>
		<path class="st4" d="M137.9,94.7c1.2-3.6,2.2-7.3,2.9-11.1c-0.8-0.2-1.7-0.2-2.5,0c-1.8,0.4-3,1.9-3.1,3.7l0.1,4.3
			c0,0,0.1,3.6,0.3,7.6c0.3-0.7,0.7-1.4,1.1-2C137.2,96.4,137.6,95.6,137.9,94.7z"/>
		<path class="st2" d="M123.7,104.2c0.2,0.1,0.4,0.2,0.6,0.4l0.1,0.1l0,0l0.2,0.1l0.3,0.3v0.1c0.1,0.1,0.2,0.3,0.3,0.4l0.1,0.1
			c0,0,0.1,0.1,0.1,0.2c0.1,0.1,0.1,0.3,0.2,0.4c0,0,0,0.1,0.1,0.1v0.1c0.1,0.2,0.1,0.4,0.2,0.6c0,0,2.8,13.5,3.2,18
			c0.4,5.1,1.4,28.8,2.3,32.6c0.1,0.4,0.2,0.7,0.4,1.1c0.1,0.2,0.1,0.3,0.2,0.5s0.2,0.4,0.3,0.6s0.2,0.4,0.3,0.6l0.2,0.3
			c0.1,0.2,0.3,0.5,0.5,0.7l0,0v-48.9l-3.1-10.9c-0.5-1.5-2-2.5-3.7-2.4c-2.2,0-3.8,1.6-3.5,3.4c0,0,0.1,0.5,0.2,1.3
			C123.2,104,123.4,104.1,123.7,104.2L123.7,104.2z"/>
		<path class="st3" d="M123.7,104.2c0.2,0.1,0.4,0.2,0.6,0.4l0.1,0.1l0,0l0.2,0.1l0.3,0.3v0.1c0.1,0.1,0.2,0.3,0.3,0.4l0.1,0.1
			c0,0,0.1,0.1,0.1,0.2c0.1,0.1,0.1,0.3,0.2,0.4c0,0,0,0.1,0.1,0.1v0.1c0.1,0.2,0.1,0.4,0.2,0.6c0,0,2.8,13.5,3.2,18
			c0.4,5.1,1.4,28.8,2.3,32.6c0.1,0.4,0.2,0.7,0.4,1.1c0.1,0.2,0.1,0.3,0.2,0.5s0.2,0.4,0.3,0.6s0.2,0.4,0.3,0.6l0.2,0.3
			c0.1,0.2,0.3,0.5,0.5,0.7l0,0v-48.9l-3.1-10.9c-0.5-1.5-2-2.5-3.7-2.4c-2.2,0-3.8,1.6-3.5,3.4c0,0,0.1,0.5,0.2,1.3
			C123.2,104,123.4,104.1,123.7,104.2L123.7,104.2z"/>
		<path class="st4" d="M123.7,104.2c0.2,0.1,0.4,0.2,0.6,0.4l0.1,0.1l0,0l0.2,0.1l0.3,0.3v0.1c0.1,0.1,0.2,0.3,0.3,0.4l0.1,0.1
			c0,0,0.1,0.1,0.1,0.2c0.1,0.1,0.1,0.3,0.2,0.4c0,0,0,0.1,0.1,0.1v0.1c0.1,0.2,0.1,0.4,0.2,0.6c0,0,2.8,13.5,3.2,18
			c0.4,5.1,1.4,28.8,2.3,32.6c0.1,0.4,0.2,0.7,0.4,1.1c0.1,0.2,0.1,0.3,0.2,0.5s0.2,0.4,0.3,0.6s0.2,0.4,0.3,0.6l0.2,0.3
			c0.1,0.2,0.3,0.5,0.5,0.7l0,0v-48.9l-3.1-10.9c-0.5-1.5-2-2.5-3.7-2.4c-2.2,0-3.8,1.6-3.5,3.4c0,0,0.1,0.5,0.2,1.3
			C123.2,104,123.4,104.1,123.7,104.2L123.7,104.2z"/>
	</g>
</g>
</svg>
