<svg xmlns="http://www.w3.org/2000/svg" viewBox="0 0 620.6 230"><defs><style>.cls-1{isolation:isolate;}.cls-2{fill:none;}.cls-3{fill:#eebe1c;}.cls-3,.cls-4,.cls-5,.cls-6{mix-blend-mode:multiply;}.cls-4{fill:#07b1d3;}.cls-5{fill:#98b43d;}.cls-6{fill:#d82990;}.cls-7{fill:#045166;}</style></defs><title>logolarge</title><g class="cls-1"><g id="Layer_1" data-name="Layer 1"><path class="cls-2" d="M61.93,78.71c-.2,4.87-.4,11.12-.49,14.26a1.59,1.59,0,0,0,2.17,1.31,1.51,1.51,0,0,0,1.07-1.18l1.79-11.47-1.92-1.25C63.8,79.89,62.9,79.32,61.93,78.71Z"/><path class="cls-2" d="M91.1,101.36c-.37-.48-.74-1-1.14-1.43A1.27,1.27,0,0,0,91.1,101.36Z"/><path class="cls-2" d="M76.64,93.54c-.14,1.13.79,1.74,2,1.21a1.21,1.21,0,0,0,.73-.87c.08-.54.24-1.55.45-2.88-.85-.64-1.73-1.29-2.62-1.93Z"/><path class="cls-2" d="M129.34,201.89v0l.17-.25.51-.73.39-.54.48-.61a28.86,28.86,0,0,1,2.14-2.45l.16-.18h0l.39-.4.08-.07c3.64-3.62,11-9,17.13-13.2l.18-.13.95-.64.41-.28,1.19-.8.74-.49.52-.35.74-.49.42-.27,1.07-.69c1.67-1.08,4-2.53,6.41-4.12l0,0,1.11-.73.16-.1,1-.67a92.26,92.26,0,0,0,9.54-7,16,16,0,0,0,3.3-3.68c1.83-3.2-.84-5.4-2.47-6.35-2.33-1.35-7.32.72-8.49,1.1-.5.15-1.07.35-1.68.58h0c-.72.27-1.51.58-2.35.92l-.11,0-.72.3-.23.09-.7.3-.29.12-.7.3-.29.12-.72.31-.29.13-2.46,1.08-.35.16-.63.28-.47.22-.6.27-.52.23-.52.24-.59.27-.49.23-.62.28-.42.19-1,.48a15.8,15.8,0,0,1-12.11.5,12.92,12.92,0,0,1-5.55-4h0c-.17-.22-.33-.45-.48-.68l-.22-.33c-.12-.2-.23-.4-.34-.6s-.18-.37-.27-.56-.14-.31-.2-.47a8.5,8.5,0,0,1-.37-1.11c-1-3.78-1.9-27.5-2.32-32.61-.37-4.55-3.2-18-3.2-18a3.48,3.48,0,0,0-.19-.65c0-.06,0-.11-.07-.16l-.09-.18-.16-.29s0-.08-.07-.13-.17-.21-.25-.31l-.15-.19-.16-.15-.29-.26-.26-.2-.31-.19a2.26,2.26,0,0,0-.26-.16,4.76,4.76,0,0,0-.65-.29h0a5.69,5.69,0,0,0-1.62-.33,2.55,2.55,0,0,0-.39,0c-2.84,0-5.06,2-4.84,4.42,0,0,.81,8.23,1,11,.27,4.16.61,14.85.75,19.29a1.6,1.6,0,0,1-2.17,1.32,1.49,1.49,0,0,1-1.07-1.18l-3-19.17-3-16.66A4.71,4.71,0,0,0,104.11,99h0a6.51,6.51,0,0,0-1.25,0c-2.7.3-4.56,2.42-4.33,4.69l.78,7.58,1.29,11.69h0l.16,1.49,1.8,14.36c.15,1.14-.79,1.75-2,1.22a1.17,1.17,0,0,1-.73-.88c-.34-2.17-1.88-11.93-3.23-19.16h0c-.46-2.45-.9-4.62-1.26-6.09-.47-1.92-2.38-7.57-2.38-7.57-.62-2-3.07-3.15-5.46-2.55a3.83,3.83,0,0,0-3.07,3.72l.16,4.29s.41,12.47,1,16.6c.51,3.61,2.64,12.56,3.64,16.69.21.87-.48,1.63-1.53,1.59a1.49,1.49,0,0,1-1.41-1l-7.13-24a3.67,3.67,0,0,0-3.65-2.43c-2.17,0-3.79,1.64-3.52,3.42,0,0,3.45,24.74,5,32.94,2,11.05,1.78,23,6.75,38a13.38,13.38,0,0,0,1.1,2.48,25.51,25.51,0,0,1,3.57,12.61V230H125V216A25.58,25.58,0,0,1,129.34,201.89Z"/><polygon class="cls-3" points="100.59 122.91 99.31 111.22 100.59 122.91 100.59 122.91"/><path class="cls-3" d="M88.36,208.7a25.51,25.51,0,0,0-3.57-12.61,13.38,13.38,0,0,1-1.1-2.48c-5-14.94-4.72-26.92-6.75-38-1.51-8.2-5-32.94-5-32.94-.27-1.78,1.35-3.37,3.52-3.42a3.67,3.67,0,0,1,3.65,2.43l7.13,24a1.49,1.49,0,0,0,1.41,1c1,0,1.74-.72,1.53-1.59-1-4.13-3.13-13.08-3.64-16.69-.58-4.13-1-16.6-1-16.6l-.16-4.29a3.83,3.83,0,0,1,3.07-3.72c2.39-.6,4.84.58,5.46,2.55,0,0,1.91,5.65,2.38,7.57.36,1.47.8,3.64,1.26,6.09v-2.89a26,26,0,0,0-5.5-15.69A1.27,1.27,0,0,1,90,99.93c-.62-.73-1.28-1.45-2-2.13a.6.6,0,0,0-.08-.08A83.86,83.86,0,0,0,79.82,91c-.21,1.33-.37,2.34-.45,2.88a1.21,1.21,0,0,1-.73.87c-1.21.53-2.14-.08-2-1.21l.56-4.47c-3.76-2.75-7.67-5.42-10.73-7.44L64.68,93.1a1.51,1.51,0,0,1-1.07,1.18A1.59,1.59,0,0,1,61.44,93c.09-3.14.29-9.39.49-14.26-3.12-2-7.1-4.56-10.49-6.94-.57,3.15-1.09,6.28-1.23,8-.42,5.11-1.37,28.83-2.33,32.62a11.66,11.66,0,0,1-7.43,7.75,15.8,15.8,0,0,1-12.11-.5c-5.79-2.7-13.09-6-16.77-7.14-1.17-.38-6.15-2.45-8.48-1.1-1.64,1-4.3,3.15-2.48,6.35a16,16,0,0,0,3.31,3.68c4,3.63,13.58,9.58,18.27,12.6,6.19,4,18.31,12.35,23.35,17.34l.08.08c5.47,5.39,8.61,12.17,8.61,19.25V230H88.36Z"/><path class="cls-3" d="M102.85,99a6.51,6.51,0,0,1,1.25,0h0A6.63,6.63,0,0,0,102.85,99Z"/><path class="cls-3" d="M58.32,58.27a5.53,5.53,0,0,0-3.23,1c2.14.77,5,2,8.08,3.33C63.29,60.25,61.11,58.29,58.32,58.27Z"/><path class="cls-3" d="M79.75,67.29l.14-1.3.78-7.58a4.53,4.53,0,0,0-4.32-4.68c-2.77-.31-5.24,1.3-5.65,3.54l-1.46,8,1.47.68A16,16,0,0,0,79.75,67.29Z"/><path class="cls-3" d="M90.25,58.74c0-.11,0-.24.08-.38a4.26,4.26,0,0,0-4.09,2.69s-.79,2.33-1.48,4.5A11.24,11.24,0,0,0,90.25,58.74Z"/><path class="cls-4" d="M154.78,180.75l-.52.35Z"/><path class="cls-4" d="M133.87,47.7a1.46,1.46,0,0,0,1.41-1l1.79-6c-.27-1.38-.53-2.59-.76-3.51s-.64-2.25-1.09-3.67c-.87,4.17-2.16,9.6-2.88,12.56C132.13,47,132.82,47.74,133.87,47.7Z"/><path class="cls-4" d="M133,197.29a28.86,28.86,0,0,0-2.14,2.45A28.86,28.86,0,0,1,133,197.29Z"/><path class="cls-4" d="M151.92,182.67l-.95.64Z"/><path class="cls-4" d="M160.84,160.42l.7-.3Z"/><path class="cls-4" d="M142.46,22.65a4.33,4.33,0,0,0-3,4.36l.42,4.13,2.49-8.35C142.42,22.74,142.45,22.7,142.46,22.65Z"/><path class="cls-4" d="M162.76,159.61l.72-.3Z"/><path class="cls-4" d="M161.83,160l.7-.3Z"/><path class="cls-4" d="M164.57,174.43l-1.11.73Z"/><path class="cls-4" d="M163.42,175.18c-2.44,1.59-4.74,3-6.41,4.12C158.68,178.22,161,176.77,163.42,175.18Z"/><path class="cls-4" d="M165.74,173.66l-1,.67Z"/><path class="cls-4" d="M155.94,180l-.42.27Z"/><path class="cls-4" d="M124.36,104.69h0l.29.26-.14-.13Z"/><path class="cls-4" d="M150.79,183.44c-6.14,4.21-13.49,9.58-17.13,13.2l-.08.07-.39.4V230h6V191.9C142.73,189.09,147,186,150.79,183.44Z"/><path class="cls-4" d="M123,103.89h0l-.09,0a4.76,4.76,0,0,1,.65.29A5.62,5.62,0,0,0,123,103.89Z"/><path class="cls-4" d="M125.44,106l.09.18v0A1.09,1.09,0,0,1,125.44,106Z"/><path class="cls-4" d="M125,105.29c.08.1.17.2.25.31s0,0,0,0S125,105.38,125,105.29Z"/><path class="cls-4" d="M129.34,201.89c0-.09.11-.18.17-.27l-.17.25Z"/><path class="cls-4" d="M124.1,104.49l-.31-.19Z"/><path class="cls-4" d="M130.41,200.35l-.39.54Z"/><path class="cls-4" d="M140.82,83.59a4,4,0,0,1,2.94,2.55s1.91,5.65,2.38,7.57c1.42,5.79,4,22.34,4.49,25.25a1.21,1.21,0,0,0,.73.88c1.2.53,2.14-.08,2-1.21l-1.8-14.37-1.45-13.18-.78-7.58a4.52,4.52,0,0,1,4.32-4.68c2.77-.31,5.24,1.3,5.65,3.54l3,16.66,3,19.17a1.51,1.51,0,0,0,1.07,1.18,1.59,1.59,0,0,0,2.17-1.31c-.13-4.44-.48-15.14-.74-19.3-.18-2.75-1-11-1-11-.21-2.37,2-4.4,4.84-4.42a5.85,5.85,0,0,1,1.69.23A9.46,9.46,0,0,1,172.29,81c-1-3.78-1.91-27.51-2.33-32.61-.37-4.55-3.2-18-3.2-18-.36-2-2.46-3.54-4.92-3.52-2.83,0-5.05,2.06-4.84,4.43,0,0,.81,8.23,1,11,.26,4.16.61,14.85.74,19.29a1.6,1.6,0,0,1-2.17,1.32,1.51,1.51,0,0,1-1.07-1.18l-3-19.17-3-16.66a3.45,3.45,0,0,0-.12-.46c-.79,5.64-3.45,24.38-4.73,31.31C143.12,64.9,142.86,73.58,140.82,83.59Z"/><path class="cls-4" d="M165.94,158.35c-.72.27-1.51.58-2.35.92.84-.34,1.63-.65,2.35-.92Z"/><path class="cls-4" d="M180.38,115.08c5.73-4.49,13.18-9.57,17.6-12.41,4.69-3,14.25-9,18.27-12.6a16,16,0,0,0,3.3-3.68c1.83-3.2-.83-5.4-2.47-6.35-2.33-1.35-7.31.72-8.48,1.09-3.68,1.18-11,4.45-16.78,7.15a15.77,15.77,0,0,1-12.1.5,14.16,14.16,0,0,1-3.08-1.66c.38,1.82,2.81,13.59,3.15,17.78C179.94,106.64,180.14,110.54,180.38,115.08Z"/><path class="cls-4" d="M153.52,181.59l-1.19.8Z"/><path class="cls-4" d="M156.1,162.5l.63-.28Z"/><path class="cls-4" d="M152.91,164l.49-.23Z"/><path class="cls-4" d="M121.26,103.52a5.69,5.69,0,0,1,1.62.33A5.69,5.69,0,0,0,121.26,103.52Z"/><path class="cls-4" d="M155,163l.6-.27Z"/><path class="cls-4" d="M138.49,126.48c1,0,1.75-.72,1.54-1.59-1-4.13-3.14-13.08-3.64-16.69-.27-1.9-.5-5.58-.67-9a24.62,24.62,0,0,0-2.53,10.57v2.67l3.89,13.07A1.48,1.48,0,0,0,138.49,126.48Z"/><path class="cls-4" d="M154,163.46l.52-.24Z"/><path class="cls-4" d="M157.08,162.06l2.46-1.08Z"/><path class="cls-4" d="M159.83,160.85l.72-.31Z"/><path class="cls-4" d="M151.87,164.43l.42-.19Z"/><path class="cls-5" d="M99.83,139.1a1.17,1.17,0,0,0,.73.88c1.2.53,2.14-.08,2-1.22l-1.8-14.36-.16-1.49c-.41,3.58-.86,7.32-1.55,11.25-.65-4-1.59-9.64-2.44-14.22h0C98,127.17,99.49,136.93,99.83,139.1Z"/><path class="cls-5" d="M125.28,105.73l.16.29-.12-.23A.21.21,0,0,0,125.28,105.73Z"/><path class="cls-5" d="M125,216v14h4.38V201.89A25.58,25.58,0,0,0,125,216Z"/><path class="cls-5" d="M149.35,25.41c.15-1,.23-1.62.23-1.62.27-1.78-1.35-3.38-3.52-3.43a3.7,3.7,0,0,0-3.6,2.29,5.88,5.88,0,0,1,1.36-.33A5.09,5.09,0,0,1,149.35,25.41Z"/><path class="cls-5" d="M141.53,63.35c1.2.53,2.14-.08,2-1.22l-1.81-14.36-1.44-13.18-.36-3.45-2.85,9.59c1.44,7.23,3.35,19.3,3.73,21.74A1.19,1.19,0,0,0,141.53,63.35Z"/><path class="cls-5" d="M133,197.29l.16-.18h0Z"/><path class="cls-5" d="M125.6,106.36a3.48,3.48,0,0,1,.19.65,4.54,4.54,0,0,0-.18-.63Z"/><path class="cls-5" d="M124.81,105.1l.15.19a1.83,1.83,0,0,0-.13-.16S124.81,105.11,124.81,105.1Z"/><path class="cls-5" d="M130.89,199.74l-.48.61Z"/><path class="cls-5" d="M130,200.89l-.51.73Z"/><polygon class="cls-5" points="133.19 161.4 133.19 161.4 133.19 161.4 133.19 161.4"/><path class="cls-5" d="M62.18,73.67c-.08,1.22-.16,3-.25,5,1,.61,1.87,1.18,2.62,1.67l1.92,1.25,1.2-7.7,1.57-8.62c-2-.91-4-1.85-6.07-2.74v.12S62.36,70.92,62.18,73.67Z"/><path class="cls-5" d="M132.71,160.72l-.22-.33Z"/><path class="cls-5" d="M91.7,58.5a3.83,3.83,0,0,1,3.06,3.72l-.15,4.29s-.42,12.48-1,16.6C93.11,86.72,91,95.67,90,99.8c0,0,0,.09,0,.13.4.47.77.95,1.14,1.43a1.37,1.37,0,0,0,.41,0,1.46,1.46,0,0,0,1.41-1l7.12-24a3.68,3.68,0,0,1,3.66-2.43c2.16,0,3.78,1.65,3.51,3.43,0,0-1.6,11.54-3.1,21.47a4.71,4.71,0,0,1,4.38,3.55l3,16.66,3,19.17a1.49,1.49,0,0,0,1.07,1.18,1.6,1.6,0,0,0,2.17-1.32c-.14-4.44-.48-15.13-.75-19.29-.17-2.75-1-11-1-11-.22-2.37,2-4.4,4.84-4.42a2.55,2.55,0,0,1,.39,0h0c-1.64-9-2-17-3.35-24.51-1.51-8.21-5-32.94-5-32.94-.26-1.78,1.36-3.37,3.52-3.42a3.68,3.68,0,0,1,3.66,2.43l7.12,24a1.49,1.49,0,0,0,1.41,1c1.05,0,1.75-.72,1.53-1.59-1-4.13-3.13-13.09-3.64-16.69-.57-4.13-1-16.6-1-16.6l-.15-4.29a3.83,3.83,0,0,1,3.06-3.72c2.39-.6,4.84.58,5.46,2.55,0,0,.65,1.92,1.29,3.9.34-1.65.61-3.1.76-4.13.57-4.12,1-16.6,1-16.6l.16-4.29a3.83,3.83,0,0,0-3.07-3.72c-2.39-.6-4.84.58-5.46,2.55,0,0-1.91,5.65-2.38,7.57-1.42,5.79-4,22.34-4.49,25.26a1.19,1.19,0,0,1-.73.87c-1.2.53-2.14-.08-2-1.21l1.8-14.36,1.44-13.19L123,4.72A4.52,4.52,0,0,0,118.71,0c-2.77-.31-5.24,1.3-5.64,3.54l-3,16.66-3,19.17A1.49,1.49,0,0,1,106,40.59a1.6,1.6,0,0,1-2.17-1.31c.14-4.44.48-15.14.74-19.3.18-2.75,1-11,1-11,.21-2.37-2-4.4-4.84-4.42-2.46,0-4.56,1.47-4.92,3.51,0,0-2.83,13.49-3.2,18-.41,5-1.31,27.5-2.24,32.24A5.85,5.85,0,0,1,91.7,58.5Z"/><path class="cls-5" d="M132.15,159.79c-.1-.19-.18-.37-.27-.56C132,159.42,132.05,159.6,132.15,159.79Z"/><path class="cls-5" d="M55.09,59.24l-1.15-.39c-1.18-.38-6.16-2.45-8.49-1.1-1.64,1-4.3,3.15-2.47,6.35a16,16,0,0,0,3.3,3.68,60.23,60.23,0,0,0,5.16,4c.91-5,2-10,2-10A4,4,0,0,1,55.09,59.24Z"/><path class="cls-5" d="M131.68,158.76a10.32,10.32,0,0,1-.37-1.11A8.5,8.5,0,0,0,131.68,158.76Z"/><path class="cls-5" d="M122.88,103.85Z"/><path class="cls-5" d="M77.2,89.07c.89.64,1.77,1.29,2.62,1.93.93-5.8,2.88-17.66,4-22.38.16-.69.52-1.86.9-3.07a14.51,14.51,0,0,1-1.94.94,14.16,14.16,0,0,1-3.07.8L78.44,79.18Z"/><path class="cls-3" d="M62.18,73.67c.18-2.75,1-11,1-11v-.12c-3.05-1.35-5.94-2.56-8.08-3.33a4,4,0,0,0-1.68,2.54s-1.06,5-2,10c3.39,2.38,7.37,4.94,10.49,6.94C62,76.68,62.1,74.89,62.18,73.67Z"/><path class="cls-5" d="M62.18,73.67c.18-2.75,1-11,1-11v-.12c-3.05-1.35-5.94-2.56-8.08-3.33a4,4,0,0,0-1.68,2.54s-1.06,5-2,10c3.39,2.38,7.37,4.94,10.49,6.94C62,76.68,62.1,74.89,62.18,73.67Z"/><path class="cls-3" d="M100.59,122.91,99.3,111.22l-.78-7.58c-.23-2.27,1.63-4.39,4.33-4.69a6.63,6.63,0,0,1,1.26,0c1.5-9.93,3.1-21.47,3.1-21.47.27-1.78-1.35-3.38-3.51-3.43A3.68,3.68,0,0,0,100,76.48l-7.12,24a1.46,1.46,0,0,1-1.41,1,1.37,1.37,0,0,1-.41,0,26,26,0,0,1,5.5,15.69v2.89c.85,4.58,1.79,10.18,2.44,14.22C99.73,130.23,100.18,126.49,100.59,122.91Z"/><path class="cls-5" d="M100.59,122.91,99.3,111.22l-.78-7.58c-.23-2.27,1.63-4.39,4.33-4.69a6.63,6.63,0,0,1,1.26,0c1.5-9.93,3.1-21.47,3.1-21.47.27-1.78-1.35-3.38-3.51-3.43A3.68,3.68,0,0,0,100,76.48l-7.12,24a1.46,1.46,0,0,1-1.41,1,1.37,1.37,0,0,1-.41,0,26,26,0,0,1,5.5,15.69v2.89c.85,4.58,1.79,10.18,2.44,14.22C99.73,130.23,100.18,126.49,100.59,122.91Z"/><path class="cls-3" d="M66.47,81.63c3.06,2,7,4.69,10.73,7.44l1.24-9.89,1.31-11.89a16,16,0,0,1-9-1.3l-1.47-.68-1.57,8.62Z"/><path class="cls-5" d="M66.47,81.63c3.06,2,7,4.69,10.73,7.44l1.24-9.89,1.31-11.89a16,16,0,0,1-9-1.3l-1.47-.68-1.57,8.62Z"/><path class="cls-3" d="M79.82,91a83.86,83.86,0,0,1,8.08,6.72.6.6,0,0,1,.08.08c.7.68,1.36,1.4,2,2.13,0,0,0-.08,0-.13,1-4.13,3.14-13.08,3.64-16.69.58-4.12,1-16.6,1-16.6l.15-4.29A3.83,3.83,0,0,0,91.7,58.5a5.85,5.85,0,0,0-1.37-.14c0,.14-.06.27-.08.38a11.24,11.24,0,0,1-5.49,6.81c-.38,1.21-.74,2.38-.9,3.07C82.7,73.34,80.75,85.2,79.82,91Z"/><path class="cls-5" d="M79.82,91a83.86,83.86,0,0,1,8.08,6.72.6.6,0,0,1,.08.08c.7.68,1.36,1.4,2,2.13,0,0,0-.08,0-.13,1-4.13,3.14-13.08,3.64-16.69.58-4.12,1-16.6,1-16.6l.15-4.29A3.83,3.83,0,0,0,91.7,58.5a5.85,5.85,0,0,0-1.37-.14c0,.14-.06.27-.08.38a11.24,11.24,0,0,1-5.49,6.81c-.38,1.21-.74,2.38-.9,3.07C82.7,73.34,80.75,85.2,79.82,91Z"/><path class="cls-4" d="M125.79,107a4.54,4.54,0,0,0-.18-.63A4.54,4.54,0,0,1,125.79,107Z"/><path class="cls-5" d="M125.79,107a4.54,4.54,0,0,0-.18-.63A4.54,4.54,0,0,1,125.79,107Z"/><path class="cls-4" d="M133,197.29a28.86,28.86,0,0,0-2.14,2.45l-.48.61-.39.54-.51.73c-.06.09-.12.18-.17.27V230h3.85V197.11Z"/><path class="cls-5" d="M133,197.29a28.86,28.86,0,0,0-2.14,2.45l-.48.61-.39.54-.51.73c-.06.09-.12.18-.17.27V230h3.85V197.11Z"/><path class="cls-4" d="M128.47,27.1a3.83,3.83,0,0,0-3.06,3.72l.15,4.29s.42,12.47,1,16.6c.51,3.6,2.64,12.56,3.64,16.69.22.87-.48,1.63-1.53,1.59a1.49,1.49,0,0,1-1.41-1l-7.12-24a3.68,3.68,0,0,0-3.66-2.43c-2.16.05-3.78,1.64-3.52,3.42,0,0,3.45,24.73,5,32.94,1.38,7.53,1.71,15.48,3.35,24.51h0a5.69,5.69,0,0,1,1.62.33h0l.09,0c-.12-.84-.18-1.32-.18-1.32-.27-1.79,1.35-3.38,3.51-3.43a3.68,3.68,0,0,1,3.66,2.43l3.23,10.88v-2.67a24.62,24.62,0,0,1,2.53-10.57c-.21-4-.33-7.61-.33-7.61l-.15-4.29a3.83,3.83,0,0,1,3.06-3.72,5.24,5.24,0,0,1,2.52,0c2-10,2.3-18.69,3.8-26.87,1.28-6.93,3.94-25.67,4.73-31.31a5.09,5.09,0,0,0-5.53-3.09,5.88,5.88,0,0,0-1.36.33c0,.05,0,.09-.05.14l-2.49,8.35.36,3.45,1.44,13.18,1.81,14.36c.14,1.14-.8,1.75-2,1.22a1.19,1.19,0,0,1-.73-.88c-.38-2.44-2.29-14.51-3.73-21.74l-1.79,6a1.46,1.46,0,0,1-1.41,1c-1.05,0-1.74-.72-1.53-1.59.72-3,2-8.39,2.88-12.56-.64-2-1.29-3.9-1.29-3.9C133.31,27.68,130.86,26.5,128.47,27.1Z"/><path class="cls-5" d="M128.47,27.1a3.83,3.83,0,0,0-3.06,3.72l.15,4.29s.42,12.47,1,16.6c.51,3.6,2.64,12.56,3.64,16.69.22.87-.48,1.63-1.53,1.59a1.49,1.49,0,0,1-1.41-1l-7.12-24a3.68,3.68,0,0,0-3.66-2.43c-2.16.05-3.78,1.64-3.52,3.42,0,0,3.45,24.73,5,32.94,1.38,7.53,1.71,15.48,3.35,24.51h0a5.69,5.69,0,0,1,1.62.33h0l.09,0c-.12-.84-.18-1.32-.18-1.32-.27-1.79,1.35-3.38,3.51-3.43a3.68,3.68,0,0,1,3.66,2.43l3.23,10.88v-2.67a24.62,24.62,0,0,1,2.53-10.57c-.21-4-.33-7.61-.33-7.61l-.15-4.29a3.83,3.83,0,0,1,3.06-3.72,5.24,5.24,0,0,1,2.52,0c2-10,2.3-18.69,3.8-26.87,1.28-6.93,3.94-25.67,4.73-31.31a5.09,5.09,0,0,0-5.53-3.09,5.88,5.88,0,0,0-1.36.33c0,.05,0,.09-.05.14l-2.49,8.35.36,3.45,1.44,13.18,1.81,14.36c.14,1.14-.8,1.75-2,1.22a1.19,1.19,0,0,1-.73-.88c-.38-2.44-2.29-14.51-3.73-21.74l-1.79,6a1.46,1.46,0,0,1-1.41,1c-1.05,0-1.74-.72-1.53-1.59.72-3,2-8.39,2.88-12.56-.64-2-1.29-3.9-1.29-3.9C133.31,27.68,130.86,26.5,128.47,27.1Z"/><path class="cls-4" d="M125.32,105.79l.12.23a1.09,1.09,0,0,0,.08.15C125.46,106,125.39,105.92,125.32,105.79Z"/><path class="cls-5" d="M125.32,105.79l.12.23a1.09,1.09,0,0,0,.08.15C125.46,106,125.39,105.92,125.32,105.79Z"/><path class="cls-4" d="M124.36,104.69l.15.13Z"/><path class="cls-5" d="M124.36,104.69l.15.13Z"/><path class="cls-4" d="M124.83,105.13a1.83,1.83,0,0,1,.13.16c.07.09.15.17.21.26A2.72,2.72,0,0,0,124.83,105.13Z"/><path class="cls-5" d="M124.83,105.13a1.83,1.83,0,0,1,.13.16c.07.09.15.17.21.26A2.72,2.72,0,0,0,124.83,105.13Z"/><path class="cls-6" d="M150.85,164.91l1-.48Z"/><path class="cls-6" d="M153.4,163.73l.59-.27Z"/><path class="cls-6" d="M155.63,162.72l.47-.22Z"/><path class="cls-6" d="M154.51,163.22,155,163Z"/><path class="cls-6" d="M176.64,87.12l0-.25a4.38,4.38,0,0,0-3.23-3.28A11.67,11.67,0,0,0,176.64,87.12Z"/><path class="cls-6" d="M157,179.3l-1.07.69Z"/><path class="cls-6" d="M161.54,160.12l.29-.12Z"/><path class="cls-6" d="M163.48,159.31l.11,0Z"/><path class="cls-6" d="M163.46,175.16l0,0Z"/><path class="cls-6" d="M162.53,159.7l.23-.09Z"/><path class="cls-6" d="M164.73,174.33l-.16.1Z"/><path class="cls-6" d="M160.55,160.54l.29-.12Z"/><path class="cls-6" d="M152.33,182.39l-.41.28Z"/><path class="cls-6" d="M154.26,181.1l-.74.49Z"/><path class="cls-6" d="M156.73,162.22l.35-.16Z"/><path class="cls-6" d="M155.52,180.26l-.74.49Z"/><path class="cls-6" d="M159.54,161l.29-.13Z"/><path class="cls-6" d="M151,183.31l-.18.13Z"/><path class="cls-6" d="M174.55,120.08c-5.47,5.4-8.61,12.18-8.61,19.26v19c.61-.23,1.18-.43,1.68-.58,1.17-.38,6.16-2.45,8.49-1.1,1.63,1,4.3,3.15,2.47,6.35a16,16,0,0,1-3.3,3.68,92.26,92.26,0,0,1-9.54,7l.2-.13V230h9.83V195.83c0-7.08,3.14-13.86,8.61-19.26l.08-.07c5-5,17.16-13.36,23.35-17.34,4.69-3,14.25-9,18.27-12.6a16,16,0,0,0,3.31-3.68c1.82-3.2-.84-5.4-2.48-6.35-2.33-1.35-7.31.72-8.48,1.1-3.68,1.17-11,4.44-16.78,7.14a15.77,15.77,0,0,1-12.1.5,11.66,11.66,0,0,1-7.43-7.75c-.64-2.5-1.26-13.66-1.74-22.44a71.82,71.82,0,0,0-5.75,4.92A.6.6,0,0,1,174.55,120.08Z"/><path class="cls-6" d="M123.59,104.17l-.06,0a2.26,2.26,0,0,1,.26.16l-.14-.1Z"/><path class="cls-6" d="M125.21,105.6c0,.05.05.09.07.13a.41.41,0,0,0,0-.09S125.21,105.62,125.21,105.6Z"/><path class="cls-6" d="M124.23,104.57l-.13-.08.26.2h0Z"/><path class="cls-6" d="M124.65,105l.16.15,0,0Z"/><path class="cls-6" d="M152.29,164.24l.62-.28Z"/><path class="cls-6" d="M125.53,106.2s0,.1.07.16,0,0,0-.07A.41.41,0,0,1,125.53,106.2Z"/><path class="cls-4" d="M125.17,105.55s0,0,0,0,0,0,0,0Z"/><path class="cls-6" d="M125.17,105.55s0,0,0,0,0,0,0,0Z"/><path class="cls-4" d="M123.65,104.2l.14.1.31.19.13.08C124.05,104.44,123.85,104.32,123.65,104.2Z"/><path class="cls-6" d="M123.65,104.2l.14.1.31.19.13.08C124.05,104.44,123.85,104.32,123.65,104.2Z"/><path class="cls-4" d="M124.51,104.82l.14.13.13.12Z"/><path class="cls-6" d="M124.51,104.82l.14.13.13.12Z"/><polygon class="cls-4" points="124.35 104.68 124.36 104.69 124.36 104.69 124.35 104.68"/><polygon class="cls-6" points="124.35 104.68 124.36 104.69 124.36 104.69 124.35 104.68"/><path class="cls-4" d="M123.53,104.14l.06,0a4.34,4.34,0,0,0-.62-.28h0A5.62,5.62,0,0,1,123.53,104.14Z"/><path class="cls-6" d="M123.53,104.14l.06,0a4.34,4.34,0,0,0-.62-.28h0A5.62,5.62,0,0,1,123.53,104.14Z"/><path class="cls-4" d="M131.88,159.23c-.07-.15-.14-.31-.2-.47C131.74,158.92,131.81,159.08,131.88,159.23Z"/><path class="cls-6" d="M131.88,159.23c-.07-.15-.14-.31-.2-.47C131.74,158.92,131.81,159.08,131.88,159.23Z"/><path class="cls-4" d="M133.19,161.4c-.17-.22-.33-.45-.48-.68C132.86,161,133,161.18,133.19,161.4Z"/><path class="cls-6" d="M133.19,161.4c-.17-.22-.33-.45-.48-.68C132.86,161,133,161.18,133.19,161.4Z"/><path class="cls-4" d="M125.52,106.17v0a.41.41,0,0,0,0,.09A.67.67,0,0,1,125.52,106.17Z"/><path class="cls-6" d="M125.52,106.17v0a.41.41,0,0,0,0,.09A.67.67,0,0,1,125.52,106.17Z"/><path class="cls-4" d="M166.83,87.78s.81,8.23,1,11c.26,4.16.61,14.86.74,19.3a1.59,1.59,0,0,1-2.17,1.31,1.51,1.51,0,0,1-1.07-1.18l-3-19.17-3-16.66c-.41-2.24-2.88-3.85-5.65-3.54a4.52,4.52,0,0,0-4.32,4.68l.78,7.58,1.45,13.18,1.8,14.37c.14,1.13-.8,1.74-2,1.21a1.21,1.21,0,0,1-.73-.88c-.45-2.91-3.07-19.46-4.49-25.25-.47-1.92-2.38-7.57-2.38-7.57a4,4,0,0,0-2.94-2.55,95.91,95.91,0,0,1-2.95,11.1,13.38,13.38,0,0,1-1.1,2.48c-.39.67-.73,1.35-1.05,2,.17,3.41.4,7.09.67,9,.5,3.61,2.63,12.56,3.64,16.69.21.87-.49,1.63-1.54,1.59a1.48,1.48,0,0,1-1.41-1l-3.89-13.07v49a12.92,12.92,0,0,0,5.55,4,15.8,15.8,0,0,0,12.11-.5l1-.48.42-.19.62-.28.49-.23.59-.27.52-.24L155,163l.6-.27.47-.22.63-.28.35-.16,2.46-1.08.29-.13.72-.31.29-.12.7-.3.29-.12.7-.3.23-.09.72-.3.11,0c.84-.34,1.63-.65,2.35-.92v-19c0-7.08,3.14-13.86,8.61-19.26a.6.6,0,0,0,.08-.08,71.82,71.82,0,0,1,5.75-4.92c-.24-4.54-.44-8.44-.59-10.18-.34-4.19-2.77-16-3.15-17.78a11.67,11.67,0,0,1-3.28-3.53,5.85,5.85,0,0,0-1.69-.23C168.84,83.38,166.62,85.41,166.83,87.78Z"/><path class="cls-6" d="M166.83,87.78s.81,8.23,1,11c.26,4.16.61,14.86.74,19.3a1.59,1.59,0,0,1-2.17,1.31,1.51,1.51,0,0,1-1.07-1.18l-3-19.17-3-16.66c-.41-2.24-2.88-3.85-5.65-3.54a4.52,4.52,0,0,0-4.32,4.68l.78,7.58,1.45,13.18,1.8,14.37c.14,1.13-.8,1.74-2,1.21a1.21,1.21,0,0,1-.73-.88c-.45-2.91-3.07-19.46-4.49-25.25-.47-1.92-2.38-7.57-2.38-7.57a4,4,0,0,0-2.94-2.55,95.91,95.91,0,0,1-2.95,11.1,13.38,13.38,0,0,1-1.1,2.48c-.39.67-.73,1.35-1.05,2,.17,3.41.4,7.09.67,9,.5,3.61,2.63,12.56,3.64,16.69.21.87-.49,1.63-1.54,1.59a1.48,1.48,0,0,1-1.41-1l-3.89-13.07v49a12.92,12.92,0,0,0,5.55,4,15.8,15.8,0,0,0,12.11-.5l1-.48.42-.19.62-.28.49-.23.59-.27.52-.24L155,163l.6-.27.47-.22.63-.28.35-.16,2.46-1.08.29-.13.72-.31.29-.12.7-.3.29-.12.7-.3.23-.09.72-.3.11,0c.84-.34,1.63-.65,2.35-.92v-19c0-7.08,3.14-13.86,8.61-19.26a.6.6,0,0,0,.08-.08,71.82,71.82,0,0,1,5.75-4.92c-.24-4.54-.44-8.44-.59-10.18-.34-4.19-2.77-16-3.15-17.78a11.67,11.67,0,0,1-3.28-3.53,5.85,5.85,0,0,0-1.69-.23C168.84,83.38,166.62,85.41,166.83,87.78Z"/><path class="cls-4" d="M132.49,160.39c-.12-.2-.23-.4-.34-.6C132.26,160,132.37,160.19,132.49,160.39Z"/><path class="cls-6" d="M132.49,160.39c-.12-.2-.23-.4-.34-.6C132.26,160,132.37,160.19,132.49,160.39Z"/><path class="cls-4" d="M165.74,173.66l-1,.67-.16.1-1.11.73,0,0c-2.44,1.59-4.74,3-6.41,4.12l-1.07.69-.42.27-.74.49-.52.35-.74.49-1.19.8-.41.28-.95.64-.18.13c-3.8,2.6-8.06,5.65-11.62,8.46V230h26.77V173.53Z"/><path class="cls-6" d="M165.74,173.66l-1,.67-.16.1-1.11.73,0,0c-2.44,1.59-4.74,3-6.41,4.12l-1.07.69-.42.27-.74.49-.52.35-.74.49-1.19.8-.41.28-.95.64-.18.13c-3.8,2.6-8.06,5.65-11.62,8.46V230h26.77V173.53Z"/><path class="cls-5" d="M124.78,105.07l0,0s0,0,0,0Z"/><path class="cls-6" d="M124.78,105.07l0,0s0,0,0,0Z"/><path class="cls-5" d="M125.58,106.29s0,0,0,.07v0Z"/><path class="cls-6" d="M125.58,106.29s0,0,0,.07v0Z"/><path class="cls-5" d="M125.23,105.64a.41.41,0,0,1,0,.09.21.21,0,0,1,0,.06A1.19,1.19,0,0,0,125.23,105.64Z"/><path class="cls-6" d="M125.23,105.64a.41.41,0,0,1,0,.09.21.21,0,0,1,0,.06A1.19,1.19,0,0,0,125.23,105.64Z"/><path class="cls-5" d="M124.23,104.57l.12.11Z"/><path class="cls-6" d="M124.23,104.57l.12.11Z"/><path class="cls-5" d="M123.59,104.17l.06,0Z"/><path class="cls-6" d="M123.59,104.17l.06,0Z"/><path class="cls-4" d="M137.87,94.69a95.91,95.91,0,0,0,2.95-11.1,5.24,5.24,0,0,0-2.52,0,3.83,3.83,0,0,0-3.06,3.72l.15,4.29s.12,3.62.33,7.61c.32-.69.66-1.37,1.05-2A13.38,13.38,0,0,0,137.87,94.69Z"/><path class="cls-5" d="M137.87,94.69a95.91,95.91,0,0,0,2.95-11.1,5.24,5.24,0,0,0-2.52,0,3.83,3.83,0,0,0-3.06,3.72l.15,4.29s.12,3.62.33,7.61c.32-.69.66-1.37,1.05-2A13.38,13.38,0,0,0,137.87,94.69Z"/><path class="cls-6" d="M137.87,94.69a95.91,95.91,0,0,0,2.95-11.1,5.24,5.24,0,0,0-2.52,0,3.83,3.83,0,0,0-3.06,3.72l.15,4.29s.12,3.62.33,7.61c.32-.69.66-1.37,1.05-2A13.38,13.38,0,0,0,137.87,94.69Z"/><path class="cls-4" d="M123.65,104.2c.2.12.4.24.58.37l.12.11h0l.15.13.27.25,0,.06a2.72,2.72,0,0,1,.34.42l.06.09a1.19,1.19,0,0,1,.09.15c.07.13.14.25.2.38a.67.67,0,0,0,.06.12l0,.09a4.54,4.54,0,0,1,.18.63s2.83,13.48,3.2,18c.42,5.11,1.36,28.83,2.32,32.61a10.32,10.32,0,0,0,.37,1.11c.06.16.13.32.2.47s.17.37.27.56.22.4.34.6l.22.33c.15.23.31.46.48.68h0V112.45L130,101.57a3.68,3.68,0,0,0-3.66-2.43c-2.16,0-3.78,1.64-3.51,3.43,0,0,.06.48.18,1.32a4.34,4.34,0,0,1,.62.28Z"/><path class="cls-5" d="M123.65,104.2c.2.12.4.24.58.37l.12.11h0l.15.13.27.25,0,.06a2.72,2.72,0,0,1,.34.42l.06.09a1.19,1.19,0,0,1,.09.15c.07.13.14.25.2.38a.67.67,0,0,0,.06.12l0,.09a4.54,4.54,0,0,1,.18.63s2.83,13.48,3.2,18c.42,5.11,1.36,28.83,2.32,32.61a10.32,10.32,0,0,0,.37,1.11c.06.16.13.32.2.47s.17.37.27.56.22.4.34.6l.22.33c.15.23.31.46.48.68h0V112.45L130,101.57a3.68,3.68,0,0,0-3.66-2.43c-2.16,0-3.78,1.64-3.51,3.43,0,0,.06.48.18,1.32a4.34,4.34,0,0,1,.62.28Z"/><path class="cls-6" d="M123.65,104.2c.2.12.4.24.58.37l.12.11h0l.15.13.27.25,0,.06a2.72,2.72,0,0,1,.34.42l.06.09a1.19,1.19,0,0,1,.09.15c.07.13.14.25.2.38a.67.67,0,0,0,.06.12l0,.09a4.54,4.54,0,0,1,.18.63s2.83,13.48,3.2,18c.42,5.11,1.36,28.83,2.32,32.61a10.32,10.32,0,0,0,.37,1.11c.06.16.13.32.2.47s.17.37.27.56.22.4.34.6l.22.33c.15.23.31.46.48.68h0V112.45L130,101.57a3.68,3.68,0,0,0-3.66-2.43c-2.16,0-3.78,1.64-3.51,3.43,0,0,.06.48.18,1.32a4.34,4.34,0,0,1,.62.28Z"/><path class="cls-7" d="M227,229l26.9-128.85h26.54L269,154.88l59.59-54.76H364.1l-57.83,50.54L348.72,229h-30l-31.82-61.35-25,21.88L253.62,229Z"/><path class="cls-7" d="M453.53,180.58l26.72,4q-7.83,21.7-23.47,33.17t-36.65,11.46q-23.64,0-37-14.23t-13.32-41.29a90.15,90.15,0,0,1,8.93-40.19q8.91-18.24,24.74-27.9A64.87,64.87,0,0,1,438,96q20.91,0,33.84,11.2T487,137.71l-25.4,2.46q-2.1-11.25-8.13-16.3t-16-5.05a35.12,35.12,0,0,0-20.52,6.68q-9.54,6.67-15.25,20.86A75.37,75.37,0,0,0,396,174.69q0,15.47,7.42,23.9A23.68,23.68,0,0,0,421.89,207a30,30,0,0,0,18.85-6.68Q449.3,193.68,453.53,180.58Z"/><path class="cls-7" d="M587.12,180.58l26.71,4q-7.82,21.7-23.46,33.17t-36.65,11.46q-23.64,0-37-14.23t-13.31-41.29a90.14,90.14,0,0,1,8.92-40.19q8.91-18.24,24.74-27.9A64.87,64.87,0,0,1,571.56,96q20.91,0,33.84,11.2t15.2,30.53l-25.4,2.46q-2.1-11.25-8.13-16.3t-16-5.05a35.12,35.12,0,0,0-20.52,6.68q-9.54,6.67-15.25,20.86a75.37,75.37,0,0,0-5.71,28.33q0,15.47,7.43,23.9a23.65,23.65,0,0,0,18.5,8.44,30,30,0,0,0,18.85-6.68Q582.9,193.68,587.12,180.58Z"/></g></g></svg>